<svg aria-hidden="true" style="position: absolute; width: 0; height: 0; overflow: hidden;" version="1.1" xmlns="http://www.w3.org/2000/svg" xmlns:xlink="http://www.w3.org/1999/xlink">
<defs>
<symbol id="icon-map" viewBox="0 0 54 32">
<path fill="#fff" style="fill: var(--color1, #fff)" opacity="0.05" d="M19.437 25.209c0.084-0.083 0.183-0.147 0.283-0.211 0.061-0.039 0.123-0.079 0.182-0.123 0.159-0.124 0.124-0.276 0.088-0.435-0.012-0.055-0.025-0.11-0.030-0.166M19.437 25.209l1.957-1.821c-0.155-0.017-0.233-0.134-0.213-0.267 0.019-0.15-0.194-0.201-0.31-0.15M19.437 25.209c-0.155 0.167-0.233 0.351-0.31 0.551l0.31-0.551zM19.96 24.273c-0.019-0.184 0-0.368 0.078-0.535M19.96 24.273l-0.013 0.001c0-0 0-0 0-0M19.96 24.273l-0.013 0.001c0 0 0 0 0 0M20.038 23.739c0.136-0.351 0.446-0.618 0.833-0.769M20.038 23.739l-0.012-0.006c-0 0-0 0-0 0M20.038 23.739l-0.013-0.005c0-0 0-0 0-0M20.871 22.97l-0.005-0.013c-0 0-0 0-0 0M20.871 22.97l-0.005-0.012c0 0 0-0 0-0M20.866 22.957c0.062-0.027 0.148-0.026 0.216-0 0.034 0.013 0.065 0.033 0.086 0.061s0.032 0.063 0.027 0.104l-0 0c-0.009 0.064 0.005 0.123 0.039 0.167s0.088 0.077 0.163 0.085l0 0c0.054 0.008 0.114-0.012 0.177-0.039 0.018-0.008 0.037-0.016 0.055-0.025 0.044-0.020 0.088-0.041 0.13-0.053M20.866 22.957c-0.39 0.151-0.703 0.421-0.841 0.776M21.758 23.258l-1.864 1.606c0.051-0.040 0.081-0.083 0.097-0.128s0.019-0.092 0.014-0.142c-0.005-0.049-0.016-0.1-0.028-0.152l-0.001-0.004c-0.012-0.053-0.024-0.108-0.029-0.164M21.758 23.258c0.099-0.034 0.219-0.034 0.32 0.017 0.030 0.013 0.054 0.029 0.075 0.045 0.008 0.006 0.016 0.013 0.023 0.018 0.011 0.009 0.021 0.017 0.032 0.025 0.017 0.012 0.034 0.020 0.054 0.023s0.044 0 0.076-0.012c0.028-0.012 0.055-0.026 0.080-0.039 0.003-0.001 0.005-0.003 0.008-0.004 0.023-0.012 0.046-0.024 0.069-0.034 0.052-0.023 0.107-0.041 0.178-0.041 0.157 0 0.275 0.034 0.412 0.084l0.001 0v0c0.007 0.003 0.014 0.006 0.022 0.009 0.039 0.017 0.091 0.040 0.144 0.057 0.032 0.010 0.065 0.018 0.095 0.022s0.057 0.002 0.078-0.005c0.022-0.008 0.032-0.017 0.036-0.026s0.004-0.021-0.001-0.037c-0.005-0.015-0.012-0.032-0.021-0.050l-0-0.001c-0.008-0.017-0.017-0.035-0.022-0.053l-0.029-0.075-0.029-0.076c-0.044-0.125-0.085-0.254-0.126-0.385-0.125-0.394-0.256-0.804-0.473-1.166l-0-0c-0.067-0.115-0.153-0.21-0.247-0.302-0.036-0.035-0.074-0.071-0.113-0.106-0.060-0.056-0.122-0.113-0.181-0.174l-0-0c-0.151-0.159-0.188-0.307-0.231-0.481-0.008-0.030-0.015-0.061-0.024-0.093l-0-0c-0.037-0.16-0.185-0.245-0.365-0.316-0.045-0.018-0.091-0.034-0.137-0.051l-0.009-0.003c-0.044-0.016-0.087-0.031-0.13-0.048-0.090-0.035-0.177-0.074-0.246-0.125-0.198-0.136-0.277-0.324-0.277-0.529-0.008-0.108-0.009-0.215-0.011-0.323-0-0.027-0.001-0.053-0.001-0.080-0.002-0.136-0.007-0.273-0.027-0.414v-0c-0.016-0.126-0.046-0.24-0.078-0.363-0.006-0.023-0.012-0.046-0.018-0.069-0.003-0.010-0.006-0.020-0.008-0.029-0.001-0.006-0.003-0.011-0.004-0.015-0.004-0.013-0.007-0.023-0.011-0.033-0.008-0.018-0.021-0.032-0.047-0.048-0.007-0.003-0.019-0.005-0.033-0.006s-0.031-0-0.047 0.001c-0.014 0.001-0.028 0.002-0.041 0.003-0.003 0-0.005 0-0.008 0.001-0.015 0.001-0.029 0.002-0.039 0.002h-0.001c-0.236-0.017-0.433-0.119-0.571-0.289-0.032-0.035-0.061-0.075-0.090-0.116-0.006-0.009-0.013-0.018-0.019-0.027-0.036-0.050-0.074-0.099-0.121-0.14l-0-0-0-0c-0.049-0.051-0.080-0.077-0.112-0.084s-0.066 0.003-0.123 0.036c-0.196 0.118-0.414 0.17-0.633 0.067-0.108-0.051-0.197-0.123-0.277-0.199-0.032-0.030-0.063-0.061-0.093-0.091-0.045-0.045-0.090-0.090-0.136-0.13-0.138-0.119-0.276-0.184-0.429-0.257-0.017-0.008-0.034-0.016-0.052-0.025-0.155-0.067-0.316-0.147-0.444-0.253s-0.222-0.237-0.242-0.408c-0.003-0.008-0.003-0.015-0.002-0.023s0.006-0.015 0.011-0.021c0.011-0.011 0.028-0.016 0.047-0.017 0.038-0.002 0.089 0.011 0.139 0.046l0.002 0.002 0.001 0.002c0.133 0.205 0.352 0.317 0.596 0.402 0.093 0.032 0.189 0.061 0.284 0.090 0.030 0.009 0.060 0.018 0.090 0.027 0.125 0.038 0.248 0.078 0.36 0.128l3.149 6.583zM20.025 23.733c-0.079 0.17-0.098 0.356-0.079 0.541M22.072 23.288c-0.097-0.050-0.213-0.050-0.31-0.017l1.318 0.084c-0.136-0.050-0.252-0.084-0.407-0.084-0.098 0-0.166 0.035-0.24 0.073-0.028 0.015-0.057 0.030-0.089 0.043-0.089 0.033-0.128 0.001-0.177-0.039-0.026-0.021-0.054-0.044-0.094-0.061z"></path>
<path fill="#fff" style="fill: var(--color1, #fff)" opacity="0.05" d="M22.628 27.749c0-0.428-0.020-0.856-0.059-1.285 0.051 0.046 0.102 0.093 0.152 0.141v0l0 0c0.042 0.036 0.109 0.054 0.172 0.049s0.126-0.031 0.159-0.086l0-0c0.146-0.253 0.293-0.505 0.423-0.758 0.074 0.030 0.155 0.047 0.243 0.047 0.129 0 0.233-0.043 0.331-0.093 0.025-0.013 0.049-0.026 0.073-0.039 0.071-0.039 0.141-0.077 0.22-0.102 0.202-0.061 0.412-0.066 0.625-0.071 0.020-0 0.040-0.001 0.059-0.002 0.233-0.006 0.467-0.019 0.693-0.112v0l0-0c0.373-0.169 0.59-0.542 0.531-0.9v0l-0-0c-0.068-0.337-0.368-0.571-0.724-0.652-0.001-0.057 0.015-0.112 0.044-0.164 0.049-0.086 0.133-0.165 0.235-0.236 0.204-0.141 0.474-0.245 0.648-0.303 0.483-0.15 0.985-0.216 1.487-0.183 0.066 0.004 0.117-0.014 0.152-0.046s0.052-0.077 0.052-0.122c0-0.091-0.069-0.184-0.201-0.193-0.68-0.050-1.341 0.067-1.944 0.319-0.243 0.101-0.511 0.252-0.693 0.444s-0.277 0.428-0.167 0.693h-0l0 0.001c0.020 0.044 0.046 0.075 0.080 0.098s0.075 0.035 0.124 0.044l0.001 0 0.001 0c0.305 0.016 0.548 0.246 0.511 0.503v0c-0.019 0.145-0.103 0.247-0.219 0.316s-0.264 0.107-0.409 0.123h-0c-0.116 0.014-0.235 0.019-0.356 0.025-0.020 0.001-0.040 0.002-0.059 0.003-0.14 0.006-0.282 0.015-0.418 0.040-0.117 0.017-0.235 0.051-0.352 0.101h-0l-0.001 0c-0.025 0.012-0.052 0.028-0.080 0.044-0.010 0.006-0.021 0.012-0.032 0.018-0.039 0.022-0.080 0.044-0.12 0.058s-0.079 0.021-0.115 0.015c-0.036-0.006-0.071-0.025-0.103-0.065l-0-0c-0.103-0.124-0.308-0.106-0.39 0.035l-0 0.001-0 0.001c-0.103 0.241-0.229 0.482-0.368 0.716-0.032-0.029-0.063-0.057-0.095-0.086l-0-0c-0.097-0.088-0.194-0.175-0.29-0.267v0l-0-0c-0.063-0.054-0.16-0.062-0.238-0.036s-0.143 0.089-0.133 0.181c0.058 0.619 0.175 1.221 0.31 1.823 0.006 0.030 0.025 0.051 0.049 0.063s0.053 0.016 0.080 0.013c0.055-0.007 0.111-0.044 0.111-0.112z"></path>
<path fill="#fff" style="fill: var(--color1, #fff)" opacity="0.05" d="M28.768 23.732c-0 0-0 0-0 0-0.022-0.003-0.044-0.005-0.067-0.007l-0.017-0.002 0.003 0.017 0.003 0.020c-0.057 0.018-0.098 0.048-0.123 0.084-0.026 0.038-0.034 0.082-0.026 0.124 0.016 0.084 0.094 0.159 0.216 0.168 0.327 0.033 0.626 0.149 0.921 0.281 0.062 0.028 0.124 0.056 0.186 0.084 0.233 0.106 0.466 0.213 0.712 0.286h0c0.38 0.109 0.765 0.109 1.15 0.101 0.032-0.001 0.064-0.001 0.096-0.002 0.354-0.008 0.708-0.017 1.062 0.052h0c0.174 0.033 0.367 0.083 0.52 0.149l0 0 0.001 0c0.048 0.017 0.092 0.033 0.135 0.050h0c0.043 0.016 0.086 0.033 0.134 0.049 0.005 0.004 0.012 0.009 0.021 0.014-0.010 0.004-0.020 0.009-0.029 0.014-0.009 0.004-0.017 0.008-0.026 0.013-0.030 0.015-0.057 0.028-0.079 0.035l-0.001 0-0.001 0c-0.018 0.008-0.038 0.016-0.058 0.024-0.064 0.026-0.135 0.055-0.195 0.093-0.11 0.047-0.22 0.103-0.323 0.155-0.042 0.021-0.083 0.042-0.123 0.062v0l-0.001 0c-0.582 0.318-1.145 0.703-1.63 1.138-0.025 0.021-0.051 0.044-0.078 0.066-0.078 0.065-0.162 0.136-0.237 0.212-0.102 0.103-0.191 0.218-0.231 0.346l-0 0c-0.030 0.103-0.020 0.216 0.030 0.307s0.141 0.161 0.272 0.178l0 0c0.139 0.017 0.282-0.017 0.424-0.059 0.027-0.008 0.054-0.016 0.081-0.024 0.117-0.035 0.234-0.071 0.351-0.084l0-0c0.134-0.017 0.284 0.001 0.377 0.080 0.047 0.041 0.085 0.090 0.124 0.14l0 0.001c0.038 0.050 0.078 0.101 0.127 0.143l0.001 0 0.001 0c0.098 0.067 0.197 0.119 0.318 0.119 0.050 0 0.098-0.006 0.143-0.013 0.004-0.001 0.009-0.001 0.013-0.002 0.041-0.006 0.078-0.011 0.113-0.012 0.039-0.001 0.073 0.004 0.103 0.019s0.057 0.041 0.080 0.085l0 0.001 0 0.001c0.086 0.131 0.129 0.292 0.148 0.458s0.014 0.336 0.005 0.486c-0.008 0.114-0.026 0.231-0.044 0.35-0.004 0.024-0.007 0.049-0.011 0.073-0.022 0.144-0.040 0.289-0.039 0.43s0.023 0.279 0.082 0.408c0.059 0.129 0.157 0.249 0.309 0.355 0.529 0.372 1.271 0.27 1.797-0.033 0.265-0.148 0.48-0.339 0.694-0.529 0.053-0.047 0.107-0.095 0.161-0.141v0l0-0c0.163-0.151 0.333-0.289 0.501-0.426 0.111-0.091 0.223-0.181 0.331-0.275 0.032-0.023 0.048-0.053 0.052-0.085s-0.006-0.064-0.025-0.091c-0.037-0.055-0.111-0.091-0.194-0.064-0.322 0.093-0.576 0.274-0.809 0.479-0.093 0.082-0.183 0.168-0.273 0.254-0.022 0.021-0.045 0.043-0.067 0.064-0.113 0.107-0.226 0.212-0.347 0.308-0.202 0.158-0.501 0.32-0.803 0.382s-0.607 0.024-0.825-0.213v-0c-0.113-0.122-0.147-0.273-0.147-0.432 0-0.117 0.018-0.236 0.035-0.352 0.006-0.042 0.013-0.084 0.018-0.125 0.058-0.302 0.078-0.587 0.019-0.89-0.039-0.25-0.097-0.555-0.314-0.759v0l-0-0c-0.080-0.069-0.199-0.12-0.317-0.137v0l-0.001-0c-0.045-0.004-0.090-0.001-0.133 0.004-0.019 0.002-0.037 0.005-0.055 0.007-0.024 0.003-0.047 0.007-0.071 0.009-0.081 0.008-0.154 0.004-0.217-0.051-0.038-0.041-0.072-0.082-0.105-0.124l-0-0c-0.034-0.042-0.068-0.084-0.107-0.126l-0.001-0.001-0.001-0c-0.099-0.086-0.237-0.136-0.374-0.17l-0-0-0-0c-0.274-0.051-0.548 0-0.819 0.067-0 0-0 0-0 0h-0c-0.050 0.011-0.1 0.022-0.151 0.037 0.012-0.019 0.022-0.037 0.030-0.050 0.057-0.066 0.114-0.115 0.192-0.181v0l0-0c0.232-0.217 0.484-0.434 0.735-0.634 0.522-0.384 1.103-0.701 1.722-0.984l0-0c0.107-0.050 0.23-0.122 0.303-0.21 0.036-0.044 0.060-0.093 0.062-0.147s-0.020-0.109-0.070-0.165c-0.089-0.103-0.242-0.183-0.407-0.246s-0.345-0.109-0.491-0.143c-0.389-0.101-0.797-0.151-1.205-0.151-0.107 0-0.214 0.004-0.32 0.009-0.007 0-0.014 0.001-0.021 0.001-0.099 0.004-0.199 0.008-0.298 0.009-0.213 0.002-0.424-0.010-0.636-0.068v0l-0-0c-0.298-0.076-0.568-0.199-0.839-0.321-0.054-0.024-0.108-0.049-0.162-0.073-0.197-0.088-0.397-0.17-0.608-0.229 0.055-0.121 0.054-0.262-0.030-0.391l-0-0c-0.005-0.007-0.010-0.014-0.015-0.021 0.28 0.035 0.56 0.067 0.835 0.092v0c0.195 0.017 0.397-0.012 0.532-0.098 0.067-0.043 0.118-0.101 0.142-0.174s0.019-0.161-0.020-0.264c-0.069-0.18-0.218-0.307-0.399-0.39s-0.396-0.12-0.601-0.12c-0.437 0-0.874 0.057-1.31 0.113-0.145 0.019-0.29 0.038-0.435 0.054l-0.002 0-0.002 0.001c-0.074 0.037-0.11 0.126-0.102 0.204 0.004 0.039 0.019 0.076 0.047 0.103s0.069 0.041 0.12 0.037c0.032-0.003 0.065-0.006 0.097-0.008 0.358-0.031 0.73-0.063 1.085-0.109 0.009-0.001 0.017-0.002 0.026-0.003 0.159-0.016 0.336-0.034 0.507-0.024 0.18 0.010 0.351 0.052 0.484 0.158v0l0.001 0c0.028 0.020 0.054 0.044 0.074 0.067s0.032 0.045 0.035 0.063c0.001 0.008 0.001 0.015-0.002 0.021s-0.007 0.011-0.015 0.015c-0.017 0.009-0.049 0.015-0.102 0.011-0.087-0.008-0.174-0.021-0.261-0.033h-0c-0.087-0.013-0.174-0.025-0.262-0.033-0.203-0.025-0.412-0.050-0.62-0.075h-0c-0.208-0.025-0.417-0.050-0.62-0.075-0.070-0.009-0.146 0.004-0.202 0.037s-0.095 0.088-0.084 0.162c0.020 0.19 0.141 0.31 0.337 0.395l0.001 0 0.001 0c0.029 0.008 0.188 0.058 0.3 0.114 0.028 0.014 0.053 0.028 0.072 0.042s0.031 0.026 0.036 0.036c0.002 0.005 0.002 0.008 0.001 0.011s-0.003 0.007-0.008 0.011z"></path>
<path fill="#fff" style="fill: var(--color1, #fff)" opacity="0.05" d="M37.155 29.465l-0.001 0.001c-0.053 0.028-0.118 0.019-0.158-0.019-0.042-0.038-0.056-0.104-0.015-0.183l0.001-0.001 0.001-0.001c0.158-0.205 0.371-0.26 0.598-0.281 0.067-0.006 0.137-0.010 0.207-0.013 0.047-0.002 0.093-0.004 0.14-0.008 0.116-0.008 0.231-0.021 0.341-0.054 0.229-0.074 0.396-0.235 0.564-0.404 0.010-0.010 0.021-0.021 0.031-0.031 0.157-0.159 0.316-0.321 0.528-0.416l0.001-0c0.254-0.101 0.528-0.135 0.801-0.084 0.137 0.017 0.274 0.068 0.391 0.118l0.001 0 0.001 0c0.059 0.034 0.113 0.076 0.166 0.118l0 0c0.053 0.042 0.106 0.083 0.163 0.116 0.045 0.023 0.107 0.033 0.178 0.032s0.15-0.012 0.229-0.029c0.159-0.033 0.318-0.087 0.415-0.121l0-0c0.134-0.041 0.234-0.095 0.302-0.168s0.106-0.165 0.115-0.288l0-0c0.019-0.193 0.091-0.419 0.27-0.544-0.046-0.009-0.092-0.009-0.14-0.009-0.116 0.017-0.231 0.033-0.346 0.066-0.134 0.050-0.249 0.116-0.364 0.215l-0.001 0.001-0.001 0c-0.019 0.012-0.038 0.026-0.058 0.040l-0.003 0.002c-0.019 0.013-0.038 0.027-0.058 0.040-0.042 0.027-0.086 0.053-0.136 0.070-0.201 0.069-0.381-0.035-0.48-0.172l-0-0c-0.015-0.022-0.028-0.045-0.039-0.068l-0-0c-0.012-0.023-0.023-0.044-0.036-0.062s-0.026-0.032-0.043-0.040c-0.016-0.008-0.036-0.012-0.063-0.009-0.054 0.008-0.105 0.043-0.15 0.086-0.034 0.032-0.063 0.067-0.088 0.097-0.009 0.011-0.017 0.020-0.025 0.029l-0 0-0 0c-0.157 0.152-0.353 0.271-0.609 0.288h-0c-0.53 0.034-0.941-0.339-1.231-0.656-0.35-0.369-0.603-0.788-0.797-1.224-0.117-0.252-0.195-0.503-0.234-0.772-0.004-0.023-0.008-0.046-0.013-0.070-0.016-0.088-0.033-0.181-0.043-0.273-0.012-0.118-0.012-0.236 0.017-0.347 0.030-0.129 0.1-0.219 0.191-0.293 0.075-0.061 0.166-0.113 0.26-0.166 0.020-0.011 0.039-0.022 0.059-0.034l0-0c0.126-0.067 0.252-0.138 0.378-0.209v-0c0.126-0.071 0.252-0.142 0.378-0.209 0.262-0.15 0.523-0.297 0.785-0.443l0-0c0.262-0.146 0.523-0.292 0.785-0.443 0.048-0.029 0.096-0.058 0.144-0.088 0.2-0.124 0.398-0.247 0.634-0.314l0.001-0 0.001-0c0.135-0.033 0.272-0.067 0.41-0.050 0.079 0 0.152 0.013 0.222 0.025l0.007 0.001c0.068 0.012 0.133 0.024 0.197 0.024 0.123 0 0.242-0.041 0.363-0.091 0.028-0.012 0.056-0.024 0.085-0.036 0.093-0.040 0.188-0.081 0.285-0.107l0.001-0 0.001-0c0.242-0.045 0.409-0.010 0.617 0.033 0.028 0.006 0.056 0.012 0.085 0.017 0.112 0.016 0.2-0.020 0.278-0.077 0.057-0.042 0.108-0.094 0.157-0.146 0.019-0.020 0.038-0.039 0.057-0.058l0-0 0-0 0.001-0.001c0.135-0.117 0.272-0.235 0.449-0.302l0-0 0-0c0.12-0.037 0.244-0.051 0.367-0.066 0.017-0.002 0.035-0.004 0.052-0.006 0.14-0.017 0.279-0.037 0.413-0.095 0.106-0.050 0.207-0.108 0.309-0.166l0-0c0.102-0.058 0.204-0.117 0.311-0.167l0-0c0.254-0.118 0.508-0.169 0.782-0.152l0 0c0.037 0.003 0.080 0.008 0.125 0.013 0.019 0.002 0.039 0.005 0.060 0.007 0.067 0.008 0.139 0.014 0.21 0.015 0.142 0.002 0.278-0.019 0.371-0.099 0.055-0.047 0.078-0.11 0.090-0.18 0.006-0.035 0.009-0.071 0.012-0.107 0-0.003 0.001-0.007 0.001-0.010 0.002-0.033 0.005-0.065 0.009-0.096l0-0 0.029-0.175 0.029-0.175 0-0 0-0c0.058-0.251 0.136-0.503 0.253-0.738M37.155 29.465l10.592-10.188M37.155 29.465l0.001-0.001c0.094-0.073 0.202-0.093 0.316-0.093 0.057 0 0.116 0.005 0.175 0.011 0.015 0.002 0.030 0.003 0.046 0.005 0.044 0.005 0.088 0.010 0.132 0.013 0.233 0.017 0.468 0.017 0.684-0.068M37.155 29.465l1.354-0.133M47.735 19.271c0 0 0-0 0-0l0.012 0.006M47.735 19.271c-0 0-0 0-0 0l0.012 0.006M47.735 19.271c0.098-0.202 0.235-0.389 0.472-0.491l0.001-0 0.001-0c0.063-0.021 0.126-0.038 0.186-0.054 0.007-0.002 0.013-0.003 0.020-0.005 0.053-0.014 0.105-0.028 0.155-0.043 0.113-0.035 0.218-0.081 0.313-0.162l0.001-0h0c0.051-0.040 0.103-0.082 0.155-0.125 0.041-0.034 0.084-0.069 0.127-0.103 0.097-0.077 0.197-0.15 0.304-0.206 0.214-0.112 0.451-0.155 0.727-0.019l0 0c0.041 0.022 0.066 0.052 0.076 0.085s0.004 0.067-0.012 0.096c-0.032 0.059-0.105 0.104-0.188 0.095l-0.001-0c-0.17-0.024-0.316 0.036-0.448 0.127-0.091 0.063-0.173 0.139-0.251 0.21-0.035 0.033-0.070 0.065-0.104 0.094l-0.001 0c-0.234 0.185-0.45 0.27-0.741 0.353-0.17 0.049-0.274 0.155-0.346 0.282-0.064 0.114-0.101 0.245-0.136 0.367-0.004 0.015-0.008 0.029-0.013 0.044l-0 0c-0.077 0.238-0.105 0.465-0.132 0.692-0.007 0.058-0.014 0.117-0.022 0.175l-0 0.001c-0.049 0.281-0.223 0.439-0.452 0.522s-0.511 0.091-0.783 0.074M47.747 19.277c0.097-0.201 0.233-0.384 0.465-0.485 0.070-0.023 0.138-0.041 0.205-0.059 0.173-0.046 0.333-0.088 0.473-0.209 0.051-0.040 0.103-0.082 0.156-0.125 0.324-0.266 0.676-0.556 1.143-0.326 0.155 0.084 0.039 0.267-0.116 0.251-0.294-0.042-0.52 0.165-0.711 0.342-0.035 0.033-0.069 0.064-0.103 0.093-0.233 0.184-0.446 0.267-0.736 0.351-0.33 0.095-0.417 0.399-0.491 0.658-0.004 0.015-0.008 0.029-0.013 0.043-0.077 0.239-0.105 0.468-0.133 0.695-0.007 0.058-0.014 0.116-0.022 0.174-0.097 0.551-0.678 0.618-1.221 0.585M46.642 21.279c0 0 0 0 0 0l0.001-0.013M46.642 21.279c-0.346-0.017-0.556 0.049-0.845 0.199-0.023 0.013-0.046 0.027-0.069 0.040-0.206 0.12-0.405 0.235-0.651 0.295-0.089 0.022-0.179 0.033-0.266 0.044-0.046 0.006-0.091 0.012-0.135 0.019-0.128 0.021-0.246 0.054-0.35 0.135l-0.001 0-0.001 0c-0.076 0.049-0.138 0.111-0.201 0.174l-0 0c-0.063 0.062-0.126 0.126-0.205 0.177-0.176 0.118-0.373 0.187-0.591 0.152-0.043-0.006-0.089-0.017-0.136-0.028-0.017-0.004-0.034-0.008-0.052-0.012-0.065-0.015-0.132-0.027-0.198-0.027-0.095 0-0.19 0.034-0.276 0.065-0.017 0.006-0.033 0.012-0.049 0.017-0.028 0.011-0.057 0.023-0.085 0.034-0.185 0.074-0.374 0.151-0.578 0.151-0.078 0-0.15-0.006-0.219-0.014-0.017-0.002-0.034-0.004-0.051-0.006-0.050-0.006-0.099-0.011-0.148-0.014-0.129-0.008-0.258 0-0.41 0.066-0.271 0.125-0.527 0.271-0.781 0.421-0.060 0.035-0.119 0.071-0.179 0.106-0.194 0.116-0.389 0.232-0.589 0.341-0.136 0.075-0.266 0.15-0.397 0.225l-0 0c-0.131 0.075-0.262 0.15-0.397 0.226-0.079 0.045-0.167 0.089-0.256 0.133-0.042 0.021-0.085 0.042-0.127 0.063-0.131 0.067-0.255 0.137-0.351 0.22-0.040 0.035-0.064 0.086-0.075 0.147s-0.009 0.133-0.001 0.206c0.011 0.101 0.035 0.203 0.055 0.291 0.009 0.041 0.018 0.079 0.024 0.111 0.058 0.217 0.116 0.433 0.212 0.649l0 0c0.193 0.449 0.502 0.882 0.888 1.232l0 0h-0c0.077 0.075 0.187 0.166 0.309 0.227s0.254 0.094 0.375 0.054l0.001-0v0c0.112-0.032 0.187-0.113 0.262-0.201 0.006-0.007 0.012-0.014 0.018-0.021 0.069-0.081 0.14-0.164 0.241-0.212 0.197-0.102 0.474-0.103 0.653 0.035 0.080 0.052 0.12 0.121 0.158 0.187l0 0.001 0.002 0.003v0.004c0-0 0 0 0 0.002 0 0 0 0.001 0 0.001 0.001 0.002 0.002 0.005 0.004 0.009 0.003 0.007 0.008 0.015 0.013 0.023l0 0c0.003 0.004 0.005 0.009 0.008 0.014l0.009-0.007c0.051-0.086 0.16-0.158 0.276-0.214 0.117-0.057 0.244-0.099 0.331-0.124 0.215-0.067 0.449-0.084 0.684-0.051 0.098 0.009 0.202 0.034 0.286 0.081s0.151 0.117 0.171 0.214c0.020 0.096-0.005 0.175-0.050 0.246-0.033 0.052-0.077 0.101-0.122 0.15-0.015 0.017-0.030 0.033-0.044 0.050l-0 0v-0c-0.084 0.089-0.108 0.186-0.125 0.287-0.002 0.014-0.004 0.027-0.007 0.041-0.014 0.089-0.028 0.181-0.080 0.271-0.079 0.154-0.237 0.272-0.392 0.372l-0 0c-0.196 0.118-0.41 0.185-0.644 0.236l-0 0-0 0c-0.036 0.006-0.074 0.012-0.113 0.019-0.074 0.013-0.151 0.027-0.227 0.035-0.117 0.013-0.235 0.013-0.345-0.021l-0-0c-0.117-0.039-0.209-0.109-0.299-0.178-0.009-0.007-0.018-0.014-0.027-0.021-0.099-0.075-0.199-0.144-0.331-0.169l-0-0c-0.228-0.049-0.457 0.016-0.649 0.132-0.133 0.089-0.248 0.195-0.363 0.3-0.036 0.033-0.071 0.065-0.107 0.097-0.153 0.136-0.314 0.263-0.52 0.339M46.642 21.279c0 0-0 0-0 0l0.001-0.013M46.642 21.266c-0.349-0.017-0.562 0.050-0.853 0.201-0.023 0.013-0.047 0.027-0.070 0.040-0.206 0.12-0.403 0.234-0.647 0.294-0.088 0.022-0.177 0.033-0.263 0.044-0.179 0.023-0.349 0.044-0.493 0.157-0.078 0.050-0.141 0.113-0.203 0.175s-0.126 0.125-0.203 0.175c-0.174 0.117-0.368 0.184-0.581 0.15-0.042-0.006-0.088-0.017-0.134-0.028-0.081-0.019-0.167-0.039-0.253-0.039-0.097 0-0.195 0.035-0.281 0.066-0.017 0.006-0.033 0.012-0.049 0.017-0.029 0.011-0.057 0.023-0.086 0.034-0.185 0.074-0.372 0.15-0.573 0.15-0.097 0-0.184-0.010-0.268-0.019-0.185-0.021-0.352-0.039-0.565 0.053-0.335 0.155-0.648 0.341-0.961 0.528-0.194 0.116-0.389 0.232-0.589 0.341-0.136 0.075-0.266 0.15-0.397 0.226s-0.262 0.15-0.397 0.226c-0.079 0.045-0.166 0.089-0.255 0.133-0.174 0.086-0.353 0.175-0.481 0.285-0.147 0.127-0.074 0.442-0.024 0.659 0.009 0.041 0.018 0.078 0.024 0.11v0c0.058 0.217 0.116 0.434 0.213 0.652 0.194 0.451 0.504 0.886 0.891 1.237 0.155 0.15 0.446 0.368 0.698 0.284 0.125-0.036 0.206-0.131 0.287-0.226 0.069-0.081 0.138-0.163 0.236-0.209 0.194-0.1 0.465-0.1 0.639 0.033 0.078 0.050 0.116 0.117 0.155 0.184v0c0 0.008 0.010 0.025 0.019 0.042 0.003 0.005 0.006 0.011 0.009 0.016l-2.678 2.077M41.217 27.248l-0.013 0.011-2.7 2.061c0.251-0.093 0.436-0.262 0.622-0.433 0.116-0.106 0.232-0.213 0.366-0.302 0.194-0.117 0.426-0.184 0.659-0.134 0.148 0.027 0.256 0.109 0.364 0.192 0.090 0.069 0.181 0.138 0.295 0.176 0.176 0.055 0.379 0.019 0.565-0.014 0.039-0.007 0.077-0.014 0.114-0.019 0.233-0.050 0.446-0.117 0.639-0.234 0.155-0.1 0.31-0.217 0.388-0.368 0.050-0.087 0.064-0.177 0.078-0.266 0.018-0.117 0.036-0.232 0.135-0.336 0.015-0.017 0.030-0.034 0.045-0.051 0.103-0.114 0.202-0.223 0.168-0.384-0.039-0.184-0.252-0.267-0.446-0.284-0.233-0.033-0.465-0.017-0.678 0.050-0.174 0.050-0.504 0.167-0.601 0.334z"></path>
<path fill="#fff" style="fill: var(--color1, #fff)" opacity="0.05" d="M53.573 12.831c0.049-0.145 0.044-0.277 0.025-0.407-0.007-0.046-0.016-0.092-0.024-0.139-0.004-0.019-0.007-0.038-0.011-0.058-0.012-0.066-0.023-0.133-0.028-0.204v-0c-0.005-0.064 0.009-0.127 0.031-0.19 0.014-0.040 0.030-0.078 0.046-0.117 0.010-0.023 0.020-0.046 0.029-0.070 0.049-0.124 0.080-0.251-0.011-0.382l-0-0c-0.14-0.19-0.419-0.223-0.635-0.155-0.069 0.017-0.128 0.047-0.186 0.076l-0.001 0c-0.058 0.029-0.115 0.058-0.181 0.074l-0 0-0.001 0c-0.075 0.024-0.129 0.020-0.177-0.002s-0.090-0.062-0.139-0.112c-0.016-0.017-0.031-0.034-0.046-0.050-0.137-0.149-0.27-0.295-0.482-0.371-0.118-0.042-0.235-0.059-0.352-0.070-0.039-0.004-0.078-0.006-0.117-0.009-0.077-0.006-0.154-0.011-0.231-0.022-0.018-0.003-0.037-0.006-0.055-0.008-0.006-0.001-0.012-0.002-0.018-0.002-0.023-0.003-0.046-0.007-0.067-0.012-0.042-0.010-0.078-0.026-0.104-0.056s-0.046-0.079-0.063-0.131c-0.004-0.013-0.008-0.027-0.013-0.040-0.012-0.039-0.024-0.078-0.039-0.11l-0-0.001-0-0.001c-0.070-0.112-0.16-0.169-0.262-0.182s-0.21 0.017-0.318 0.077c-0.083 0.040-0.162 0.036-0.239 0.012-0.066-0.021-0.13-0.056-0.195-0.092-0.012-0.007-0.025-0.014-0.037-0.020-0.156-0.084-0.331-0.151-0.505-0.218l-0-0c-0.31-0.134-0.64-0.251-0.97-0.335-0.005-0.001-0.010-0.003-0.015-0.004-0.113-0.033-0.248-0.072-0.378-0.080-0.135-0.008-0.266 0.017-0.357 0.121-0.006 0.006-0.012 0.014-0.017 0.023s-0.010 0.021-0.015 0.033c-0.009 0.022-0.018 0.048-0.027 0.073-0.001 0.003-0.002 0.005-0.003 0.008-0.010 0.028-0.019 0.055-0.029 0.076-0.005 0.011-0.009 0.019-0.013 0.025s-0.008 0.009-0.009 0.009c-0.007 0.003-0.017 0.004-0.031 0.003s-0.030-0.005-0.048-0.011c-0.037-0.011-0.079-0.030-0.123-0.050s-0.087-0.044-0.124-0.063l-0.004-0.002c-0.035-0.019-0.065-0.034-0.084-0.043-0.27-0.15-0.501-0.333-0.714-0.532-0.115-0.116-0.202-0.248-0.289-0.384-0.003-0.005-0.006-0.010-0.009-0.014-0.084-0.131-0.17-0.264-0.283-0.386-0.218-0.256-0.533-0.289-0.863-0.272v0h-0.001c-0.369 0.034-0.739 0.117-1.089 0.252-0.175 0.067-0.331 0.151-0.485 0.234-0.005 0.002-0.012 0.005-0.019 0.008-0.048 0.021-0.138 0.061-0.218 0.081-0.047 0.011-0.088 0.015-0.115 0.007-0.013-0.004-0.022-0.011-0.028-0.020s-0.009-0.024-0.007-0.045l0-0c0.005-0.058-0.013-0.105-0.046-0.139s-0.078-0.055-0.128-0.063c-0.098-0.017-0.215 0.012-0.277 0.093-0.021 0.025-0.052 0.036-0.092 0.036s-0.086-0.011-0.133-0.027c-0.093-0.033-0.184-0.087-0.222-0.111 0 0-0-0-0-0l-0.001-0.001c-0.174-0.117-0.35-0.235-0.565-0.285v0l-0-0c-0.129-0.026-0.237-0.013-0.34 0.013-0.049 0.012-0.096 0.027-0.144 0.042-0.003 0.001-0.005 0.002-0.008 0.002-0.050 0.016-0.101 0.031-0.153 0.044-0.21 0.049-0.439 0.016-0.629-0.099v0l-0-0c-0.171-0.098-0.285-0.262-0.323-0.442-0.019-0.097-0.005-0.187 0.017-0.276 0.006-0.024 0.012-0.048 0.019-0.073 0.017-0.065 0.035-0.131 0.042-0.198v-0c0.020-0.196-0.055-0.371-0.139-0.542-0.011-0.023-0.023-0.046-0.035-0.069-0.075-0.149-0.15-0.297-0.175-0.462v-0c-0.010-0.067-0.049-0.112-0.099-0.135s-0.111-0.027-0.169-0.013c-0.115 0.026-0.225 0.118-0.204 0.253v0 0c0.020 0.119 0.069 0.229 0.125 0.336 0.019 0.036 0.038 0.072 0.058 0.107 0.039 0.070 0.077 0.14 0.109 0.212v0l0 0c0.056 0.114 0.057 0.219 0.038 0.326-0.009 0.051-0.023 0.102-0.036 0.154-0.001 0.003-0.002 0.006-0.002 0.009-0.015 0.055-0.029 0.112-0.039 0.171l-0 0.001-0 0c-0.039 0.458 0.275 0.898 0.765 1.067 0.235 0.084 0.489 0.101 0.743 0.068 0.069-0.009 0.138-0.034 0.206-0.059l0.001-0c0.068-0.025 0.134-0.049 0.2-0.058 0.13 0 0.231 0.060 0.332 0.12 0.016 0.009 0.032 0.019 0.048 0.028 0.185 0.117 0.409 0.227 0.63 0.257 0.098 0.013 0.196 0.011 0.289-0.014 0.081 0.079 0.191 0.136 0.306 0.161 0.303 0.065 0.568-0.088 0.793-0.218 0.010-0.006 0.020-0.012 0.030-0.017 0.328-0.183 0.694-0.299 1.080-0.349 0.018-0.002 0.037-0.004 0.055-0.006 0.063-0.007 0.128-0.015 0.193-0.017 0.084-0.002 0.164 0.006 0.229 0.038v0l0.001 0c0.074 0.032 0.126 0.088 0.168 0.154 0.021 0.033 0.041 0.068 0.059 0.103 0.004 0.007 0.008 0.015 0.012 0.022 0.015 0.028 0.029 0.056 0.045 0.083v0l0 0.001c0.311 0.487 0.759 0.889 1.303 1.174 0.107 0.059 0.239 0.126 0.378 0.164s0.288 0.047 0.428-0.013c0.113-0.049 0.156-0.143 0.192-0.222 0.003-0.006 0.005-0.012 0.008-0.018 0.009-0.015 0.015-0.027 0.019-0.038 0.001-0.001 0.001-0.003 0.002-0.004 0.005-0.011 0.009-0.018 0.013-0.022s0.009-0.007 0.019-0.009c0.011-0.002 0.027-0.003 0.051-0.003 0.046 0 0.102 0.016 0.16 0.037 0.028 0.010 0.055 0.021 0.082 0.031l0.003 0.001c0.028 0.011 0.055 0.021 0.079 0.030l0 0c0.368 0.117 0.716 0.25 1.065 0.401 0.064 0.028 0.13 0.062 0.199 0.097l0.010 0.005c0.072 0.037 0.147 0.076 0.224 0.108 0.154 0.065 0.316 0.108 0.485 0.074l0.001-0 0.001-0c0.029-0.008 0.069-0.021 0.105-0.036 0.026-0.011 0.052-0.023 0.073-0.035 0.021 0.101 0.079 0.201 0.137 0.268v0l0 0c0.159 0.171 0.396 0.221 0.629 0.238h0c0.022 0.002 0.045 0.003 0.067 0.004 0.23 0.014 0.45 0.027 0.623 0.176 0.043 0.037 0.081 0.078 0.119 0.121 0.011 0.012 0.021 0.024 0.032 0.037 0.027 0.031 0.053 0.061 0.081 0.091 0.078 0.082 0.167 0.155 0.297 0.19 0.159 0.051 0.288 0.030 0.413-0.013 0.045-0.015 0.089-0.033 0.135-0.051 0.018-0.007 0.035-0.014 0.053-0.021 0.064-0.025 0.13-0.049 0.201-0.065l0.001-0 0.001-0c0.026-0.008 0.047-0.013 0.064-0.015s0.028-0.001 0.035 0.001c0.007 0.002 0.010 0.006 0.012 0.009s0.003 0.010 0.002 0.019c-0.002 0.018-0.012 0.043-0.026 0.070-0.011 0.021-0.024 0.043-0.036 0.065-0.003 0.005-0.006 0.010-0.009 0.015l-0.001 0.001-0 0.001c-0.059 0.152-0.079 0.288-0.059 0.441v0l0 0.001c0.007 0.039 0.014 0.077 0.021 0.115 0.024 0.124 0.046 0.241 0.044 0.355-0.002 0.147-0.045 0.29-0.178 0.438l-0 0c-0.114 0.131-0.267 0.214-0.439 0.263v0l-0 0c-0.047 0.015-0.093 0.027-0.138 0.039-0.030 0.008-0.059 0.015-0.089 0.024-0.073 0.021-0.143 0.046-0.203 0.089-0.119 0.077-0.199 0.193-0.219 0.314s0.020 0.248 0.141 0.343l-0 0 0.001 0c0.11 0.079 0.253 0.114 0.381 0.145 0.010 0.002 0.021 0.005 0.031 0.007l0 0 0.201 0.043c-0.018 0-0.036 0.001-0.054 0.001-0.010 0-0.020 0-0.029 0.001-0.060 0.001-0.116 0.003-0.156 0.012-0.177 0.034-0.335 0.119-0.434 0.239-0.218 0.256-0.197 0.579-0.119 0.864l0 0c0.021 0.073 0.084 0.117 0.155 0.133s0.153 0.002 0.214-0.042l0.001-0 0-0c0.026-0.023 0.048-0.026 0.067-0.021 0.019 0.006 0.038 0.022 0.054 0.045s0.029 0.050 0.038 0.075c0.009 0.025 0.013 0.047 0.013 0.057v0.001l0 0.001c0.009 0.049 0.009 0.102 0.009 0.156v0.001c0 0.054 0 0.109 0.010 0.16l0.001 0.011c0.019 0.146 0.040 0.312 0.156 0.43 0.003 0.005 0.009 0.011 0.014 0.017s0.014 0.013 0.023 0.020 0.039 0.030 0.060 0.045 0.041 0.028 0.056 0.038c0.004 0.002 0.007 0.005 0.010 0.006l-0.162 0.14c-0.134 0.148-0.175 0.344-0.212 0.522-0.001 0.006-0.003 0.012-0.004 0.019l-0 0.001-0 0.001c-0.019 0.184-0.039 0.366-0.096 0.531-0.047 0.114-0.113 0.182-0.199 0.222s-0.196 0.053-0.331 0.053c-0.097 0-0.194-0-0.29-0.001-0.48-0.002-0.951-0.005-1.436 0.051l-0.001 0-0.001 0c-0.090 0.026-0.153 0.083-0.171 0.138-0.010 0.028-0.008 0.057 0.009 0.080s0.046 0.038 0.087 0.042c0.388 0.050 0.757 0.067 1.145 0.067 0.082 0 0.169 0.004 0.258 0.009 0.010 0 0.020 0.001 0.030 0.002 0.080 0.004 0.162 0.009 0.244 0.010 0.184 0.004 0.37-0.004 0.537-0.055l0-0c0.152-0.051 0.261-0.126 0.34-0.218s0.127-0.199 0.16-0.313c0.033-0.114 0.051-0.235 0.067-0.354l0.002-0.017c0.016-0.113 0.031-0.224 0.059-0.326 0.019-0.052 0.051-0.101 0.090-0.148 0.025-0.031 0.053-0.061 0.081-0.091 0.016-0.017 0.031-0.034 0.047-0.052 0.085-0.096 0.161-0.2 0.151-0.332l-0-0.001c-0.010-0.070-0.035-0.118-0.071-0.157-0.033-0.037-0.075-0.066-0.12-0.097-0.003-0.002-0.005-0.004-0.008-0.006-0.056-0.040-0.088-0.084-0.107-0.134s-0.023-0.106-0.023-0.173v-0.002c0-0.249 0-0.54-0.277-0.711-0.095-0.066-0.209-0.1-0.321-0.1-0.003-0.075 0.006-0.151 0.035-0.217l0-0c0.038-0.089 0.088-0.136 0.155-0.164 0.068-0.028 0.153-0.037 0.26-0.045 0.155-0.008 0.327-0.029 0.467-0.089s0.252-0.159 0.282-0.323M53.573 12.831c-0.078 0.237-0.235 0.439-0.45 0.591-0.099 0.085-0.217 0.136-0.352 0.186l-0 0c-0.025 0.009-0.060 0.017-0.098 0.026-0.004 0.001-0.008 0.002-0.013 0.003-0.035 0.008-0.072 0.017-0.108 0.027-0.041 0.011-0.080 0.024-0.112 0.039s-0.056 0.031-0.069 0.049c-0.008 0.014-0.010 0.026-0.008 0.036s0.008 0.020 0.020 0.030c0.023 0.020 0.062 0.037 0.109 0.050 0.071 0.020 0.153 0.032 0.211 0.041 0.019 0.003 0.035 0.005 0.047 0.007l0.001 0 0.001 0c0.174 0.050 0.347 0.083 0.522 0.117 0.062 0.009 0.104 0.041 0.128 0.084s0.029 0.097 0.018 0.149M53.573 12.831c0 0 0 0-0 0l-0.013-0.004 0.013 0.004c0 0 0 0 0 0zM53.419 14.267c0 0 0 0 0 0l-0.013-0.003 0.013 0.002c0 0 0 0 0 0z"></path>
<path fill="#fff" style="fill: var(--color1, #fff)" opacity="0.05" d="M39.193 6.066l-0 0c-0.063 0.091-0.173 0.095-0.248 0.048-0.038-0.024-0.067-0.060-0.078-0.106s-0.003-0.1 0.033-0.157c0.028-0.048 0.035-0.086 0.030-0.116s-0.023-0.055-0.049-0.078c-0.027-0.023-0.061-0.043-0.098-0.062-0.009-0.005-0.019-0.010-0.028-0.015-0.028-0.014-0.057-0.029-0.083-0.045l-0-0-0-0c-0.119-0.085-0.179-0.189-0.199-0.326-0.019-0.065-0.042-0.102-0.078-0.12s-0.091-0.020-0.178-0.003c-0.077 0.016-0.148 0.041-0.221 0.066l-0 0c-0.072 0.025-0.146 0.050-0.224 0.067l-0.001 0-0.001 0c-0.156 0.017-0.313 0.017-0.471-0.034l-0.001-0c-0.069-0.025-0.132-0.059-0.195-0.092l-0-0c-0.063-0.033-0.125-0.066-0.192-0.091-0.322-0.092-0.661-0.027-0.989 0.037-0.023 0.004-0.046 0.009-0.069 0.013-0.163 0.052-0.329-0.088-0.288-0.25 0.135-0.548 0.077-1.096-0.212-1.611-0.031-0.054-0.036-0.121-0.013-0.179s0.076-0.107 0.157-0.125c0.017-0.004 0.034-0.008 0.051-0.012 0.092-0.021 0.189-0.044 0.28-0.074 0.108-0.035 0.208-0.081 0.284-0.146 0.066-0.057 0.112-0.13 0.124-0.201s-0.011-0.14-0.084-0.196l-0-0-0-0c-0.057-0.049-0.128-0.090-0.204-0.132-0.007-0.004-0.013-0.007-0.020-0.011-0.069-0.038-0.139-0.077-0.202-0.123l-0-0-0-0c-0.136-0.118-0.254-0.252-0.332-0.405-0.073-0.119-0.129-0.248-0.185-0.375-0.019-0.043-0.038-0.087-0.058-0.129-0.077-0.169-0.164-0.33-0.297-0.462-0.095-0.090-0.252-0.177-0.407-0.203s-0.302 0.007-0.386 0.15c-0.042 0.073-0.125 0.103-0.206 0.101s-0.163-0.037-0.205-0.1l-0-0c-0.083-0.135-0.24-0.161-0.413-0.138s-0.355 0.093-0.481 0.143c-0.349 0.167-0.701 0.319-1.113 0.235M39.193 6.066l-14.777-1.411c0.023 0.071 0.038 0.153 0.054 0.239 0.051 0.276 0.109 0.587 0.45 0.664l-0.003 0.013c0 0 0 0 0 0 0.129 0.030 0.228 0.014 0.304-0.032s0.127-0.122 0.162-0.208c0.069-0.172 0.074-0.392 0.074-0.525 0-0.543 0.005-1.156 0.147-1.722 0.135-0.536 0.393-1.030 0.886-1.384 0.27 0.072 0.52 0.031 0.766-0.041 0.087-0.025 0.174-0.055 0.262-0.085 0.060-0.020 0.12-0.040 0.18-0.059 0.149-0.047 0.3-0.088 0.459-0.104 0.18-0.016 0.342 0.045 0.507 0.116 0.017 0.007 0.035 0.015 0.052 0.023 0.147 0.064 0.299 0.13 0.466 0.146 0.332 0.034 0.665-0.051 0.938-0.202l0-0c0.278-0.165 0.387-0.37 0.515-0.611 0.017-0.032 0.034-0.064 0.052-0.097l0-0c0.047-0.089 0.108-0.135 0.178-0.155s0.152-0.013 0.24 0.007c0.084 0.020 0.172 0.052 0.26 0.085l0.010 0.004c0.091 0.033 0.181 0.066 0.265 0.083M39.193 6.066l0-0c0.079-0.135 0.119-0.273 0.079-0.428l-0-0c-0.020-0.069-0.060-0.138-0.119-0.206-0.031-0.035-0.071-0.061-0.11-0.084-0.007-0.004-0.014-0.008-0.021-0.012-0.032-0.019-0.061-0.036-0.084-0.055-0.025-0.022-0.034-0.055-0.039-0.094-0.002-0.013-0.003-0.025-0.004-0.038-0.001-0.007-0.001-0.014-0.002-0.021-0.002-0.020-0.004-0.040-0.010-0.058-0.020-0.069-0.060-0.138-0.12-0.19-0.139-0.12-0.337-0.154-0.514-0.137-0.108 0.008-0.206 0.034-0.303 0.063-0.026 0.008-0.052 0.016-0.079 0.024-0.071 0.022-0.143 0.045-0.221 0.063-0.111 0.024-0.21-0.012-0.308-0.064-0.029-0.015-0.057-0.031-0.086-0.048-0.021-0.012-0.041-0.024-0.063-0.035-0.050-0.028-0.102-0.053-0.157-0.070-0.313-0.098-0.657-0.080-0.986-0.031M39.193 6.066l-3.144-1.421M31.642 0.808c0 0 0 0 0 0h0c0 0-0 0-0 0zM36.049 4.645c0.074-0.474 0.001-0.955-0.204-1.392 0.171-0.057 0.339-0.13 0.479-0.224 0.213-0.144 0.362-0.34 0.352-0.613v0l-0-0.001c-0.020-0.224-0.18-0.377-0.375-0.495l-0-0c-0.251-0.15-0.442-0.299-0.576-0.546l-0-0c-0.054-0.096-0.102-0.2-0.152-0.306-0.004-0.008-0.008-0.017-0.012-0.025-0.054-0.114-0.109-0.231-0.173-0.342-0.129-0.223-0.295-0.426-0.56-0.553M36.049 4.645l-13.694-0.747c0.004 0.003 0.007 0.006 0.011 0.009-0.018 0.014-0.033 0.031-0.049 0.049-0.007 0.008-0.013 0.016-0.020 0.024-0.019 0.024-0.039 0.048-0.061 0.067M34.828 0.148c0 0 0 0 0 0l-0.006 0.012 0.006-0.012c0 0 0 0 0 0zM34.828 0.148c-0.206-0.102-0.456-0.131-0.682-0.089-0.12 0.022-0.233 0.065-0.33 0.129M33.816 0.188c-0.11-0.071-0.243-0.111-0.383-0.127-0.245-0.027-0.513 0.019-0.728 0.103M33.816 0.188c-0.004 0.003-0.008 0.005-0.012 0.008l0.024-0c-0.004-0.003-0.008-0.005-0.012-0.008zM32.705 0.164c-0.078 0.029-0.155 0.065-0.233 0.1l-0.001 0c-0.078 0.036-0.157 0.072-0.236 0.102-0.159 0.060-0.321 0.097-0.492 0.064l-0-0c-0.118-0.020-0.229-0.057-0.34-0.094-0.025-0.008-0.049-0.016-0.074-0.024-0.136-0.044-0.273-0.082-0.421-0.082-0.172 0-0.3 0.045-0.401 0.116s-0.175 0.169-0.242 0.272c-0.026 0.040-0.050 0.081-0.075 0.121-0.040 0.066-0.079 0.131-0.124 0.194-0.072 0.1-0.155 0.189-0.269 0.25M32.705 0.164c0 0 0-0 0-0l0.005 0.013-0.005-0.013c0 0 0-0 0-0zM29.797 1.184c-0.23 0.115-0.497 0.148-0.745 0.066M29.797 1.184c0-0 0-0 0-0l0.006 0.012-0.006-0.012c0-0 0-0 0-0zM29.052 1.25c-0.067-0.025-0.132-0.052-0.197-0.079l-0-0c-0.065-0.027-0.129-0.054-0.195-0.078-0.131-0.048-0.269-0.086-0.425-0.095v-0h-0.001c-0.265 0-0.53 0.083-0.778 0.16-0.026 0.008-0.053 0.016-0.079 0.024l-0 0c-0.029 0.010-0.059 0.020-0.090 0.031-0.101 0.035-0.208 0.072-0.315 0.094-0.139 0.029-0.276 0.033-0.398-0.024M29.052 1.25c0 0 0 0 0 0l-0.005 0.013 0.004-0.013c0 0 0 0 0 0zM26.573 1.284c-0.102-0.053-0.205-0.034-0.304 0.034v0c-0.896 0.622-1.207 1.629-1.285 2.583l-0 0c-0.019 0.285-0.019 0.569-0.019 0.853v0c0 0.042 0 0.086-0.001 0.13M26.573 1.284c0 0 0 0 0 0l-0.006 0.012 0.006-0.012c0 0 0 0 0 0zM24.964 4.886c-0.010-0.059-0.020-0.121-0.031-0.183l-0-0h0l-0-0.001c-0.058-0.269-0.176-0.538-0.351-0.774v0l-0-0c-0.332-0.421-0.881-0.659-1.449-0.422M24.964 4.886c0.004 0.023 0.008 0.046 0.012 0.068l-2.749-0.917M24.964 4.886c-0 0.023-0.001 0.046-0.002 0.069-0.014-0.079-0.028-0.164-0.042-0.25l-0-0c-0.058-0.267-0.174-0.535-0.349-0.769-0.329-0.418-0.872-0.652-1.434-0.418M23.133 3.506c-0.039 0.014-0.084 0.035-0.13 0.057-0.012 0.006-0.024 0.011-0.036 0.017-0.058 0.027-0.114 0.051-0.16 0.059M23.133 3.506c0-0 0-0 0-0l0.004 0.013M23.133 3.506c-0 0-0 0-0 0l0.005 0.012M22.807 3.639c-0.054-0-0.099-0.023-0.147-0.052-0.007-0.004-0.015-0.009-0.022-0.014-0.041-0.025-0.085-0.052-0.136-0.067M22.807 3.639c0 0 0.001 0 0.001 0v0.014M22.807 3.639c-0 0-0.001 0-0.001 0l0.002 0.013M22.503 3.506c-0.181-0.069-0.36 0.001-0.498 0.12-0.016 0.014-0.036 0.040-0.059 0.070-0.005 0.006-0.009 0.012-0.014 0.019-0.019 0.026-0.040 0.055-0.063 0.082-0.028 0.034-0.057 0.066-0.085 0.090-0.027 0.022-0.052 0.035-0.075 0.037M22.503 3.506c0 0 0 0 0.001 0l-0.005 0.013M22.503 3.506c-0-0-0-0-0.001-0l-0.004 0.013M21.71 3.923c-0.002-0.003-0.005-0.008-0.008-0.015-0.004-0.010-0.008-0.022-0.012-0.036-0.007-0.027-0.012-0.055-0.012-0.070v-0.001l-0-0.002c-0.019-0.1-0.039-0.201-0.078-0.303v0l-0-0.001c-0.089-0.205-0.277-0.341-0.495-0.406s-0.468-0.061-0.684 0.015M21.71 3.923c0.001 0.001 0.001 0.002 0.002 0.002 0.002 0.001 0.003 0.002 0.005 0.002s0.002 0.001 0.003 0.002 0.002 0.001 0.003 0.002 0.001 0.001 0.002 0.002c0.076-0.018 0.158-0.128 0.219-0.212 0.029-0.039 0.053-0.072 0.070-0.087 0.136-0.117 0.31-0.184 0.484-0.117M21.71 3.923c-0.002 0-0.004 0-0.006 0-0.004 0-0.007 0-0.010 0-0.016-0.030-0.029-0.092-0.029-0.12-0.019-0.1-0.039-0.201-0.078-0.301-0.174-0.401-0.736-0.535-1.163-0.384M20.421 3.105c-0.294 0.102-0.49 0.304-0.646 0.523M20.421 3.105c0 0 0 0 0-0l0.004 0.013M20.421 3.105c0 0-0 0-0 0l0.005 0.013M19.775 3.628c-0.015 0.019-0.029 0.040-0.043 0.062M19.775 3.628c0-0 0-0 0-0l0.011 0.008M19.775 3.628c-0 0-0 0-0 0l0.011 0.008M19.732 3.69c-0.011-0.023-0.022-0.044-0.031-0.061l-0-0c-0.119-0.196-0.346-0.319-0.586-0.353s-0.496 0.021-0.674 0.183M19.732 3.69c0.002 0.005 0.005 0.010 0.007 0.015 0.015-0.024 0.031-0.048 0.047-0.069M19.732 3.69c-0.003 0.005-0.006 0.009-0.009 0.014-0.012-0.026-0.024-0.050-0.035-0.068-0.233-0.384-0.891-0.485-1.24-0.167M18.439 3.459c-0.056 0.049-0.078 0.106-0.073 0.162s0.035 0.107 0.080 0.147c0.089 0.079 0.236 0.11 0.359 0.013v0l0-0c0.055-0.047 0.133-0.068 0.211-0.064s0.151 0.032 0.197 0.079M18.439 3.459c0-0 0-0 0-0l0.009 0.010M18.439 3.459c-0 0-0 0-0 0l0.009 0.010M19.214 3.796c0.057 0.063 0.074 0.138 0.093 0.215 0.003 0.011 0.005 0.022 0.008 0.034 0.022 0.089 0.052 0.177 0.154 0.238 0.201 0.121 0.441 0.034 0.579-0.12l0.001-0.001 0-0.001c0.039-0.055 0.072-0.112 0.103-0.168 0.008-0.015 0.017-0.030 0.025-0.045 0.023-0.041 0.045-0.082 0.068-0.121 0.065-0.108 0.141-0.206 0.264-0.279v0l0-0c0.075-0.049 0.184-0.081 0.293-0.083s0.216 0.027 0.29 0.098M19.214 3.796c-0-0-0-0-0-0l0.010-0.009M19.214 3.796c0 0 0 0 0 0l0.010-0.009M21.093 3.562c0.065 0.072 0.089 0.165 0.108 0.263 0.002 0.012 0.005 0.024 0.007 0.036 0.016 0.086 0.033 0.174 0.077 0.25l0 0 0 0c0.064 0.094 0.14 0.153 0.223 0.185s0.169 0.035 0.256 0.019c0.173-0.032 0.345-0.142 0.472-0.269M21.093 3.562c-0-0-0-0-0-0l0.010-0.009M21.093 3.562c0 0 0 0 0 0l0.009-0.010M22.236 4.047c-0 0-0 0-0 0l-0.009-0.010M22.236 4.047c0-0 0-0 0-0l-0.009-0.010M23.138 3.519c-0.038 0.013-0.083 0.034-0.128 0.056-0.070 0.033-0.142 0.068-0.201 0.078M22.808 3.653c-0.067 0-0.121-0.033-0.178-0.068-0.041-0.025-0.083-0.051-0.132-0.066M20.425 3.118c-0.291 0.1-0.484 0.301-0.639 0.518M18.448 3.469c-0.213 0.184 0.116 0.485 0.349 0.301 0.116-0.1 0.329-0.084 0.426 0.017M19.224 3.786c0.059 0.066 0.078 0.144 0.096 0.222 0.024 0.1 0.047 0.197 0.156 0.263 0.194 0.117 0.426 0.033 0.562-0.117 0.049-0.069 0.088-0.141 0.127-0.212 0.084-0.154 0.166-0.303 0.338-0.406 0.155-0.1 0.446-0.134 0.601 0.017M21.103 3.552c0.076 0.084 0.097 0.195 0.118 0.306 0.017 0.086 0.033 0.172 0.075 0.245 0.252 0.368 0.678 0.184 0.93-0.067"></path>
<path fill="#fff" style="fill: var(--color1, #fff)" opacity="0.05" d="M18.417 3.073c0.061 0.035 0.101 0.088 0.14 0.155 0.010 0.017 0.020 0.039 0.028 0.061 0.006 0.019 0.011 0.038 0.013 0.055 0.030-0.005 0.061-0.006 0.093-0.002 0.052 0.006 0.103 0.025 0.143 0.054s0.069 0.070 0.075 0.121l0 0.001-0 0.001c-0.010 0.096-0.061 0.171-0.135 0.215s-0.169 0.057-0.269 0.031l-0-0-0-0c-0.099-0.034-0.178-0.085-0.238-0.154l-0.001-0.001-0.001-0.001c-0.010-0.018-0.020-0.044-0.030-0.071-0.003-0.009-0.007-0.019-0.010-0.028-0.006-0.018-0.013-0.036-0.019-0.053-0.009-0.019-0.013-0.033-0.015-0.045-0.002 0.001-0.005 0.002-0.008 0.002l-0.001 0-0.001 0c-0.045 0.008-0.091 0.039-0.139 0.077-0.009 0.007-0.019 0.015-0.028 0.022-0.039 0.031-0.079 0.063-0.119 0.083-0.097 0.050-0.216 0.102-0.336 0.102-0.099 0-0.192-0.015-0.276-0.045-0.096 0.154-0.238 0.281-0.436 0.361-0.102 0.044-0.213 0.022-0.285-0.035-0.036-0.029-0.062-0.067-0.071-0.111s-0.001-0.092 0.029-0.141c0.003-0.004 0.002-0.007 0.001-0.010-0.002-0.004-0.007-0.009-0.017-0.015-0.019-0.011-0.049-0.021-0.082-0.030-0.067-0.017-0.143-0.025-0.161-0.025-0.061 0-0.123 0.005-0.185 0.011-0.016 0.001-0.031 0.003-0.047 0.004-0.078 0.006-0.156 0.011-0.235 0.002-0.276-0.017-0.473-0.153-0.629-0.339l-0-0c-0.015-0.020-0.029-0.039-0.043-0.058-0.059-0.080-0.113-0.153-0.205-0.206-0.056-0.032-0.127-0.053-0.202-0.070-0.032-0.007-0.065-0.014-0.098-0.020-0.005-0.001-0.010-0.002-0.015-0.003-0.037-0.007-0.074-0.015-0.108-0.023l-0-0c-0.329-0.083-0.677-0.15-1.026-0.217h-0c-1.278-0.251-2.576-0.401-3.873-0.434h-0c-0.562-0.017-1.142-0.017-1.723 0.033-0.213 0.025-0.444 0.063-0.656 0.131s-0.403 0.168-0.537 0.316l-0 0c-0.062 0.066-0.112 0.141-0.16 0.22-0.019 0.031-0.037 0.063-0.055 0.095-0.028 0.049-0.056 0.098-0.086 0.145-0.1 0.158-0.223 0.303-0.441 0.379-0.237 0.085-0.455 0-0.666-0.083l-0.002-0.001c-0.105-0.041-0.172-0.035-0.217-0.002-0.047 0.034-0.075 0.101-0.094 0.192l-0 0c-0.048 0.206-0.024 0.437 0.034 0.666s0.149 0.453 0.237 0.645l0 0c0.193 0.449 0.521 0.848 0.907 1.182 0.063 0.054 0.078 0.14 0.055 0.215s-0.085 0.142-0.178 0.16c-0.020 0.004-0.033 0.011-0.042 0.019s-0.014 0.019-0.017 0.032c-0.005 0.027 0.003 0.063 0.018 0.102 0.024 0.060 0.062 0.121 0.088 0.163 0.008 0.013 0.015 0.023 0.019 0.032 0.097 0.151 0.176 0.32 0.196 0.507 0.039 0.321-0.059 0.628-0.354 0.831-0.118 0.085-0.256 0.136-0.413 0.153l-0.001 0h-0.001c-0.039 0-0.081-0.004-0.123-0.008-0.020-0.002-0.040-0.004-0.060-0.005-0.060-0.004-0.116-0.004-0.162 0.012l-0.001 0-0.001 0c-0.044 0.008-0.085 0.038-0.123 0.078-0.025 0.025-0.047 0.053-0.068 0.078-0.011 0.014-0.022 0.028-0.033 0.040l-0 0c-0.291 0.318-0.601 0.635-0.911 0.953-0.291 0.318-0.601 0.635-0.911 0.953l-0 0-0 0c-0.043 0.042-0.086 0.084-0.13 0.126-0.251 0.243-0.505 0.488-0.702 0.758-0.259 0.356-0.297 0.736-0.225 1.113s0.255 0.752 0.439 1.095c0.061 0.105 0.042 0.249-0.084 0.303-0.198 0.085-0.357 0.068-0.552 0l-0-0-0-0c-0.009-0.004-0.022-0.011-0.037-0.019-0.003-0.001-0.005-0.003-0.008-0.004-0.019-0.010-0.041-0.021-0.064-0.031s-0.046-0.019-0.066-0.025c-0.021-0.006-0.037-0.007-0.048-0.004l-0.001 0c-0.015 0.003-0.031 0.015-0.047 0.035s-0.031 0.045-0.046 0.073c-0.014 0.027-0.026 0.055-0.038 0.081l-0.001 0.003c-0.012 0.027-0.023 0.051-0.033 0.069-0.095 0.175-0.188 0.349-0.28 0.521-0.17 0.319-0.338 0.634-0.515 0.949-0.014 0.031-0.032 0.064-0.051 0.097-0.002 0.003-0.003 0.006-0.005 0.009-0.021 0.037-0.042 0.074-0.057 0.112-0.031 0.075-0.039 0.149 0.015 0.218 0.037 0.048 0.094 0.089 0.156 0.128 0.020 0.013 0.042 0.026 0.063 0.039 0.043 0.026 0.087 0.053 0.126 0.081l0 0c0.126 0.092 0.247 0.18 0.368 0.267l0 0c0.121 0.088 0.242 0.175 0.368 0.267 0.032 0.022 0.077 0.058 0.132 0.102 0.039 0.031 0.082 0.065 0.129 0.101 0.114 0.088 0.248 0.186 0.383 0.266s0.27 0.141 0.386 0.156c0.058 0.007 0.11 0.003 0.155-0.016s0.084-0.052 0.114-0.104l0-0c0.073-0.117 0.213-0.119 0.313-0.067 0.051 0.026 0.093 0.067 0.114 0.116s0.019 0.108-0.017 0.166l-0 0-0 0c-0.158 0.222-0.435 0.323-0.729 0.306-0 0-0 0-0 0l0.001-0.014c-0.321-0.016-0.588-0.208-0.816-0.372l16.597-14.361zM18.417 3.073c-0.1-0.069-0.22-0.086-0.339-0.069l-0.001 0-0.001 0c-0.055 0.013-0.12 0.048-0.187 0.087-0.020 0.011-0.040 0.023-0.059 0.035-0.049 0.029-0.098 0.059-0.147 0.084-0.069 0.035-0.134 0.060-0.19 0.062-0.028 0.001-0.053-0.004-0.076-0.016s-0.044-0.032-0.062-0.061c-0.021-0.037-0.058-0.063-0.101-0.078s-0.091-0.021-0.138-0.016c-0.092 0.009-0.183 0.056-0.194 0.149-0.015 0.071-0.039 0.134-0.075 0.189M18.417 3.073l-1.568 0.365M16.849 3.438c-0.018-0.016-0.038-0.032-0.059-0.047M16.849 3.438l-0.059-0.047M16.79 3.391c-0.237-0.187-0.513-0.186-0.804-0.153h-0c-0.136 0.017-0.267 0.016-0.359-0.048-0.047-0.032-0.084-0.077-0.12-0.124-0.009-0.012-0.019-0.025-0.028-0.038-0.026-0.036-0.053-0.072-0.082-0.103-0.186-0.224-0.441-0.297-0.713-0.374-0.016-0.005-0.033-0.009-0.049-0.014l-0-0c-1.415-0.368-2.87-0.585-4.343-0.669v0h-0c-0.717-0.033-1.454-0.050-2.171-0.033h-0c-0.524 0.017-1.088 0.1-1.537 0.353-0.215 0.118-0.391 0.287-0.508 0.472-0.025 0.034-0.048 0.079-0.072 0.127-0.007 0.014-0.014 0.029-0.021 0.043-0.017 0.035-0.035 0.071-0.053 0.107-0.053 0.1-0.114 0.188-0.196 0.219v0l-0 0c-0.054 0.023-0.104 0.020-0.153 0.004-0.038-0.012-0.074-0.032-0.111-0.052-0.011-0.006-0.023-0.012-0.035-0.018l-0-0-0-0c-0.118-0.051-0.255-0.085-0.393-0.085h-0l-0 0c-0.237 0.017-0.435 0.153-0.534 0.324-0.138 0.238-0.157 0.521-0.12 0.802s0.129 0.563 0.216 0.797l0 0c0.202 0.509 0.522 0.98 0.945 1.38-0.071 0.088-0.113 0.195-0.113 0.303 0 0.154 0.070 0.287 0.145 0.414 0.009 0.015 0.018 0.030 0.027 0.045 0.067 0.112 0.133 0.222 0.158 0.345h-0l0 0.001c0.038 0.147 0.019 0.309-0.093 0.421-0.065 0.064-0.13 0.088-0.201 0.099-0.035 0.005-0.072 0.007-0.112 0.008-0.004 0-0.007 0-0.011 0-0.036 0.001-0.073 0.002-0.113 0.006-0.197 0-0.345 0.073-0.473 0.174-0.087 0.069-0.166 0.153-0.243 0.236-0.035 0.038-0.071 0.075-0.106 0.111l-0 0c-0.271 0.276-0.543 0.556-0.814 0.836s-0.543 0.56-0.814 0.835l-0 0c-0.085 0.089-0.176 0.18-0.269 0.272-0.149 0.148-0.302 0.299-0.441 0.458-0.226 0.257-0.416 0.535-0.495 0.847-0.157 0.584 0.040 1.166 0.305 1.711l14.907-10.040z"></path>
<path fill="#fff" style="fill: var(--color1, #fff)" opacity="0.05" d="M3.096 17.309v0 0zM3.096 17.309l0.004-0.003M3.096 17.309l0.004-0.003M3.099 17.306c0.008-0.018 0.020-0.034 0.032-0.044l0.004-0.003h0.005c0.005 0 0.006-0.001 0.011-0.005 0-0 0-0 0-0 0.004-0.003 0.009-0.008 0.017-0.010 0.001-0.002 0.002-0.004 0.003-0.006 0.004-0.005 0.008-0.007 0.012-0.009s0.007-0.002 0.010-0.003c0.022-0.017 0.046-0.017 0.080-0.017 0.001 0 0.002 0 0.003 0h0.058c0.001 0 0.001 0 0.002 0 0.008-0 0.016-0 0.023 0.003s0.013 0.008 0.021 0.015c0.001 0 0.001 0.001 0.002 0.001 0.006 0.005 0.012 0.008 0.018 0.012 0.002 0.001 0.004 0.002 0.007 0.004 0.004 0.002 0.009 0.005 0.013 0.010 0.003 0.003 0.005 0.007 0.006 0.012 0.009 0.009 0.014 0.018 0.017 0.028 0.002 0.008 0.003 0.016 0.003 0.023 0.011 0.013 0.009 0.031 0.004 0.044-0.006 0.015-0.017 0.029-0.028 0.039-0.006 0.005-0.009 0.010-0.013 0.015-0.001 0.002-0.003 0.004-0.004 0.006-0.003 0.004-0.006 0.008-0.012 0.011-0.004 0.002-0.008 0.004-0.013 0.005-0.007 0.006-0.013 0.011-0.019 0.014-0.007 0.003-0.015 0.003-0.023 0.003-0.001 0-0.001 0-0.002 0h-0.015c-0.001 0-0.002 0-0.003 0s-0.001 0-0.002 0h-0.116c-0.014 0-0.026-0.006-0.036-0.013l-0.063-0.134z"></path>
<path fill="#fff" style="fill: var(--color1, #fff)" opacity="0.05" d="M3.656 17.6v0l0 0c0.004 0.003 0.008 0.006 0.012 0.009 0.113 0.081 0.247 0.177 0.399 0.21 0.158 0.051 0.316 0.034 0.474-0.034 0.026-0.010 0.051-0.020 0.075-0.030 0.1-0.042 0.183-0.076 0.303-0.037v0l0.001 0c0.111 0.030 0.209 0.073 0.306 0.115 0.037 0.016 0.074 0.032 0.112 0.048 0.134 0.055 0.272 0.097 0.439 0.089 0.040-0 0.080-0.009 0.118-0.017l0.001-0c0.039-0.008 0.076-0.016 0.113-0.016 0.065 0 0.112 0.016 0.156 0.038 0.017 0.009 0.034 0.018 0.052 0.028 0.006 0.003 0.011 0.006 0.017 0.009 0.024 0.013 0.050 0.027 0.080 0.040l-0 0 0.001 0c0.138 0.051 0.275 0.068 0.413 0.051 0.065-0.008 0.131-0.023 0.196-0.037 0.004-0.001 0.007-0.002 0.011-0.002 0.069-0.015 0.136-0.030 0.2-0.036 0.128-0.012 0.244 0.008 0.337 0.12l0 0c0.057 0.068 0.103 0.137 0.15 0.207 0.016 0.024 0.032 0.048 0.048 0.072 0.063 0.092 0.132 0.181 0.231 0.258 0.237 0.187 0.571 0.204 0.846 0.102 0.164-0.047 0.31-0.138 0.439-0.217 0.010-0.006 0.020-0.012 0.029-0.018 0.015-0.009 0.031-0.019 0.046-0.028 0.119-0.071 0.236-0.142 0.289-0.279 0.022-0.056 0.005-0.107-0.032-0.144s-0.093-0.058-0.154-0.058c-0.185-0.017-0.331 0.090-0.476 0.195-0.004 0.003-0.008 0.006-0.012 0.008-0.151 0.109-0.302 0.214-0.5 0.198h-0c-0.13-0.008-0.219-0.080-0.29-0.172-0.036-0.046-0.067-0.097-0.097-0.148-0.005-0.008-0.009-0.016-0.014-0.024-0.024-0.042-0.048-0.083-0.073-0.118h0l-0-0c-0.137-0.186-0.314-0.339-0.591-0.373-0.069-0.009-0.143-0.004-0.216 0.004-0.037 0.004-0.073 0.009-0.109 0.015-0.003 0-0.007 0.001-0.010 0.001-0.032 0.005-0.064 0.009-0.095 0.013v0l-0.001 0c-0.021 0.004-0.041 0.007-0.060 0.011-0.069 0.012-0.124 0.023-0.178 0.023-0.068 0-0.133-0.016-0.218-0.065v0l-0-0c-0.078-0.042-0.147-0.072-0.221-0.089s-0.153-0.021-0.251-0.013h-0c-0.037 0.004-0.072 0.008-0.104 0.012-0.122 0.015-0.221 0.027-0.355-0.011-0.067-0.025-0.132-0.055-0.196-0.085-0.006-0.003-0.012-0.006-0.018-0.009-0.059-0.028-0.117-0.055-0.177-0.079-0.132-0.053-0.27-0.087-0.428-0.061-0.070 0.009-0.135 0.039-0.198 0.070-0.006 0.003-0.012 0.006-0.019 0.009-0.057 0.029-0.113 0.056-0.172 0.071-0.093 0.016-0.182-0.008-0.268-0.045-0.043-0.019-0.085-0.040-0.126-0.062l-0.004-0.002c-0.040-0.021-0.079-0.041-0.117-0.057-0.117-0.050-0.254-0.097-0.383-0.101s-0.251 0.035-0.331 0.157l-0 0-0 0c-0.012 0.021-0.012 0.047 0 0.068s0.037 0.036 0.070 0.036c0.21 0 0.382 0.066 0.534 0.181z"></path>
<path fill="#fff" style="fill: var(--color1, #fff)" opacity="0.05" d="M9.383 18.288l0.001-0 0.001-0c0.329-0.117 0.618-0.2 0.985-0.233h0c0.13-0.013 0.258-0.021 0.385-0.029 0.033-0.002 0.066-0.004 0.099-0.006 0.16-0.011 0.32-0.023 0.486-0.048 0.562-0.084 1.13-0.268 1.386-0.725v0l0-0.001c0.015-0.029 0.028-0.060 0.041-0.090l0-0c0.013-0.030 0.027-0.060 0.041-0.089 0.029-0.058 0.062-0.11 0.108-0.15l0-0 0-0c0.055-0.055 0.123-0.071 0.199-0.075 0.033-0.002 0.066-0.001 0.101-0.001 0.006 0 0.011 0 0.017 0 0.040 0.001 0.080 0.001 0.12-0.004 0.137-0 0.275-0.034 0.393-0.102v0l0-0c0.066-0.041 0.114-0.097 0.16-0.151 0.003-0.003 0.005-0.006 0.008-0.009 0.049-0.057 0.095-0.109 0.16-0.141s0.142-0.049 0.221-0.059c0.047-0.006 0.094-0.010 0.14-0.014 0.033-0.003 0.066-0.006 0.099-0.009 0.195-0.017 0.37-0.050 0.564-0.101 0.071-0.016 0.142-0.034 0.212-0.051 0.293-0.072 0.578-0.143 0.888-0.116l0 0c0.424 0.025 0.795 0.174 1.147 0.36 0.151 0.079 0.298 0.165 0.445 0.25 0.025 0.015 0.050 0.029 0.075 0.044 0.171 0.099 0.343 0.197 0.517 0.281v0l0 0c0.083 0.036 0.162 0.009 0.205-0.041 0.021-0.025 0.034-0.057 0.032-0.089s-0.017-0.065-0.048-0.092c-0.486-0.469-1.186-0.872-1.905-1.023-0.35-0.084-0.701-0.101-1.051-0.050h-0c-0.167 0.026-0.325 0.065-0.482 0.104-0.044 0.011-0.088 0.022-0.132 0.032-0.201 0.048-0.403 0.089-0.625 0.098h-0c-0.185 0.008-0.328 0.038-0.453 0.095s-0.233 0.142-0.35 0.26c-0.075 0.073-0.141 0.101-0.213 0.113-0.037 0.006-0.075 0.008-0.118 0.010-0.008 0-0.016 0.001-0.024 0.001-0.037 0.001-0.076 0.003-0.12 0.006-0.157 0-0.295 0.034-0.414 0.119-0.129 0.085-0.203 0.205-0.271 0.326-0.008 0.014-0.015 0.027-0.023 0.040-0.060 0.108-0.119 0.215-0.212 0.303v0l-0 0c-0.21 0.214-0.516 0.297-0.826 0.364-0.169 0.029-0.354 0.044-0.546 0.058-0.012 0.001-0.024 0.002-0.036 0.003-0.181 0.013-0.366 0.027-0.546 0.052-0.383 0.054-0.746 0.163-0.991 0.442-0.021 0.019-0.030 0.040-0.026 0.061s0.020 0.037 0.038 0.050c0.019 0.013 0.042 0.022 0.066 0.027s0.049 0.007 0.071 0.002z"></path>
<path fill="#fff" style="fill: var(--color1, #fff)" opacity="0.05" d="M36.173 2.901v-0.004l-0.002-0.003c-0.013-0.022-0.037-0.032-0.058-0.032-0.011 0-0.021 0.003-0.030 0.009s-0.015 0.017-0.015 0.029c-0.019 0.217-0.039 0.435-0.039 0.652 0 0.049-0.005 0.103-0.010 0.158l-0 0c-0.005 0.054-0.010 0.109-0.010 0.16v0.167c0 0.012-0.001 0.024-0.002 0.036l-0 0.001c-0.001 0.012-0.002 0.024-0.002 0.036 0 0.024 0.005 0.048 0.025 0.067 0.002 0.007 0.007 0.011 0.012 0.014 0.006 0.004 0.014 0.005 0.020 0.005s0.014-0.001 0.020-0.005c0.005-0.003 0.010-0.008 0.012-0.014 0.019-0.017 0.029-0.035 0.035-0.056s0.005-0.043 0.005-0.067v-0.168c0-0.049 0.005-0.103 0.010-0.158l0-0c0.005-0.054 0.010-0.108 0.010-0.159 0.019-0.218 0.019-0.435 0.019-0.669v-0z"></path>
<path fill="#9aa6b2" style="fill: var(--color2, #9aa6b2)" opacity="0.03" d="M22.653 22.218c-0.058-0.1-0.136-0.217-0.194-0.317-0.097-0.134-0.213-0.267-0.426-0.217-0.116 0.033-0.213 0.1-0.31 0.15-0.271 0.167-0.543 0.401-0.639 0.668-0.116 0.117-0.233 0.251-0.387 0.351-0.213 0.117-0.407 0.284-0.562 0.451s-0.252 0.351-0.349 0.535c-0.058 0.1-0.116 0.201-0.136 0.301-0.31 0.267-0.639 0.535-0.969 0.802 0.329-0.384 0.659-0.769 0.969-1.17 0.233-0.234 0.465-0.468 0.717-0.702 0.252-0.251 0.543-0.485 0.775-0.752s0.446-0.568 0.601-0.869c0.058-0.134 0.039-0.284-0.116-0.368-0.271-0.15-0.484-0.368-0.601-0.635-0.097-0.251-0.097-0.518-0.136-0.769s-0.155-0.485-0.368-0.652c-0.116-0.1-0.271-0.15-0.426-0.201-0.078-0.033-0.329-0.067-0.349-0.167-0.019-0.184-0.194-0.284-0.387-0.251-0.484 0.084-0.891 0.334-1.143 0.702-0.019 0.017-0.039 0.033-0.039 0.050-0.155-0.017-0.291 0.017-0.407 0.15-0.019 0.033-0.019 0.067 0 0.1 0.097 0.134 0.213 0.167 0.349 0.267 0.194 0.117 0.233 0.284 0.329 0.451s0.174 0.334 0.291 0.501c0.136 0.167 0.291 0.317 0.446 0.485 0.291 0.317 0.659 0.719 0.775 1.12 0.116 0.451-0.329 0.802-0.639 1.12-0.698 0.735-1.318 1.504-1.977 2.256-0.678 0.785-1.337 1.571-1.957 2.373-0.329 0.434-0.678 0.869-1.046 1.287-0.368 0.451-0.659 0.936-1.008 1.387-0.039 0.050 0.058 0.1 0.097 0.067 0.387-0.401 0.814-0.769 1.182-1.186s0.736-0.819 1.104-1.237c0.31-0.334 0.639-0.685 0.949-1.036 0 0.084-0.019 0.167-0.019 0.251-0.019 0.368 0 0.769 0.116 1.12 0.039 0.117 0.174 0.15 0.291 0.1 0.446-0.184 0.756-0.535 0.853-0.953 0.058-0.217 0.039-0.501 0.213-0.668 0.078-0.084 0.213-0.134 0.31-0.184 0.097-0.067 0.194-0.134 0.271-0.217 0.329-0.351 0.407-0.802 0.717-1.17 0.349-0.401 0.794-0.785 0.717-1.337 0-0.017 0-0.033-0.019-0.050 0.019-0.050 0.058-0.117 0.078-0.167 0.097-0.184 0.233-0.368 0.388-0.518 0.078-0.084 0.174-0.15 0.271-0.217 0.019-0.017 0.039-0.033 0.058-0.050 0.019 0.033 0.039 0.067 0.078 0.1 0.174 0.167 0.465 0.201 0.717 0.15 0.233-0.050 0.446-0.167 0.601-0.317s0.31-0.317 0.407-0.518c0.058-0.134 0.019-0.267-0.058-0.401zM21.762 22.369c0 0.017 0 0.017-0.019 0.033-0.019 0.033-0.058 0.084-0.078 0.117-0.039 0.033-0.058 0.084-0.116 0.117 0.039-0.1 0.097-0.167 0.213-0.267z"></path>
<path fill="#9aa6b2" style="fill: var(--color2, #9aa6b2)" opacity="0.03" d="M29.688 25.778c0-0.284-0.194-0.384-0.446-0.434-0.136-0.084-0.271-0.134-0.426-0.217-0.058-0.033-0.097-0.033-0.155-0.033 0-0.084 0.019-0.184 0.019-0.267 0-0.033 0-0.050 0-0.067 0-0.184-0.039-0.368-0.078-0.551-0.039-0.134-0.194-0.167-0.329-0.15-0.678 0.084-1.356 0.167-2.035 0.251-0.155 0.017-0.213 0.167-0.194 0.284 0.116 0.585 0.252 1.32-0.291 1.771-0.116 0.1-0.233 0.134-0.388 0.167-0.136 0.033-0.271 0.084-0.349 0.184-0.078 0.134-0.058 0.301-0.078 0.451-0.019 0.184-0.019 0.384-0.039 0.568 0 0.050 0.019 0.1 0.078 0.134-0.019 0.017-0.039 0.033-0.058 0.050-0.078 0.067 0 0.217 0.116 0.184 0.446-0.134 0.93 0 1.356-0.201 0.446-0.201 0.523-0.618 0.659-0.986 0.039-0.084 0.039-0.084 0.136-0.117 0.136-0.033 0.271-0.017 0.407-0.033 0.31-0.017 0.601-0.067 0.911-0.067 0.116 0 0.271-0.017 0.368 0.050 0.058 0.050 0.097 0.117 0.136 0.184 0.097 0.134 0.194 0.251 0.387 0.301 0.116 0.033 0.252-0.050 0.252-0.167 0-0.217-0.019-0.434-0.019-0.652 0-0.201 0.039-0.418 0.058-0.635z"></path>
<path fill="#9aa6b2" style="fill: var(--color2, #9aa6b2)" opacity="0.03" d="M41.546 30.891c-0.097-0.084-0.213-0.184-0.31-0.267-0.194-0.184-0.388-0.368-0.581-0.551-0.078-0.084-0.174-0.167-0.252-0.251s-0.174-0.201-0.271-0.251c-0.291-0.15-0.543 0.117-0.756 0.267-0.194 0.15-0.543 0.317-0.446 0.568 0.039 0.117 0.155 0.201 0.252 0.284 0.078 0.067 0.155 0.15 0.233 0.234 0.078 0.1 0.155 0.201 0.213 0.301s0.116 0.201 0.174 0.301c0.058 0.134 0.233 0.184 0.349 0.117 0 0.15 0.058 0.317 0.252 0.351 0.078 0.017 0.136-0.033 0.155-0.084 0-0.050 0.019-0.084 0.019-0.117s0-0.050 0-0.084c0.019-0.067 0.058-0.134 0.116-0.184 0.155-0.117 0.368-0.1 0.543-0.117 0.194-0.017 0.426-0.084 0.446-0.267 0-0.117-0.058-0.184-0.136-0.251z"></path>
<path fill="#9aa6b2" style="fill: var(--color2, #9aa6b2)" opacity="0.03" d="M41.837 25.209c-0.078-0.217-0.174-0.418-0.329-0.602-0.136-0.167-0.291-0.368-0.504-0.468-0.252-0.117-0.484-0.017-0.717 0.117-0.252 0.134-0.504 0.284-0.756 0.418-0.252 0.15-0.504 0.284-0.756 0.434-0.213 0.117-0.523 0.234-0.659 0.434s-0.078 0.468-0.039 0.685c0.058 0.234 0.155 0.451 0.291 0.652 0.058 0.084 0.194 0.134 0.31 0.1 0.058 0.184 0.31 0.368 0.465 0.468 0.039 0.017 0.078-0.017 0.039-0.050-0.116-0.1-0.31-0.251-0.252-0.401 0.039-0.1 0.155-0.15 0.252-0.201 0.291-0.15 0.562-0.301 0.833-0.451 0.562-0.317 1.143-0.568 1.705-0.886 0.097-0.050 0.155-0.15 0.116-0.251z"></path>
</symbol>
</defs>
</svg>
