<svg width="24" height="24" viewBox="0 0 24 24" fill="none" xmlns="http://www.w3.org/2000/svg">
<mask id="mask0_268_5687" style="mask-type:alpha" maskUnits="userSpaceOnUse" x="0" y="0" width="24" height="24">
<rect width="24" height="24" fill="#D9D9D9"/>
</mask>
<g mask="url(#mask0_268_5687)">
<path d="M9.00022 16.25C8.65022 16.25 8.35439 16.1292 8.11272 15.8875C7.87106 15.6458 7.75022 15.35 7.75022 15C7.75022 14.65 7.87106 14.3542 8.11272 14.1125C8.35439 13.8708 8.65022 13.75 9.00022 13.75C9.35022 13.75 9.64606 13.8708 9.88772 14.1125C10.1294 14.3542 10.2502 14.65 10.2502 15C10.2502 15.35 10.1294 15.6458 9.88772 15.8875C9.64606 16.1292 9.35022 16.25 9.00022 16.25ZM15.0002 16.25C14.6502 16.25 14.3544 16.1292 14.1127 15.8875C13.8711 15.6458 13.7502 15.35 13.7502 15C13.7502 14.65 13.8711 14.3542 14.1127 14.1125C14.3544 13.8708 14.6502 13.75 15.0002 13.75C15.3502 13.75 15.6461 13.8708 15.8877 14.1125C16.1294 14.3542 16.2502 14.65 16.2502 15C16.2502 15.35 16.1294 15.6458 15.8877 15.8875C15.6461 16.1292 15.3502 16.25 15.0002 16.25ZM12.0002 22C14.2336 22 16.1252 21.225 17.6752 19.675C19.2252 18.125 20.0002 16.2333 20.0002 14C20.0002 13.6 19.9752 13.2125 19.9252 12.8375C19.8752 12.4625 19.7836 12.1 19.6502 11.75C19.3002 11.8333 18.9502 11.8958 18.6002 11.9375C18.2502 11.9792 17.8836 12 17.5002 12C15.9836 12 14.5502 11.675 13.2002 11.025C11.8502 10.375 10.7002 9.46666 9.75022 8.29999C9.21689 9.59999 8.45439 10.7292 7.46272 11.6875C6.47106 12.6458 5.31689 13.3667 4.00022 13.85V14C4.00022 16.2333 4.77522 18.125 6.32522 19.675C7.87522 21.225 9.76689 22 12.0002 22ZM9.70792 6.31729C10.5233 7.94549 11.6752 9.13299 13.1637 9.87979C14.6521 10.6266 16.0977 11 17.5002 11C17.8105 11 18.1156 10.9843 18.4156 10.9529C18.7156 10.9215 19.0143 10.8699 19.3117 10.7981C18.6759 9.31088 17.6906 8.13941 16.356 7.28364C15.0214 6.42787 13.5695 5.99999 12.0002 5.99999C11.5618 5.99999 11.1605 6.02531 10.7964 6.07594C10.4323 6.12659 10.0695 6.20704 9.70792 6.31729ZM4.13677 12.7057C5.16626 12.2481 6.2092 11.4981 7.2656 10.4558C8.32201 9.41345 8.93804 8.10319 9.11367 6.52499C7.77651 7.03397 6.66946 7.83526 5.79252 8.92884C4.91561 10.0224 4.36369 11.2814 4.13677 12.7057ZM3.42522 11.4596C3.78932 10.1275 4.42811 8.95351 5.34157 7.93749C6.25502 6.92146 7.35855 6.16729 8.65215 5.67499C8.29188 5.22242 7.84512 4.85576 7.31187 4.57499C6.77862 4.29422 6.18982 4.15384 5.54547 4.15384C4.43454 4.15384 3.49542 4.53797 2.7281 5.30624C1.9608 6.07452 1.57715 7.01539 1.57715 8.12884C1.57715 8.82944 1.74638 9.46966 2.08485 10.0495C2.4233 10.6293 2.87009 11.0993 3.42522 11.4596ZM12.0036 23C10.759 23 9.58894 22.7637 8.49332 22.2912C7.39771 21.8187 6.44467 21.1775 5.6342 20.3675C4.82375 19.5575 4.18214 18.605 3.70937 17.51C3.23661 16.415 3.00022 15.245 3.00022 14C3.00022 13.7371 3.01112 13.4766 3.0329 13.2182C3.0547 12.9599 3.09381 12.7102 3.15022 12.4692C2.36946 12.0487 1.74542 11.4536 1.2781 10.6841C0.810799 9.91446 0.577148 9.06272 0.577148 8.12884C0.577148 6.74551 1.06048 5.57051 2.02715 4.60384C2.99382 3.63717 4.16882 3.15384 5.55215 3.15384C6.3972 3.15384 7.17448 3.35031 7.884 3.74324C8.59353 4.13619 9.1733 4.6628 9.6233 5.32306C10.0053 5.21536 10.3956 5.1346 10.7942 5.08076C11.1927 5.02691 11.5947 4.99999 12.0002 4.99999C13.2452 4.99999 14.4152 5.23615 15.5102 5.70846C16.6052 6.1808 17.5577 6.82181 18.3677 7.63151C19.1777 8.44121 19.819 9.39336 20.2915 10.4879C20.764 11.5825 21.0002 12.7521 21.0002 13.9966C21.0002 15.2412 20.7641 16.4113 20.2917 17.5069C19.8194 18.6025 19.1784 19.5555 18.3687 20.366C17.559 21.1765 16.6069 21.8181 15.5123 22.2908C14.4177 22.7636 13.2481 23 12.0036 23Z" fill="white"/>
</g>
</svg>
