<svg width="994" height="592" viewBox="0 0 994 592" fill="none" xmlns="http://www.w3.org/2000/svg">
<g opacity="0.05">
<path d="M359.582 466.37C361.139 464.836 362.973 463.658 364.825 462.468C365.958 461.741 367.097 461.009 368.185 460.188C371.118 457.888 370.482 455.076 369.815 452.132C369.586 451.118 369.353 450.088 369.261 449.058M359.582 466.37L395.788 432.674C392.92 432.365 391.486 430.201 391.845 427.727C392.203 424.945 388.26 424.018 386.109 424.945M359.582 466.37C356.714 469.462 355.28 472.862 353.846 476.572L359.582 466.37ZM369.261 449.058C368.902 445.658 369.261 442.257 370.695 439.166M369.261 449.058L369.012 449.085C369.012 449.084 369.012 449.083 369.012 449.083M369.261 449.058L369.012 449.081C369.012 449.081 369.012 449.082 369.012 449.083M370.695 439.166C373.204 432.674 378.94 427.727 386.109 424.945M370.695 439.166L370.468 439.061C370.467 439.063 370.466 439.066 370.465 439.068M370.695 439.166L370.462 439.076C370.463 439.073 370.464 439.071 370.465 439.068M386.109 424.945L386.019 424.712C386.017 424.713 386.016 424.713 386.015 424.714M386.109 424.945L386.01 424.715C386.012 424.715 386.013 424.714 386.015 424.714M386.015 424.714C387.156 424.223 388.745 424.228 390.008 424.712C390.643 424.955 391.213 425.327 391.601 425.837C391.994 426.353 392.191 426.998 392.093 427.759L392.092 427.763C391.921 428.942 392.179 430.032 392.806 430.861C393.432 431.688 394.441 432.277 395.815 432.425L395.824 432.426L395.824 432.426C396.824 432.57 397.931 432.212 399.095 431.71C399.433 431.564 399.776 431.406 400.122 431.246C400.935 430.871 401.756 430.493 402.524 430.271M386.015 424.714C378.802 427.514 373.006 432.499 370.465 439.068M402.524 430.271L368.033 459.99C368.985 459.243 369.536 458.45 369.832 457.625C370.129 456.797 370.175 455.919 370.087 454.994C370.002 454.087 369.79 453.151 369.57 452.18L369.555 452.113C369.331 451.126 369.104 450.106 369.012 449.083M402.524 430.271C404.365 429.638 406.582 429.634 408.442 430.593C409.002 430.835 409.444 431.137 409.826 431.432C409.981 431.552 410.12 431.665 410.253 431.773C410.46 431.942 410.649 432.096 410.852 432.236C411.169 432.455 411.479 432.607 411.847 432.658C412.215 432.709 412.664 432.661 413.261 432.441C413.787 432.214 414.272 431.967 414.745 431.722C414.793 431.697 414.841 431.673 414.889 431.648C415.313 431.428 415.734 431.21 416.163 431.016C417.126 430.581 418.147 430.26 419.448 430.26C422.358 430.26 424.541 430.889 427.062 431.821L427.075 431.825L427.075 431.826C427.197 431.878 427.331 431.937 427.475 432.001C428.188 432.314 429.15 432.736 430.144 433.054C430.74 433.244 431.339 433.394 431.895 433.459C432.452 433.524 432.948 433.502 433.347 433.365C433.757 433.223 433.933 433.047 434.007 432.881C434.083 432.709 434.078 432.488 433.995 432.202C433.912 431.917 433.765 431.608 433.606 431.274L433.601 431.263C433.449 430.946 433.287 430.606 433.191 430.281L432.657 428.899L432.12 427.508L432.117 427.5L432.117 427.5C431.311 425.183 430.55 422.794 429.781 420.375C427.459 413.078 425.051 405.507 421.026 398.796L421.024 398.793C419.786 396.658 418.191 394.899 416.45 393.205C415.777 392.55 415.077 391.9 414.368 391.242C413.254 390.209 412.118 389.154 411.023 388.021L411.021 388.02C408.225 385.072 407.542 382.335 406.74 379.119C406.601 378.562 406.459 377.991 406.301 377.401L406.299 377.393L406.299 377.393C405.614 374.44 402.87 372.856 399.55 371.541C398.725 371.214 397.872 370.906 397.013 370.598L396.854 370.541C396.049 370.252 395.241 369.963 394.454 369.658C392.781 369.009 391.189 368.285 389.907 367.338C386.253 364.816 384.786 361.339 384.784 357.561C384.64 355.572 384.612 353.583 384.583 351.582C384.576 351.088 384.569 350.593 384.56 350.098C384.515 347.588 384.426 345.05 384.069 342.437L384.069 342.435C383.769 340.104 383.215 337.992 382.617 335.712C382.507 335.292 382.395 334.866 382.283 334.432C382.229 334.243 382.181 334.062 382.137 333.898C382.11 333.795 382.084 333.699 382.06 333.611C381.993 333.373 381.93 333.177 381.85 333.002C381.696 332.672 381.47 332.401 380.979 332.117C380.841 332.06 380.635 332.025 380.372 332.012C380.106 331.998 379.803 332.007 379.493 332.026C379.234 332.042 378.976 332.065 378.733 332.086C378.685 332.09 378.638 332.094 378.592 332.098C378.314 332.122 378.056 332.142 377.864 332.142H377.855L377.846 332.142C373.482 331.828 369.834 329.945 367.28 326.801C366.684 326.158 366.148 325.41 365.61 324.658C365.49 324.49 365.37 324.323 365.25 324.156C364.579 323.231 363.876 322.324 363.004 321.571L362.995 321.563L362.987 321.555C362.083 320.62 361.504 320.138 360.915 320.002C360.344 319.871 359.702 320.055 358.633 320.67C355.008 322.857 350.974 323.82 346.929 321.917C344.923 320.973 343.287 319.639 341.801 318.24C341.201 317.677 340.632 317.108 340.072 316.55C339.231 315.71 338.412 314.894 337.552 314.151C335 311.951 332.452 310.741 329.611 309.392C329.295 309.242 328.974 309.09 328.649 308.934C325.778 307.696 322.795 306.217 320.438 304.262C318.083 302.309 316.337 299.869 315.961 296.708C315.912 296.568 315.896 296.425 315.923 296.286C315.952 296.135 316.028 296.007 316.134 295.905C316.34 295.706 316.655 295.61 316.998 295.589C317.692 295.546 318.643 295.801 319.575 296.444L319.615 296.472L319.642 296.514C322.105 300.306 326.16 302.369 330.673 303.949C332.389 304.55 334.162 305.078 335.933 305.606C336.491 305.771 337.048 305.937 337.603 306.105C339.917 306.806 342.192 307.544 344.268 308.478L402.524 430.271ZM370.465 439.068C369.011 442.207 368.651 445.651 369.012 449.083M408.335 430.819C406.543 429.891 404.392 429.891 402.599 430.51L426.976 432.055C424.466 431.128 422.315 430.51 419.448 430.51C417.629 430.51 416.375 431.159 415.003 431.87C414.483 432.14 413.945 432.419 413.354 432.674C411.71 433.281 410.989 432.695 410.082 431.957C409.605 431.569 409.077 431.139 408.335 430.819Z" fill="white" stroke="white" stroke-width="0.5"/>
<path d="M418.62 513.362C418.62 505.44 418.257 497.519 417.532 489.598C418.471 490.452 419.41 491.321 420.349 492.212L420.349 492.212L420.358 492.22C421.138 492.892 422.374 493.211 423.541 493.13C424.708 493.05 425.879 492.563 426.473 491.538L426.476 491.533C429.185 486.861 431.897 482.183 434.301 477.502C435.666 478.059 437.175 478.369 438.804 478.369C441.193 478.369 443.117 477.575 444.923 476.641C445.382 476.403 445.831 476.158 446.278 475.915C447.599 475.194 448.895 474.486 450.348 474.03C454.084 472.91 457.97 472.814 461.909 472.717C462.275 472.708 462.641 472.699 463.007 472.689C467.309 472.573 471.652 472.341 475.822 470.622L475.822 470.622L475.83 470.618C482.728 467.487 486.749 460.585 485.652 453.965L485.652 453.965L485.651 453.957C484.394 447.727 478.841 443.395 472.265 441.897C472.243 440.837 472.541 439.826 473.082 438.865C473.98 437.27 475.547 435.808 477.437 434.504C481.215 431.897 486.204 429.975 489.426 428.894C498.36 426.121 507.649 424.889 516.935 425.505C518.157 425.586 519.102 425.242 519.743 424.647C520.382 424.053 520.697 423.231 520.697 422.396C520.697 420.717 519.428 418.987 516.969 418.823C504.382 417.893 492.155 420.064 481.008 424.715C476.512 426.577 471.546 429.376 468.196 432.929C464.84 436.488 463.078 440.84 465.1 445.754L465.099 445.754L465.104 445.764C465.478 446.571 465.954 447.151 466.582 447.568C467.205 447.981 467.96 448.221 468.873 448.379L468.888 448.381L468.902 448.382C474.55 448.686 479.035 452.932 478.347 457.68L478.347 457.684C478 460.373 476.445 462.245 474.299 463.53C472.146 464.818 469.407 465.507 466.736 465.814L466.734 465.814C464.589 466.079 462.378 466.173 460.146 466.268C459.78 466.283 459.413 466.299 459.046 466.315C456.449 466.431 453.836 466.586 451.31 467.052C449.137 467.365 446.967 467.99 444.799 468.924L444.798 468.924L444.787 468.93C444.324 469.158 443.823 469.449 443.308 469.749C443.115 469.861 442.919 469.975 442.724 470.087C441.998 470.501 441.252 470.897 440.512 471.16C439.772 471.422 439.057 471.545 438.387 471.429C437.724 471.315 437.081 470.964 436.488 470.233L436.487 470.231C434.581 467.931 430.786 468.263 429.267 470.884L429.259 470.897L429.253 470.911C427.347 475.373 425.025 479.836 422.446 484.165C421.86 483.632 421.275 483.102 420.69 482.572L420.689 482.571C418.896 480.948 417.106 479.327 415.316 477.629L415.316 477.629L415.307 477.621C414.148 476.621 412.346 476.471 410.898 476.955C409.445 477.439 408.246 478.603 408.443 480.309C409.52 491.761 411.673 502.9 414.182 514.031C414.29 514.58 414.638 514.966 415.08 515.193C415.519 515.418 416.053 515.489 416.564 515.426C417.574 515.302 418.62 514.619 418.62 513.362Z" fill="white" stroke="white" stroke-width="0.5"/>
<path d="M532.206 439.039C532.203 439.042 532.2 439.044 532.197 439.047C531.788 438.998 531.375 438.955 530.96 438.918L530.639 438.89L530.691 439.208L530.753 439.58C529.693 439.907 528.938 440.463 528.48 441.137C528.004 441.837 527.858 442.648 528.004 443.425C528.296 444.982 529.746 446.364 531.992 446.527C538.043 447.141 543.568 449.291 549.029 451.723C550.174 452.233 551.317 452.755 552.462 453.279C556.766 455.247 561.092 457.226 565.639 458.574L565.641 458.574C572.672 460.595 579.787 460.593 586.911 460.439C587.5 460.426 588.089 460.412 588.678 460.398C595.224 460.245 601.773 460.091 608.321 461.362L608.322 461.362C611.54 461.979 615.105 462.902 617.949 464.128L617.957 464.132L617.966 464.135C618.858 464.443 619.661 464.75 620.468 465.06L620.469 465.06C621.262 465.364 622.058 465.669 622.941 465.975C623.039 466.055 623.17 466.147 623.321 466.241C623.141 466.321 622.958 466.407 622.778 466.495C622.618 466.573 622.46 466.651 622.305 466.728C621.751 467.003 621.246 467.253 620.847 467.368L620.831 467.373L620.817 467.379C620.479 467.524 620.117 467.672 619.741 467.824C618.558 468.305 617.242 468.84 616.137 469.551C614.104 470.429 612.068 471.462 610.167 472.427C609.385 472.824 608.626 473.209 607.9 473.567L607.9 473.567L607.891 473.572C597.123 479.453 586.711 486.574 577.733 494.625C577.273 495.022 576.788 495.43 576.288 495.851C574.852 497.059 573.298 498.366 571.896 499.776C570.003 501.68 568.357 503.802 567.622 506.178L567.621 506.182C567.066 508.095 567.249 510.174 568.18 511.86C569.114 513.552 570.797 514.836 573.205 515.155L573.208 515.156C575.773 515.472 578.416 514.839 581.06 514.066C581.557 513.92 582.053 513.771 582.549 513.621C584.713 512.967 586.875 512.313 589.04 512.065L589.042 512.064C591.527 511.758 594.305 512.075 596.017 513.551C596.891 514.305 597.594 515.212 598.313 516.142L598.32 516.152C599.032 517.073 599.762 518.017 600.678 518.807L600.688 518.815L600.699 518.823C602.504 520.069 604.349 521.031 606.577 521.031C607.493 521.031 608.382 520.913 609.217 520.792C609.298 520.78 609.378 520.769 609.458 520.757C610.207 520.648 610.905 520.546 611.557 520.529C612.275 520.51 612.912 520.596 613.472 520.875C614.028 521.152 614.531 521.631 614.959 522.444L614.964 522.454L614.971 522.464C616.555 524.892 617.354 527.864 617.71 530.935C618.066 534.004 617.977 537.155 617.798 539.932C617.65 542.038 617.318 544.21 616.981 546.411C616.912 546.861 616.843 547.313 616.776 547.765C616.378 550.423 616.028 553.106 616.05 555.717C616.073 558.329 616.469 560.879 617.569 563.268C618.67 565.659 620.47 567.876 623.282 569.831C633.069 576.708 646.802 574.817 656.528 569.225C661.429 566.49 665.411 562.956 669.37 559.443C670.357 558.567 671.343 557.692 672.341 556.831L672.341 556.832L672.348 556.826C675.367 554.035 678.506 551.479 681.625 548.937C683.688 547.257 685.742 545.584 687.747 543.854C688.335 543.429 688.64 542.866 688.704 542.274C688.767 541.685 688.589 541.086 688.248 540.581C687.564 539.571 686.199 538.901 684.652 539.4C678.687 541.115 673.995 544.465 669.683 548.262C667.958 549.781 666.29 551.374 664.626 552.963C664.211 553.36 663.796 553.757 663.38 554.152C661.297 556.131 659.198 558.076 656.967 559.846C653.227 562.765 647.705 565.758 642.105 566.908C636.507 568.058 630.876 567.359 626.835 562.965L626.835 562.964C624.743 560.709 624.123 557.922 624.123 554.98C624.123 552.82 624.456 550.606 624.776 548.474C624.893 547.693 625.009 546.923 625.106 546.171C626.184 540.591 626.546 535.305 625.464 529.704C624.748 525.075 623.665 519.428 619.653 515.653L619.653 515.653L619.645 515.646C618.17 514.374 615.973 513.429 613.782 513.114L613.782 513.114L613.77 513.113C612.937 513.033 612.11 513.094 611.307 513.191C610.957 513.233 610.62 513.282 610.288 513.329C609.843 513.393 609.409 513.455 608.971 513.5C607.473 513.652 606.131 513.568 604.958 512.563C604.251 511.801 603.632 511.038 603.007 510.267L603.005 510.265C602.379 509.494 601.747 508.715 601.024 507.936L601.015 507.926L601.004 507.917C599.167 506.332 596.611 505.393 594.09 504.772L594.083 504.77L594.075 504.769C589.002 503.832 583.939 504.771 578.918 506.008C578.916 506.008 578.915 506.008 578.914 506.009L578.911 506.009C577.988 506.208 577.054 506.41 576.115 506.697C576.339 506.347 576.53 506.018 576.669 505.779C577.725 504.567 578.784 503.654 580.213 502.422L580.213 502.422L580.22 502.415C584.516 498.402 589.169 494.389 593.823 490.684C603.483 483.588 614.22 477.723 625.68 472.473L625.682 472.472C627.66 471.542 629.944 470.208 631.281 468.578C631.952 467.76 632.399 466.849 632.43 465.863C632.46 464.872 632.068 463.846 631.14 462.806C629.485 460.903 626.658 459.417 623.604 458.255C620.541 457.09 617.214 456.237 614.522 455.618C607.333 453.758 599.785 452.829 592.237 452.829C590.26 452.829 588.284 452.906 586.312 452.988C586.181 452.994 586.05 452.999 585.919 453.005C584.078 453.082 582.241 453.158 580.405 453.176C576.473 453.215 572.555 452.983 568.644 451.91L568.644 451.91L568.64 451.909C563.133 450.497 558.125 448.23 553.125 445.967C552.127 445.515 551.129 445.064 550.128 444.619C546.48 442.999 542.79 441.474 538.879 440.387C539.895 438.14 539.872 435.541 538.317 433.157L538.316 433.155C538.229 433.024 538.138 432.895 538.043 432.77C543.225 433.412 548.406 434.015 553.5 434.47L553.5 434.47C557.113 434.781 560.851 434.241 563.335 432.654C564.583 431.857 565.523 430.79 565.959 429.428C566.395 428.066 566.317 426.441 565.585 424.547C564.3 421.222 561.551 418.863 558.196 417.338C554.841 415.813 550.861 415.113 547.069 415.113C538.986 415.113 530.898 416.159 522.828 417.203C520.142 417.551 517.459 417.898 514.778 418.206L514.735 418.211L514.696 418.23C513.324 418.906 512.668 420.568 512.81 421.996C512.882 422.717 513.158 423.406 513.677 423.896C514.2 424.391 514.946 424.66 515.903 424.577C516.499 424.526 517.097 424.474 517.698 424.423C524.32 423.854 531.199 423.263 537.778 422.413C537.936 422.396 538.096 422.38 538.256 422.364C541.19 422.065 544.475 421.73 547.638 421.911C550.974 422.103 554.14 422.869 556.592 424.832L556.592 424.833L556.602 424.84C557.126 425.217 557.603 425.648 557.963 426.074C558.328 426.506 558.552 426.909 558.608 427.231C558.635 427.387 558.621 427.513 558.575 427.614C558.53 427.714 558.445 427.811 558.291 427.896C557.971 428.072 557.383 428.174 556.411 428.098C554.806 427.944 553.199 427.713 551.586 427.481L551.583 427.481C549.973 427.249 548.356 427.017 546.738 426.862C542.975 426.398 539.123 425.935 535.271 425.471L535.27 425.471L535.269 425.471C531.416 425.007 527.563 424.544 523.799 424.08C522.499 423.92 521.098 424.158 520.057 424.77C519.008 425.386 518.307 426.401 518.502 427.76C518.875 431.28 521.114 433.503 524.745 435.069L524.759 435.075L524.775 435.079C525.308 435.233 528.248 436.155 530.334 437.188C530.855 437.446 531.314 437.708 531.668 437.961C532.03 438.221 532.247 438.451 532.328 438.635C532.365 438.72 532.368 438.783 532.355 438.835C532.342 438.888 532.304 438.957 532.206 439.039Z" fill="white" stroke="white" stroke-width="0.5"/>
<path d="M687.367 545.109L687.347 545.12C686.361 545.63 685.171 545.464 684.419 544.772C683.647 544.062 683.385 542.851 684.142 541.382L684.153 541.362L684.167 541.344C687.098 537.552 691.038 536.536 695.23 536.147C696.478 536.031 697.765 535.97 699.055 535.909C699.918 535.868 700.783 535.827 701.639 535.77C703.788 535.625 705.916 535.376 707.949 534.766C712.185 533.396 715.282 530.426 718.376 527.294C718.567 527.101 718.758 526.907 718.949 526.712C721.844 523.772 724.798 520.772 728.713 519.01L728.723 519.006L728.723 519.006C733.421 517.136 738.485 516.511 743.551 517.446C746.094 517.76 748.627 518.698 750.782 519.627L750.795 519.633L750.807 519.64C751.898 520.267 752.896 521.049 753.877 521.819L753.884 521.824C754.871 522.598 755.841 523.358 756.897 523.965C757.739 524.4 758.877 524.572 760.19 524.553C761.501 524.534 762.963 524.325 764.433 524.017C767.373 523.403 770.317 522.403 772.11 521.784L772.118 521.782L772.118 521.782C774.605 521.016 776.441 520.028 777.699 518.681C778.953 517.34 779.653 515.62 779.828 513.345L779.829 513.341C780.173 509.776 781.508 505.581 784.83 503.27C783.983 503.106 783.128 503.104 782.246 503.104C780.102 503.412 777.977 503.719 775.854 504.328C773.376 505.245 771.253 506.466 769.128 508.299L769.115 508.31L769.101 508.319C768.747 508.548 768.392 508.797 768.028 509.053L767.975 509.09C767.628 509.334 767.273 509.584 766.907 509.825C766.137 510.332 765.311 510.809 764.386 511.128C760.664 512.412 757.333 510.477 755.499 507.947L755.496 507.943C755.217 507.542 754.986 507.103 754.769 506.69L754.768 506.689C754.548 506.27 754.343 505.88 754.108 505.549C753.875 505.219 753.622 504.963 753.317 504.805C753.017 504.649 752.645 504.576 752.152 504.647C751.155 504.79 750.217 505.441 749.376 506.242C748.754 506.836 748.209 507.487 747.744 508.042C747.582 508.236 747.429 508.418 747.286 508.582L747.28 508.59L747.272 508.598C744.375 511.408 740.737 513.609 736.002 513.923L736.001 513.923C726.195 514.55 718.595 507.66 713.218 501.788C706.743 494.962 702.069 487.209 698.476 479.153C696.317 474.498 694.876 469.839 694.155 464.869C694.079 464.443 693.999 464.01 693.917 463.57C693.617 461.943 693.3 460.229 693.122 458.517C692.897 456.34 692.894 454.143 693.442 452.093C693.996 449.71 695.289 448.044 696.977 446.666C698.368 445.532 700.039 444.585 701.786 443.595C702.149 443.39 702.514 443.183 702.881 442.972L702.888 442.968L702.888 442.968C705.215 441.733 707.542 440.421 709.873 439.107L709.873 439.106C712.202 437.794 714.533 436.479 716.865 435.241C721.704 432.459 726.543 429.754 731.381 427.051L731.382 427.05C736.221 424.345 741.059 421.641 745.896 418.86C746.79 418.326 747.674 417.779 748.556 417.233C752.248 414.947 755.92 412.673 760.292 411.416L760.302 411.413L760.302 411.413L760.325 411.408C762.813 410.795 765.355 410.168 767.905 410.479C769.358 410.48 770.717 410.715 772.011 410.946L772.132 410.968C773.393 411.193 774.586 411.406 775.776 411.406C778.054 411.406 780.255 410.65 782.491 409.725C783.011 409.51 783.534 409.285 784.059 409.059C785.78 408.319 787.533 407.564 789.334 407.086L789.343 407.084L789.353 407.082C793.832 406.254 796.912 406.891 800.767 407.687C801.278 407.793 801.802 407.901 802.345 408.009C804.411 408.304 806.047 407.64 807.488 406.585C808.545 405.812 809.479 404.844 810.398 403.892C810.748 403.529 811.096 403.169 811.448 402.822L811.454 402.816L811.46 402.811L811.475 402.798C813.975 400.642 816.512 398.454 819.779 397.202L819.787 397.199L819.795 397.197C822.02 396.511 824.314 396.247 826.59 395.985C826.909 395.948 827.228 395.911 827.546 395.873C830.142 395.565 832.708 395.181 835.18 394.116C837.14 393.194 839.012 392.118 840.894 391.036L840.899 391.033C842.778 389.953 844.667 388.867 846.648 387.935L846.649 387.934C851.345 385.754 856.047 384.817 861.109 385.129L861.113 385.13C861.805 385.184 862.587 385.276 863.419 385.374C863.778 385.417 864.147 385.46 864.521 385.502C865.768 385.642 867.092 385.767 868.401 385.786C871.031 385.824 873.55 385.436 875.269 383.953C876.282 383.08 876.714 381.909 876.934 380.622C877.044 379.978 877.099 379.313 877.149 378.646C877.154 378.584 877.159 378.522 877.163 378.46C877.208 377.858 877.253 377.257 877.336 376.687L877.337 376.682L877.875 373.436L878.412 370.19L878.414 370.182L878.415 370.174C879.493 365.526 880.932 360.869 883.095 356.518M687.367 545.109L883.319 356.628M687.367 545.109L687.385 545.095C689.117 543.751 691.115 543.37 693.237 543.37C694.298 543.37 695.385 543.465 696.482 543.581C696.762 543.611 697.044 543.642 697.326 543.673C698.141 543.763 698.958 543.853 699.761 543.91C704.068 544.22 708.417 544.224 712.415 542.658M687.367 545.109L712.415 542.658M883.095 356.518C883.095 356.518 883.095 356.517 883.095 356.517L883.319 356.628M883.095 356.518C883.094 356.519 883.094 356.519 883.094 356.52L883.319 356.628M883.095 356.518C884.9 352.781 887.445 349.321 891.824 347.434L891.834 347.429L891.844 347.426C893.017 347.037 894.166 346.726 895.281 346.431C895.404 346.399 895.528 346.366 895.65 346.334C896.637 346.074 897.594 345.821 898.525 345.531C900.614 344.879 902.55 344.042 904.306 342.527L904.316 342.519L904.317 342.519C905.268 341.785 906.216 341.004 907.182 340.21C907.95 339.578 908.729 338.937 909.529 338.304C911.32 336.885 913.182 335.531 915.152 334.496C919.104 332.42 923.491 331.629 928.598 334.146L928.606 334.15L928.606 334.15C929.369 334.561 929.825 335.112 930.004 335.719C930.183 336.324 930.077 336.952 929.783 337.502C929.198 338.595 927.847 339.421 926.31 339.256L926.301 339.255L926.301 339.255C923.161 338.803 920.446 339.927 918.009 341.609C916.327 342.769 914.803 344.175 913.366 345.499C912.709 346.105 912.07 346.694 911.444 347.234L911.435 347.241L911.435 347.241C907.097 350.67 903.119 352.227 897.727 353.777C894.578 354.682 892.654 356.64 891.334 358.992C890.149 361.104 889.457 363.522 888.809 365.786C888.732 366.057 888.655 366.325 888.578 366.591L888.576 366.598C887.158 371 886.643 375.203 886.129 379.392C885.997 380.471 885.865 381.55 885.718 382.63L885.716 382.64L885.716 382.64C884.802 387.845 881.59 390.768 877.355 392.299C873.138 393.824 867.899 393.976 862.872 393.666M883.319 356.628C885.111 352.919 887.621 349.518 891.923 347.663C893.216 347.234 894.483 346.9 895.714 346.576C898.916 345.731 901.88 344.95 904.469 342.717C905.419 341.984 906.377 341.196 907.348 340.398C913.337 335.471 919.85 330.114 928.487 334.37C931.355 335.916 929.204 339.316 926.336 339.007C920.889 338.224 916.719 342.068 913.18 345.33C912.527 345.933 911.895 346.515 911.28 347.045C906.979 350.445 903.035 351.991 897.658 353.537C891.551 355.292 889.94 360.925 888.569 365.717C888.491 365.988 888.415 366.256 888.338 366.521C886.912 370.949 886.393 375.181 885.88 379.373C885.748 380.449 885.616 381.523 885.47 382.596C883.678 392.798 872.923 394.035 862.886 393.417M862.872 393.666C862.873 393.666 862.873 393.666 862.874 393.666L862.886 393.417M862.872 393.666C856.477 393.36 852.578 394.581 847.233 397.346C846.802 397.593 846.375 397.841 845.949 398.088C842.135 400.3 838.46 402.431 833.909 403.552C832.264 403.957 830.602 404.167 828.996 404.37C828.144 404.478 827.307 404.583 826.496 404.715C824.136 405.099 821.945 405.709 820.023 407.216L820.014 407.223L820.004 407.229C818.596 408.14 817.449 409.28 816.281 410.442L816.273 410.45C815.114 411.604 813.934 412.778 812.478 413.72C809.219 415.906 805.572 417.171 801.55 416.541C800.752 416.426 799.902 416.227 799.035 416.023C798.719 415.949 798.401 415.874 798.081 415.803C796.876 415.533 795.643 415.307 794.417 415.307C792.663 415.307 790.911 415.939 789.319 416.514C789.009 416.625 788.705 416.735 788.409 416.837C787.886 417.042 787.362 417.253 786.836 417.465C783.419 418.841 779.912 420.253 776.134 420.253C774.687 420.253 773.355 420.136 772.086 420C771.769 419.966 771.455 419.931 771.146 419.897C770.214 419.793 769.314 419.692 768.411 419.634C766.019 419.481 763.642 419.634 760.822 420.85C755.816 423.162 751.076 425.862 746.374 428.642C745.27 429.295 744.169 429.952 743.066 430.61C739.473 432.754 735.869 434.903 732.162 436.916C729.655 438.306 727.237 439.696 724.818 441.087L724.817 441.088C722.398 442.478 719.978 443.87 717.467 445.261C716.005 446.102 714.374 446.909 712.725 447.725C711.941 448.113 711.154 448.503 710.378 448.899C707.96 450.134 705.653 451.437 703.885 452.962C703.137 453.607 702.708 454.55 702.506 455.69C702.305 456.83 702.336 458.146 702.492 459.507C702.704 461.366 703.142 463.264 703.515 464.882C703.689 465.639 703.849 466.335 703.966 466.937C705.041 470.955 706.112 474.953 707.894 478.948L707.895 478.951C711.465 487.264 717.179 495.272 724.323 501.741L724.33 501.747L724.329 501.747C725.753 503.128 727.794 504.81 730.049 505.954C732.308 507.1 734.743 507.687 736.982 506.945L736.991 506.941L736.991 506.942C739.063 506.346 740.454 504.857 741.844 503.232C741.956 503.102 742.067 502.971 742.178 502.84C743.447 501.348 744.764 499.798 746.629 498.92C750.278 497.034 755.396 497.021 758.713 499.558C760.192 500.517 760.933 501.796 761.645 503.023L761.653 503.038L761.687 503.096V503.163C761.687 503.16 761.687 503.17 761.695 503.197C761.697 503.204 761.7 503.213 761.703 503.222C761.718 503.264 761.742 503.317 761.773 503.38C761.836 503.507 761.921 503.654 762.012 503.81L762.014 503.815C762.062 503.897 762.111 503.982 762.158 504.066L762.318 503.928C763.264 502.329 765.282 501.001 767.422 499.963C769.589 498.911 771.933 498.134 773.553 497.668C777.532 496.421 781.868 496.11 786.2 496.732C788.015 496.889 789.931 497.359 791.492 498.23C793.057 499.104 794.284 500.392 794.661 502.184C795.037 503.965 794.563 505.422 793.732 506.736C793.119 507.704 792.3 508.612 791.483 509.517C791.206 509.823 790.93 510.129 790.662 510.437L790.655 510.446L790.655 510.445C789.095 512.09 788.657 513.882 788.345 515.763C788.304 516.013 788.265 516.265 788.225 516.518C787.97 518.162 787.704 519.874 786.75 521.523C785.282 524.367 782.363 526.56 779.497 528.414L779.49 528.418L779.49 528.418C775.872 530.602 771.898 531.846 767.584 532.776L767.577 532.778L767.57 532.779C766.899 532.884 766.2 533.008 765.485 533.136C764.123 533.379 762.699 533.632 761.285 533.785C759.119 534.018 756.929 534.022 754.91 533.389L754.906 533.387C752.747 532.671 751.041 531.37 749.38 530.102C749.211 529.973 749.042 529.844 748.874 529.717C747.039 528.327 745.197 527.047 742.751 526.595L742.743 526.593C738.524 525.684 734.29 526.893 730.742 529.033C728.291 530.677 726.157 532.633 724.02 534.59C723.362 535.193 722.704 535.796 722.036 536.39C719.208 538.906 716.223 541.25 712.415 542.658M862.872 393.666C862.872 393.666 862.871 393.666 862.871 393.666L862.886 393.417M862.886 393.417C856.433 393.107 852.49 394.344 847.113 397.126C846.681 397.375 846.252 397.623 845.825 397.871C842.008 400.084 838.364 402.197 833.849 403.309C832.216 403.712 830.583 403.918 828.987 404.119C825.678 404.536 822.529 404.933 819.869 407.019C818.435 407.946 817.27 409.106 816.105 410.265C814.94 411.424 813.775 412.584 812.341 413.511C809.114 415.675 805.53 416.912 801.586 416.293C800.8 416.18 799.966 415.985 799.102 415.782C797.601 415.43 796.009 415.057 794.417 415.057C792.615 415.057 790.813 415.708 789.222 416.282C788.914 416.394 788.614 416.502 788.323 416.602C787.795 416.809 787.266 417.022 786.737 417.235C783.317 418.612 779.86 420.003 776.134 420.003C774.344 420.003 772.728 419.822 771.178 419.649C767.762 419.267 764.665 418.92 760.72 420.621C754.522 423.485 748.735 426.937 742.935 430.397C739.342 432.54 735.744 434.686 732.042 436.697C729.532 438.088 727.113 439.479 724.693 440.87C722.273 442.261 719.854 443.653 717.344 445.044C715.889 445.881 714.269 446.682 712.624 447.496C709.407 449.088 706.094 450.727 703.722 452.772C701.008 455.113 702.353 460.955 703.276 464.96C703.45 465.715 703.608 466.404 703.722 466.993L703.722 466.993C704.798 471.012 705.873 475.031 707.665 479.05C711.25 487.397 716.986 495.434 724.155 501.926C727.023 504.709 732.4 508.728 737.061 507.182C739.382 506.515 740.868 504.767 742.364 503.008C743.64 501.507 744.924 499.998 746.739 499.144C750.324 497.289 755.343 497.289 758.569 499.762C760.003 500.69 760.72 501.926 761.437 503.163L761.437 503.163C761.437 503.318 761.616 503.627 761.795 503.936C761.854 504.037 761.912 504.137 761.964 504.233L712.415 542.658M762.512 504.09L762.278 504.293L712.326 542.424C716.972 540.707 720.389 537.577 723.841 534.414C725.983 532.453 728.138 530.479 730.608 528.822C734.193 526.658 738.494 525.421 742.796 526.349C745.535 526.855 747.527 528.374 749.529 529.901C751.195 531.172 752.868 532.448 754.984 533.15C758.246 534.173 761.997 533.504 765.428 532.892C766.146 532.764 766.849 532.639 767.531 532.532C771.833 531.604 775.776 530.368 779.361 528.204C782.229 526.349 785.096 524.185 786.53 521.402C787.462 519.796 787.721 518.132 787.977 516.485C788.313 514.328 788.644 512.201 790.474 510.273C790.749 509.957 791.03 509.645 791.31 509.335C793.214 507.226 795.042 505.201 794.417 502.236C793.7 498.835 789.757 497.289 786.172 496.98C781.87 496.362 777.568 496.671 773.625 497.908C770.399 498.835 764.305 500.999 762.512 504.09Z" fill="white" stroke="white" stroke-width="0.5"/>
<path d="M991.101 237.377C992.015 234.697 991.921 232.256 991.559 229.841C991.432 228.99 991.27 228.136 991.108 227.278C991.041 226.923 990.973 226.567 990.908 226.211C990.685 224.987 990.485 223.742 990.396 222.442L990.396 222.441C990.31 221.252 990.568 220.09 990.966 218.932C991.217 218.2 991.517 217.489 991.818 216.774C991.999 216.345 992.18 215.915 992.351 215.479C993.253 213.184 993.834 210.833 992.145 208.404L992.141 208.399C989.544 204.881 984.397 204.274 980.401 205.524C979.122 205.84 978.027 206.391 976.96 206.928L976.95 206.933C975.872 207.475 974.82 208.003 973.597 208.305L973.589 208.307L973.58 208.309C972.195 208.757 971.185 208.676 970.31 208.281C969.418 207.878 968.643 207.141 967.745 206.212C967.457 205.902 967.173 205.591 966.89 205.282C964.36 202.519 961.899 199.832 957.969 198.419C955.788 197.636 953.613 197.324 951.454 197.13C950.727 197.065 950.005 197.013 949.286 196.962C947.859 196.859 946.442 196.757 945.018 196.553C944.678 196.494 944.337 196.447 944.006 196.4C943.896 196.385 943.788 196.37 943.681 196.354C943.246 196.292 942.829 196.225 942.438 196.132C941.656 195.944 940.996 195.653 940.507 195.09C940.007 194.515 939.661 193.633 939.347 192.665C939.268 192.423 939.191 192.175 939.114 191.926C938.891 191.205 938.667 190.482 938.395 189.893L938.388 189.879L938.38 189.866C937.091 187.801 935.415 186.747 933.54 186.505C931.678 186.264 929.654 186.827 927.658 187.921C926.118 188.657 924.664 188.587 923.231 188.137C922.012 187.755 920.825 187.105 919.617 186.443C919.388 186.318 919.159 186.193 918.929 186.069C916.046 184.515 912.808 183.274 909.587 182.04L909.584 182.038C903.841 179.562 897.737 177.395 891.631 175.846C891.539 175.819 891.446 175.793 891.352 175.766C889.263 175.164 886.756 174.442 884.367 174.292C881.873 174.135 879.452 174.6 877.766 176.529C877.649 176.635 877.547 176.785 877.456 176.948C877.36 177.122 877.266 177.329 877.174 177.553C877.009 177.958 876.845 178.437 876.683 178.909C876.666 178.959 876.649 179.009 876.632 179.059C876.452 179.582 876.276 180.084 876.102 180.473C876.015 180.667 875.933 180.825 875.855 180.94C875.772 181.062 875.716 181.104 875.694 181.113C875.57 181.166 875.383 181.188 875.125 181.164C874.87 181.139 874.569 181.072 874.23 180.968C873.554 180.761 872.76 180.42 871.958 180.035C871.156 179.651 870.354 179.228 869.659 178.861L869.58 178.819C868.931 178.476 868.373 178.181 868.017 178.027C863.027 175.259 858.746 171.875 854.817 168.179C852.689 166.037 851.089 163.587 849.476 161.074C849.418 160.985 849.361 160.895 849.303 160.806C847.749 158.385 846.165 155.916 844.075 153.663C840.05 148.933 834.207 148.323 828.103 148.633L828.103 148.633L828.093 148.633C821.259 149.254 814.426 150.804 807.951 153.286C804.711 154.528 801.833 156.079 798.97 157.622C798.873 157.664 798.755 157.716 798.62 157.776C797.728 158.171 796.072 158.904 794.583 159.266C793.715 159.478 792.955 159.548 792.448 159.391C792.204 159.316 792.033 159.192 791.926 159.016C791.818 158.837 791.758 158.573 791.799 158.183L791.8 158.179C791.896 157.104 791.558 156.24 790.953 155.607C790.353 154.98 789.504 154.594 788.592 154.433C786.781 154.112 784.617 154.664 783.469 156.145C783.086 156.606 782.5 156.805 781.765 156.805C781.027 156.805 780.173 156.603 779.311 156.298C777.591 155.689 775.909 154.697 775.198 154.238C775.198 154.238 775.197 154.237 775.196 154.237L775.183 154.228C771.968 152.072 768.71 149.886 764.722 148.948L764.722 148.948L764.714 148.946C762.337 148.473 760.327 148.711 758.421 149.181C757.521 149.403 756.641 149.677 755.762 149.951C755.714 149.966 755.665 149.981 755.617 149.996C754.687 150.286 753.754 150.573 752.778 150.803C748.897 151.716 744.662 151.107 741.135 148.977L741.135 148.977L741.13 148.975C737.967 147.156 735.859 144.127 735.156 140.795C734.809 138.994 735.068 137.336 735.468 135.687C735.576 135.24 735.696 134.791 735.817 134.339C736.137 133.139 736.462 131.92 736.594 130.669L736.594 130.668C736.96 127.035 735.584 123.809 734.015 120.639C733.804 120.212 733.589 119.786 733.374 119.36C731.986 116.607 730.599 113.857 730.14 110.82L730.14 110.819C729.947 109.575 729.242 108.752 728.307 108.313C727.383 107.878 726.249 107.822 725.178 108.063C723.054 108.541 721.013 110.244 721.401 112.751L721.401 112.751L721.401 112.753C721.766 114.957 722.677 116.995 723.711 118.973C724.06 119.639 724.421 120.297 724.781 120.952C725.495 122.251 726.203 123.54 726.796 124.871L726.796 124.871L726.801 124.88C727.845 126.98 727.848 128.931 727.496 130.908C727.328 131.849 727.08 132.79 726.825 133.76C726.811 133.814 726.797 133.868 726.783 133.922C726.514 134.945 726.243 135.999 726.061 137.094L726.06 137.104L726.059 137.113C725.33 145.593 731.155 153.724 740.206 156.847C744.551 158.408 749.252 158.718 753.943 158.096C755.226 157.937 756.503 157.465 757.746 157.006L757.761 157C759.017 156.536 760.238 156.086 761.454 155.934C763.852 155.938 765.727 157.052 767.597 158.162C767.89 158.336 768.184 158.51 768.479 158.68C771.896 160.851 776.053 162.88 780.136 163.428C781.953 163.672 783.758 163.622 785.476 163.16C786.979 164.626 789.019 165.672 791.139 166.13C796.735 167.336 801.653 164.498 805.815 162.096C806.002 161.988 806.187 161.881 806.371 161.775C812.434 158.392 819.213 156.237 826.352 155.314C826.687 155.277 827.029 155.237 827.377 155.197C828.533 155.062 829.75 154.92 830.944 154.89C832.498 154.852 833.974 155.007 835.174 155.599L835.174 155.599L835.186 155.604C836.557 156.195 837.509 157.233 838.302 158.448C838.698 159.056 839.052 159.704 839.399 160.36C839.471 160.495 839.542 160.631 839.613 160.767C839.886 161.286 840.159 161.806 840.446 162.301L840.446 162.301L840.451 162.31C846.212 171.314 854.49 178.762 864.562 184.036C866.536 185.119 868.977 186.368 871.56 187.071C874.145 187.775 876.897 187.94 879.477 186.828C881.567 185.926 882.365 184.178 883.034 182.713C883.085 182.602 883.135 182.493 883.184 182.385C883.344 182.109 883.453 181.876 883.539 181.69C883.552 181.663 883.564 181.638 883.575 181.613C883.672 181.406 883.735 181.289 883.814 181.207C883.883 181.136 883.979 181.077 884.173 181.037C884.376 180.994 884.668 180.974 885.113 180.974C885.962 180.974 887.002 181.269 888.076 181.655C888.587 181.839 889.1 182.041 889.596 182.236L889.659 182.261C890.174 182.464 890.672 182.659 891.126 182.816L891.132 182.817C897.934 184.979 904.378 187.449 910.825 190.228C912.01 190.739 913.237 191.373 914.509 192.03L914.702 192.129C916.04 192.819 917.425 193.529 918.847 194.132C921.688 195.337 924.702 196.132 927.822 195.499L927.831 195.497L927.841 195.494C928.385 195.338 929.11 195.104 929.792 194.829C930.277 194.634 930.757 194.412 931.134 194.177C931.523 196.047 932.602 197.891 933.677 199.128L933.677 199.128L933.683 199.134C936.619 202.299 941.006 203.231 945.319 203.541L945.321 203.541C945.735 203.569 946.148 203.594 946.56 203.619C950.812 203.877 954.882 204.124 958.079 206.882C958.873 207.566 959.581 208.329 960.273 209.114C960.47 209.337 960.666 209.563 960.863 209.789C961.354 210.354 961.848 210.922 962.363 211.463C963.811 212.985 965.461 214.334 967.851 214.97C970.784 215.917 973.17 215.518 975.485 214.735C976.313 214.455 977.138 214.123 977.973 213.788C978.298 213.658 978.624 213.527 978.952 213.398C980.13 212.936 981.349 212.497 982.675 212.192L982.684 212.189L982.694 212.186C983.178 212.035 983.565 211.947 983.871 211.911C984.179 211.875 984.389 211.892 984.527 211.935C984.657 211.976 984.719 212.038 984.753 212.104C984.791 212.18 984.81 212.294 984.79 212.46C984.751 212.798 984.569 213.246 984.312 213.747C984.109 214.143 983.87 214.552 983.643 214.94C983.587 215.036 983.532 215.13 983.478 215.223L983.468 215.24L983.461 215.258C982.373 218.074 982.007 220.59 982.371 223.418L982.371 223.418L982.373 223.429C982.498 224.151 982.633 224.858 982.765 225.551C983.203 227.849 983.613 230.002 983.579 232.116C983.535 234.842 982.748 237.488 980.282 240.222L980.279 240.225C978.168 242.652 975.348 244.177 972.154 245.095L972.154 245.095L972.146 245.098C971.28 245.378 970.428 245.597 969.587 245.814C969.034 245.957 968.486 246.098 967.942 246.255C966.591 246.643 965.305 247.115 964.196 247.911C961.997 249.335 960.518 251.478 960.147 253.719C959.773 255.973 960.525 258.305 962.748 260.061L962.747 260.062L962.757 260.068C964.791 261.53 967.446 262.177 969.804 262.752C969.995 262.798 970.184 262.844 970.371 262.89L970.378 262.892L974.096 263.694C973.76 263.702 973.426 263.709 973.097 263.715C972.914 263.719 972.733 263.722 972.554 263.726C971.44 263.75 970.408 263.788 969.664 263.948C966.395 264.575 963.472 266.144 961.636 268.361C957.611 273.095 957.995 279.075 959.435 284.354L959.436 284.357C959.827 285.706 960.995 286.528 962.312 286.812C963.628 287.096 965.136 286.855 966.275 286.037L966.284 286.03L966.292 286.023C966.781 285.601 967.188 285.542 967.525 285.643C967.884 285.75 968.223 286.055 968.524 286.48C968.82 286.9 969.057 287.41 969.22 287.873C969.385 288.343 969.464 288.736 969.464 288.925V288.949L969.468 288.972C969.642 289.872 969.643 290.852 969.643 291.862V291.875C969.643 292.868 969.643 293.889 969.825 294.838L969.85 295.032C970.197 297.737 970.592 300.812 972.742 302.992C972.806 303.091 972.902 303.197 973.007 303.299C973.127 303.416 973.274 303.544 973.437 303.677C973.763 303.943 974.16 304.237 974.543 304.509C974.926 304.781 975.298 305.034 975.574 305.218C975.639 305.262 975.699 305.301 975.752 305.337L975.549 305.512L974.524 306.396L972.777 307.903L972.765 307.913L972.754 307.925C970.278 310.67 969.517 314.294 968.825 317.588C968.8 317.703 968.776 317.818 968.752 317.933L968.749 317.946L968.748 317.958C968.389 321.362 968.033 324.731 966.971 327.788C966.095 329.899 964.882 331.159 963.29 331.901C961.683 332.65 959.668 332.883 957.167 332.883C955.371 332.883 953.583 332.874 951.802 332.865C942.93 332.822 934.206 332.78 925.234 333.812L925.213 333.814L925.194 333.82C923.527 334.299 922.371 335.348 922.024 336.376C921.848 336.896 921.876 337.429 922.187 337.859C922.494 338.283 923.042 338.554 923.799 338.636C930.981 339.565 937.803 339.875 944.979 339.875C946.495 339.875 948.102 339.952 949.76 340.039C949.946 340.048 950.132 340.058 950.318 340.068C951.799 340.146 953.315 340.227 954.831 340.261C958.244 340.339 961.682 340.185 964.768 339.246L964.774 339.244C967.591 338.303 969.602 336.907 971.063 335.208C972.522 333.511 973.42 331.524 974.032 329.415C974.642 327.309 974.969 325.07 975.277 322.869L975.322 322.547C975.614 320.455 975.9 318.405 976.405 316.513C976.75 315.552 977.355 314.653 978.079 313.766C978.548 313.193 979.055 312.636 979.569 312.073C979.856 311.758 980.146 311.441 980.431 311.117C982 309.34 983.415 307.413 983.227 304.981L983.226 304.973L983.225 304.965C983.039 303.679 982.569 302.783 981.908 302.051C981.294 301.369 980.516 300.834 979.684 300.261C979.635 300.227 979.586 300.193 979.537 300.159C978.499 299.413 977.905 298.602 977.566 297.687C977.223 296.764 977.133 295.718 977.133 294.49V294.448C977.133 289.845 977.133 284.461 972.001 281.296C970.242 280.084 968.144 279.452 966.069 279.438C966.013 278.041 966.183 276.649 966.717 275.422L966.718 275.42C967.412 273.775 968.352 272.898 969.586 272.385C970.841 271.862 972.412 271.708 974.391 271.553C977.264 271.398 980.435 271.01 983.03 269.911C985.634 268.808 987.684 266.975 988.242 263.93M991.101 237.377C989.65 241.757 986.75 245.506 982.773 248.315C980.946 249.888 978.761 250.826 976.253 251.753L976.248 251.755C975.786 251.914 975.146 252.071 974.443 252.24C974.365 252.258 974.286 252.277 974.206 252.296C973.564 252.45 972.873 252.615 972.201 252.803C971.444 253.014 970.719 253.251 970.121 253.528C969.521 253.805 969.081 254.108 968.849 254.435C968.698 254.7 968.669 254.915 968.706 255.094C968.744 255.279 968.861 255.462 969.067 255.645C969.488 256.016 970.214 256.323 971.082 256.572C972.391 256.948 973.92 257.17 974.986 257.324C975.33 257.373 975.626 257.416 975.85 257.455L975.864 257.457L975.877 257.461C979.089 258.384 982.302 259.001 985.528 259.619C986.674 259.785 987.459 260.37 987.901 261.175C988.339 261.972 988.429 262.961 988.242 263.93M991.101 237.377C991.101 237.378 991.101 237.378 991.1 237.378L990.864 237.298L991.101 237.376C991.101 237.377 991.101 237.377 991.101 237.377ZM988.242 263.93C988.242 263.931 988.242 263.931 988.242 263.932L987.996 263.884L988.242 263.929C988.242 263.93 988.242 263.93 988.242 263.93Z" fill="white" stroke="white" stroke-width="0.5"/>
<path d="M725.078 112.226L725.072 112.235C723.906 113.911 721.866 113.983 720.478 113.116C719.78 112.68 719.23 112 719.028 111.15C718.825 110.298 718.979 109.304 719.634 108.253C720.152 107.359 720.283 106.666 720.19 106.11C720.096 105.555 719.771 105.091 719.282 104.669C718.79 104.245 718.151 103.879 717.463 103.517C717.293 103.427 717.118 103.338 716.943 103.247C716.422 102.979 715.892 102.706 715.415 102.412L715.408 102.408L715.401 102.402C713.199 100.82 712.087 98.9095 711.717 96.3789C711.364 95.1693 710.943 94.4888 710.28 94.1528C709.6 93.8076 708.6 93.7898 706.993 94.0975C705.577 94.403 704.247 94.8613 702.902 95.3254L702.896 95.3276C701.556 95.7899 700.199 96.2578 698.751 96.5701L698.738 96.5728L698.725 96.5742C695.84 96.8852 692.933 96.8881 690.018 95.9453L690.008 95.9421C688.738 95.4724 687.56 94.8475 686.4 94.2317L686.393 94.2279C685.228 93.6099 684.08 93.0011 682.847 92.5445C676.89 90.8352 670.62 92.052 664.547 93.2302C664.121 93.313 663.695 93.3956 663.271 93.4769C660.25 94.4422 657.177 91.8415 657.948 88.8451C660.442 78.7023 659.373 68.5674 654.03 59.0435C653.455 58.0503 653.359 56.8109 653.791 55.7346C654.226 54.6508 655.19 53.7464 656.701 53.4199C657.01 53.3472 657.323 53.2746 657.639 53.2014C659.343 52.8061 661.128 52.3922 662.818 51.8416C664.821 51.1889 666.667 50.3514 668.064 49.1464C669.288 48.0912 670.143 46.7491 670.356 45.4316C670.565 44.1315 670.153 42.8326 668.794 41.8066L668.787 41.8017L668.781 41.7964C667.728 40.8881 666.405 40.1265 665.014 39.3524C664.89 39.2833 664.765 39.2141 664.64 39.1447C663.372 38.4412 662.066 37.7168 660.909 36.8618L660.902 36.8562L660.895 36.8501C658.371 34.6737 656.198 32.1791 654.746 29.3639C653.403 27.1616 652.357 24.7815 651.321 22.4237C650.969 21.6214 650.617 20.8217 650.256 20.0324C648.825 16.9098 647.228 13.9307 644.753 11.4909C642.994 9.82286 640.082 8.22489 637.222 7.73158C634.366 7.23905 631.627 7.8517 630.087 10.5088C629.309 11.8504 627.77 12.4125 626.279 12.3723C624.79 12.3322 623.267 11.6911 622.492 10.5215L622.488 10.5143C620.956 8.01934 618.049 7.54309 614.847 7.96494C611.659 8.38491 608.285 9.68434 605.953 10.6125C599.506 13.7012 592.985 16.52 585.369 14.9564M725.078 112.226L451.707 86.1239C452.131 87.4387 452.414 88.9607 452.709 90.5429C453.661 95.657 454.731 101.401 461.028 102.818L460.971 103.061C460.972 103.061 460.972 103.061 460.972 103.061C463.35 103.613 465.19 103.324 466.602 102.466C468.009 101.612 468.955 100.216 469.594 98.6214C470.869 95.4407 470.957 91.3756 470.957 88.9062C470.957 78.8555 471.047 67.5245 473.683 57.048C476.178 47.1269 480.951 37.9884 490.081 31.4398C495.08 32.7795 499.695 32.01 504.25 30.6792C505.861 30.2084 507.477 29.663 509.099 29.1157C510.206 28.7423 511.315 28.3681 512.427 28.016C515.182 27.1439 517.986 26.3962 520.918 26.0895C524.254 25.7872 527.248 26.9207 530.294 28.2343C530.614 28.3721 530.934 28.512 531.255 28.6523C533.98 29.8422 536.779 31.0642 539.869 31.345C546.02 31.9688 552.164 30.4086 557.221 27.6052L557.227 27.6015C562.362 24.5572 564.382 20.7639 566.756 16.3072C567.067 15.7235 567.384 15.1284 567.715 14.5221L567.717 14.5189C568.584 12.8731 569.719 12.0142 571.019 11.6481C572.332 11.2785 573.84 11.4035 575.459 11.786C577.016 12.1538 578.647 12.7524 580.274 13.3493L580.466 13.4198C582.148 14.0367 583.824 14.6428 585.369 14.9564M725.078 112.226L725.083 112.217C726.536 109.712 727.282 107.17 726.543 104.301L726.541 104.294C726.17 103.014 725.431 101.746 724.339 100.49C723.772 99.8384 723.024 99.3574 722.306 98.9316C722.176 98.8546 722.047 98.7796 721.921 98.7059C721.335 98.3637 720.794 98.0481 720.37 97.6821C719.908 97.2836 719.737 96.6722 719.648 95.9476C719.62 95.713 719.601 95.4793 719.582 95.2423C719.571 95.1123 719.56 94.9813 719.548 94.8487C719.514 94.4835 719.468 94.116 719.371 93.7829C719.001 92.5056 718.26 91.2254 717.144 90.2626C714.565 88.0387 710.903 87.4173 707.638 87.7297C705.64 87.8866 703.829 88.3563 702.031 88.8987C701.545 89.0455 701.061 89.1971 700.575 89.3495C699.258 89.7624 697.924 90.1803 696.492 90.5173C694.43 90.9608 692.615 90.2998 690.793 89.3419C690.259 89.061 689.738 88.7623 689.211 88.4601C688.828 88.2411 688.443 88.0203 688.047 87.8031C687.118 87.2931 686.16 86.8202 685.151 86.5037C679.353 84.6854 672.988 85.022 666.912 85.936M725.078 112.226L666.912 85.936M585.369 14.9564C585.369 14.9564 585.369 14.9564 585.369 14.9564L585.419 14.7115L585.37 14.9565C585.37 14.9565 585.369 14.9565 585.369 14.9564ZM666.912 85.936C668.274 77.1624 666.925 68.2739 663.132 60.1829C666.29 59.1195 669.405 57.7819 671.997 56.035C675.938 53.3782 678.698 49.7516 678.515 44.6895L678.515 44.6895L678.514 44.6763C678.145 40.5358 675.189 37.696 671.583 35.5193L671.582 35.5187C666.937 32.7453 663.397 29.9915 660.919 25.4126L660.918 25.41C659.925 23.6263 659.028 21.7095 658.111 19.7503C658.039 19.5974 657.967 19.4442 657.896 19.2909C656.904 17.1756 655.881 15.0217 654.687 12.9631C652.299 8.84316 649.22 5.08745 644.319 2.73911M666.912 85.936L413.575 72.1179C413.641 72.1741 413.707 72.2279 413.773 72.2795C413.447 72.5378 413.154 72.8499 412.869 73.1859C412.748 73.3281 412.627 73.4764 412.504 73.6262C412.149 74.0621 411.782 74.5118 411.37 74.869M644.319 2.73911C644.319 2.73932 644.32 2.73953 644.32 2.73973L644.21 2.96398L644.318 2.73852C644.318 2.73872 644.318 2.73892 644.319 2.73911ZM644.319 2.73911C640.504 0.859328 635.878 0.313157 631.706 1.09525C629.487 1.51126 627.388 2.3052 625.605 3.48137M625.605 3.48137C623.563 2.16075 621.106 1.42143 618.517 1.13117C613.99 0.623677 609.021 1.48195 605.046 3.03982M625.605 3.48137C625.529 3.53144 625.453 3.58219 625.379 3.63363L625.831 3.63172C625.756 3.58079 625.681 3.53068 625.605 3.48137ZM605.046 3.03982C603.608 3.58226 602.172 4.2398 600.735 4.89819L600.719 4.90552C599.272 5.56788 597.823 6.23088 596.354 6.78772C593.416 7.90111 590.42 8.57966 587.259 7.97387L587.254 7.97308C585.074 7.59696 583.014 6.91384 580.956 6.23111C580.498 6.07923 580.04 5.92737 579.581 5.77891C577.068 4.96621 574.527 4.2597 571.797 4.2597C568.613 4.2597 566.254 5.08482 564.377 6.40651C562.506 7.72416 561.13 9.52448 559.892 11.446C559.414 12.1874 558.96 12.9412 558.507 13.6939C557.775 14.9098 557.044 16.1227 556.219 17.2758C554.893 19.1272 553.352 20.7747 551.248 21.9092M605.046 3.03982C605.046 3.03963 605.047 3.03941 605.047 3.03922L605.136 3.27312L605.044 3.04037C605.045 3.04018 605.045 3.04 605.046 3.03982ZM551.248 21.9092C547 24.0455 542.053 24.6516 537.466 23.1316M551.248 21.9092C551.25 21.9087 551.251 21.9082 551.252 21.9076L551.364 22.131L551.245 21.9109C551.246 21.9103 551.247 21.9098 551.248 21.9092ZM537.466 23.1316C536.221 22.6714 535.02 22.1729 533.825 21.6768L533.816 21.673C532.618 21.1758 531.426 20.6811 530.21 20.2346C527.777 19.341 525.242 18.6371 522.341 18.4807L522.341 18.4804H522.327C517.427 18.4804 512.53 20.0076 507.94 21.4388C507.45 21.5916 506.964 21.7434 506.481 21.892L506.476 21.8937C505.932 22.074 505.376 22.266 504.811 22.4612C502.936 23.1087 500.958 23.7921 498.975 24.2048C496.402 24.7406 493.867 24.8083 491.608 23.7612M537.466 23.1316C537.467 23.1321 537.469 23.1325 537.47 23.133L537.383 23.3675L537.462 23.1302C537.463 23.1307 537.465 23.1311 537.466 23.1316ZM491.608 23.7612C489.714 22.7834 487.824 23.1256 485.979 24.3983L485.979 24.3987C469.399 35.8992 463.649 54.5389 462.213 72.1921L462.212 72.1954C461.853 77.4596 461.853 82.7225 461.853 87.9754V87.9788C461.853 88.7605 461.853 89.5708 461.842 90.3908M491.608 23.7612C491.61 23.7621 491.612 23.7629 491.613 23.7638L491.498 23.9858L491.604 23.7591C491.605 23.7598 491.607 23.7605 491.608 23.7612ZM461.842 90.3908C461.653 89.2958 461.464 88.1547 461.275 87.0124L461.274 87.0105L461.275 87.0104L461.272 86.9982C460.19 82.0189 458.024 77.0394 454.776 72.6813L454.776 72.6812L454.772 72.6759C448.627 64.883 438.48 60.4923 427.959 64.8683M461.842 90.3908C461.916 90.8209 461.99 91.2439 462.064 91.657L411.2 74.6856M461.842 90.3908C461.836 90.8173 461.827 91.2463 461.814 91.6754C461.552 90.216 461.29 88.6361 461.029 87.0562L461.028 87.0513C459.952 82.105 457.802 77.1587 454.575 72.8307C448.481 65.1021 438.444 60.774 428.048 65.1021M427.959 64.8683C427.237 65.1182 426.401 65.5151 425.557 65.9157C425.336 66.0204 425.115 66.1254 424.895 66.2281C423.825 66.728 422.787 67.1735 421.932 67.3252M427.959 64.8683C427.962 64.8674 427.964 64.8666 427.966 64.8657L428.048 65.1021M427.959 64.8683C427.957 64.8693 427.954 64.8703 427.952 64.8713L428.048 65.1021M421.932 67.3252C420.94 67.3191 420.101 66.8913 419.215 66.3565C419.08 66.2748 418.943 66.1905 418.805 66.105C418.048 65.6375 417.237 65.1369 416.298 64.8648M421.932 67.3252C421.94 67.3252 421.947 67.3252 421.954 67.3252V67.5752M421.932 67.3252C421.925 67.3264 421.918 67.3277 421.911 67.3289L421.954 67.5752M416.298 64.8648C412.956 63.5891 409.638 64.8821 407.093 67.0768C406.799 67.3307 406.422 67.8205 406.008 68.3777C405.925 68.489 405.841 68.6038 405.754 68.7212C405.397 69.2038 405.008 69.7304 404.597 70.239C404.086 70.8719 403.55 71.4646 403.016 71.8974C402.519 72.2997 402.052 72.5403 401.629 72.576M416.298 64.8648C416.301 64.8661 416.304 64.8674 416.308 64.8686L416.218 65.1021M416.298 64.8648C416.294 64.8638 416.291 64.8628 416.287 64.8618L416.218 65.1021M401.629 72.576C401.59 72.519 401.541 72.4297 401.488 72.3032C401.41 72.1193 401.335 71.8896 401.269 71.6454C401.137 71.1519 401.054 70.6351 401.054 70.3575V70.3336L401.049 70.3101L401.047 70.3007C400.69 68.4518 400.328 66.5785 399.603 64.7028L399.603 64.7027L399.599 64.6932C397.949 60.8986 394.473 58.3856 390.435 57.1727C386.398 55.9599 381.773 56.0377 377.779 57.4466M401.629 72.576C401.642 72.594 401.653 72.6088 401.663 72.6205C401.695 72.635 401.723 72.6491 401.748 72.663C401.767 72.6732 401.785 72.6841 401.802 72.6959C401.819 72.7074 401.838 72.7221 401.857 72.7403C401.867 72.7508 401.882 72.766 401.896 72.7861C403.303 72.4599 404.816 70.412 405.956 68.8679C406.486 68.1513 406.935 67.5431 407.256 67.2661C409.766 65.1021 412.992 63.8655 416.218 65.1021M401.629 72.576C401.593 72.5791 401.557 72.5807 401.521 72.5807C401.454 72.5807 401.395 72.5818 401.344 72.5842C401.053 72.0336 400.804 70.8731 400.804 70.3575C400.445 68.5027 400.087 66.6478 399.37 64.7929C396.143 57.3735 385.748 54.9003 377.861 57.6826M377.779 57.4466C372.334 59.325 368.712 63.0796 365.831 67.117M377.779 57.4466C377.779 57.4465 377.779 57.4464 377.78 57.4463L377.861 57.6826M377.779 57.4466C377.779 57.4467 377.778 57.4467 377.778 57.4468L377.861 57.6826M365.831 67.117C365.559 67.4684 365.288 67.8632 365.035 68.2695M365.831 67.117C365.832 67.1157 365.833 67.1145 365.834 67.1132L366.031 67.2661M365.831 67.117C365.83 67.1183 365.829 67.1196 365.828 67.1209L366.031 67.2661M365.035 68.2695C364.838 67.8389 364.636 67.4518 364.455 67.1407L364.453 67.1367C362.253 63.5012 358.054 61.2296 353.609 60.6038C349.164 59.9779 344.425 60.9908 341.131 63.9875M365.035 68.2695C365.076 68.36 365.118 68.4523 365.158 68.5463C365.432 68.0957 365.732 67.6539 366.031 67.2661M365.035 68.2695C364.982 68.3553 364.929 68.4417 364.877 68.5283C364.662 68.0436 364.437 67.6077 364.239 67.2661C359.937 60.1558 347.749 58.3009 341.296 64.1746M341.131 63.9875C340.092 64.8847 339.695 65.9455 339.787 66.979C339.878 68.003 340.444 68.9665 341.265 69.6944C342.904 71.1486 345.639 71.7259 347.904 69.9354L347.904 69.9355L347.912 69.9286C348.927 69.0537 350.381 68.6775 351.814 68.7523C353.246 68.8272 354.612 69.3507 355.453 70.219M341.131 63.9875C341.132 63.9868 341.132 63.9861 341.133 63.9853L341.296 64.1746M341.131 63.9875C341.13 63.9883 341.129 63.989 341.128 63.9898L341.296 64.1746M355.453 70.219C356.501 71.3833 356.83 72.7671 357.169 74.1995C357.219 74.4065 357.268 74.6146 357.32 74.8231C357.727 76.4616 358.286 78.0921 360.167 79.2276C363.889 81.4745 368.318 79.8542 370.877 77.017L370.887 77.0064L370.895 76.9948C371.621 75.9782 372.231 74.9248 372.809 73.8791C372.964 73.5984 373.117 73.3187 373.269 73.0406C373.685 72.2787 374.095 71.5278 374.535 70.7956C375.735 68.8039 377.143 66.9875 379.423 65.6259L379.423 65.626L379.431 65.6211C380.821 64.7217 382.836 64.1147 384.856 64.0768C386.874 64.039 388.858 64.5688 390.228 65.8939M355.453 70.219C355.452 70.218 355.451 70.2169 355.45 70.2158L355.636 70.0484M355.453 70.219C355.454 70.2201 355.455 70.2211 355.456 70.2221L355.636 70.0484M390.228 65.8939C391.428 67.2282 391.866 68.9404 392.224 70.7537C392.268 70.9761 392.31 71.2003 392.353 71.4254C392.656 73.016 392.968 74.6535 393.776 76.0475L393.781 76.0557L393.786 76.0634C394.977 77.8005 396.382 78.8982 397.902 79.4836C399.421 80.0684 401.037 80.1356 402.641 79.8391C405.841 79.2479 409.018 77.2073 411.37 74.869M390.228 65.8939C390.226 65.8919 390.224 65.8899 390.222 65.8878L390.408 65.7204M390.228 65.8939C390.23 65.8959 390.232 65.8978 390.234 65.8998L390.408 65.7204M411.37 74.869C411.367 74.8709 411.365 74.8729 411.363 74.8749L411.2 74.6856M411.37 74.869C411.372 74.8669 411.374 74.8648 411.376 74.8628L411.2 74.6856M428.048 65.1021C427.339 65.3468 426.517 65.7368 425.672 66.1379C424.381 66.7502 423.037 67.3885 421.954 67.5752M421.954 67.5752C420.711 67.5752 419.708 66.9561 418.667 66.314C417.907 65.8447 417.126 65.3631 416.218 65.1021M377.861 57.6826C372.484 59.5375 368.899 63.2472 366.031 67.2661M341.296 64.1746C337.353 67.5752 343.447 73.1398 347.749 69.7392C349.9 67.8844 353.843 68.1935 355.636 70.0484M355.636 70.0484C356.732 71.2642 357.076 72.7161 357.414 74.1463C357.85 75.9889 358.277 77.7952 360.296 79.0136C363.881 81.1776 368.182 79.6319 370.692 76.8496C371.6 75.5771 372.328 74.2427 373.047 72.9249C374.6 70.0803 376.11 67.3126 379.295 65.4112C382.163 63.5563 387.54 62.9381 390.408 65.7204M390.408 65.7204C391.818 67.2838 392.209 69.3352 392.599 71.3811C392.904 72.9762 393.207 74.5678 393.993 75.9221C398.653 82.7233 406.539 79.3227 411.2 74.6856" fill="white" stroke="white" stroke-width="0.5"/>
<path d="M340.714 56.8522C341.841 57.503 342.583 58.4736 343.306 59.7207C343.494 60.0438 343.679 60.4448 343.819 60.846C343.939 61.1918 344.03 61.5526 344.052 61.8709C344.602 61.7737 345.188 61.7666 345.765 61.8394C346.719 61.9597 347.668 62.301 348.408 62.842C349.149 63.3842 349.692 64.1377 349.791 65.0753L349.794 65.1015L349.791 65.1278C349.604 66.9067 348.663 68.2904 347.295 69.1034C345.932 69.9146 344.159 70.1499 342.31 69.6716L342.301 69.6691L342.292 69.6659C340.464 69.0356 338.991 68.0859 337.883 66.8113L337.867 66.7933L337.855 66.7727C337.663 66.4408 337.477 65.956 337.298 65.4561C337.237 65.2843 337.176 65.1104 337.116 64.9376C336.999 64.5996 336.883 64.2661 336.766 63.9628C336.606 63.6171 336.525 63.3446 336.494 63.132C336.449 63.1474 336.401 63.1627 336.348 63.1778L336.335 63.1816L336.321 63.1839C335.495 63.3265 334.645 63.9043 333.744 64.6035C333.57 64.7381 333.395 64.8772 333.218 65.0175C332.5 65.5878 331.758 66.1768 331.017 66.5602C329.22 67.4899 327.023 68.443 324.808 68.443C322.979 68.443 321.255 68.1611 319.699 67.6133C317.928 70.4562 315.292 72.815 311.641 74.2974C309.761 75.1068 307.693 74.7035 306.369 73.6436C305.705 73.1118 305.219 72.4071 305.048 71.5969C304.877 70.7842 305.028 69.8893 305.594 68.9916C305.641 68.9095 305.635 68.8559 305.606 68.8006C305.567 68.7251 305.473 68.629 305.298 68.5225C304.951 68.3115 304.4 68.1255 303.777 67.972C302.536 67.6663 301.123 67.5156 300.79 67.5156C299.654 67.5156 298.521 67.6133 297.375 67.7121C297.087 67.7369 296.798 67.7618 296.508 67.7853C295.074 67.9012 293.622 67.9803 292.165 67.8239C287.062 67.5079 283.421 64.988 280.524 61.553L280.517 61.5449L280.517 61.5447C280.238 61.1829 279.974 60.8246 279.715 60.4732C278.624 58.9929 277.623 57.6356 275.93 56.6622C274.889 56.0638 273.576 55.6837 272.192 55.3757C271.593 55.2423 270.985 55.1235 270.384 55.0058C270.292 54.9878 270.2 54.9699 270.109 54.9519C269.42 54.8166 268.742 54.6804 268.109 54.5242L268.107 54.5238C262.021 52.9802 255.576 51.745 249.122 50.5081L249.121 50.5079C225.474 45.8733 201.47 43.0927 177.467 42.4748L177.466 42.4747C167.076 42.1658 156.334 42.1659 145.595 43.0919C141.658 43.5549 137.377 44.2482 133.458 45.5155C129.536 46.7839 125.997 48.6208 123.529 51.3575L123.526 51.3615L123.526 51.3615C122.379 52.5787 121.449 53.9713 120.572 55.4294C120.228 56.0021 119.89 56.5892 119.55 57.1794C119.032 58.0803 118.508 58.9886 117.954 59.864C116.103 62.7841 113.824 65.4649 109.805 66.8828C105.415 68.4599 101.395 66.8837 97.4775 65.3482L97.442 65.3343C95.5044 64.5748 94.2647 64.6819 93.425 65.3026C92.5639 65.9391 92.0408 67.1698 91.6838 68.8629L91.6828 68.8678C90.7992 72.6772 91.2382 76.9609 92.3089 81.193C93.379 85.4227 95.0748 89.5805 96.6855 93.1304L96.6876 93.1351C100.253 101.438 106.32 108.828 113.47 114.994C114.635 115.999 114.912 117.578 114.486 118.966C114.059 120.358 112.916 121.592 111.202 121.921C110.833 121.991 110.584 122.12 110.417 122.276C110.252 122.431 110.152 122.629 110.107 122.871C110.014 123.368 110.159 124.027 110.447 124.752C110.885 125.856 111.602 126.996 112.084 127.762C112.231 127.995 112.356 128.194 112.444 128.346C114.246 131.144 115.7 134.271 116.064 137.722C116.789 143.669 114.972 149.332 109.507 153.103C107.318 154.675 104.768 155.616 101.862 155.93L101.848 155.931H101.835C101.107 155.931 100.33 155.86 99.566 155.791C99.1906 155.757 98.8185 155.723 98.4571 155.699C97.3397 155.621 96.3086 155.626 95.4639 155.917L95.4448 155.924L95.4249 155.927C94.6094 156.068 93.8495 156.638 93.1416 157.363C92.6819 157.833 92.2695 158.341 91.8846 158.814C91.6722 159.075 91.4682 159.326 91.2693 159.555L91.2652 159.56L91.2651 159.56C85.8857 165.436 80.1483 171.311 74.4142 177.183C69.0354 183.059 63.2987 188.934 57.5653 194.805L57.5627 194.808L57.5587 194.812C56.7639 195.589 55.962 196.365 55.1586 197.142C50.5167 201.635 45.8248 206.177 42.1711 211.166C37.3819 217.744 36.6683 224.779 38.0028 231.761C39.339 238.752 42.7266 245.677 46.1309 252.012C47.2551 253.955 46.905 256.616 44.5777 257.619C40.9171 259.198 37.9811 258.875 34.3598 257.626L34.351 257.623L34.3424 257.619C34.1795 257.549 33.9336 257.421 33.649 257.272C33.6012 257.247 33.5523 257.222 33.5026 257.196C33.1502 257.013 32.7408 256.803 32.3216 256.613C31.9013 256.422 31.4786 256.254 31.1001 256.153C30.7131 256.05 30.4098 256.026 30.2087 256.084L30.2006 256.086L30.1923 256.088C29.9165 256.148 29.6257 256.366 29.3245 256.732C29.0275 257.093 28.7457 257.568 28.4798 258.084C28.2251 258.578 27.9903 259.1 27.773 259.582L27.7462 259.642C27.5248 260.133 27.3181 260.59 27.1315 260.912C25.3745 264.159 23.6607 267.37 21.9596 270.556C18.8071 276.462 15.6985 282.285 12.44 288.106C12.1882 288.683 11.843 289.29 11.4941 289.904C11.4617 289.961 11.4293 290.018 11.397 290.075C11.01 290.757 10.6256 291.449 10.3412 292.147C9.77449 293.538 9.62403 294.899 10.6212 296.189C11.3092 297.079 12.3516 297.832 13.5141 298.565C13.8934 298.804 14.2869 299.041 14.6828 299.28C15.4848 299.765 16.297 300.255 17.0219 300.776L17.0233 300.777C19.353 302.477 21.5932 304.1 23.8337 305.723L23.8383 305.726C26.0763 307.347 28.3148 308.969 30.6427 310.668C31.2253 311.079 32.0674 311.747 33.0878 312.556C33.8029 313.124 34.6056 313.76 35.468 314.427C37.5714 316.053 40.0488 317.871 42.545 319.351C45.0464 320.834 47.542 321.962 49.6853 322.231C50.7536 322.365 51.7212 322.284 52.5552 321.938C53.3855 321.594 54.101 320.982 54.6582 320.021L54.6624 320.013C56.0114 317.853 58.5959 317.802 60.4562 318.765C61.3919 319.249 62.1796 320.003 62.5657 320.918C62.9561 321.844 62.9261 322.915 62.2561 323.988L62.252 323.995L62.2476 324.001C59.3172 328.107 54.2049 329.982 48.7669 329.67C48.7666 329.67 48.7664 329.67 48.7661 329.67L48.7804 329.42C42.8326 329.119 37.9091 325.578 33.6768 322.534L340.714 56.8522ZM340.714 56.8522C338.859 55.576 336.644 55.2646 334.451 55.5797L334.44 55.5813L334.429 55.5838C333.402 55.8255 332.206 56.4633 330.972 57.1862C330.608 57.3988 330.241 57.6192 329.871 57.8408C328.971 58.3811 328.058 58.929 327.158 59.3919C325.887 60.0456 324.686 60.5058 323.642 60.5333C323.125 60.5469 322.652 60.454 322.228 60.2301C321.806 60.0067 321.417 59.6453 321.079 59.0993C320.682 58.4173 320 57.9431 319.219 57.6596C318.436 57.3753 317.536 57.2755 316.674 57.3559C314.98 57.5138 313.296 58.396 313.09 60.1144C312.812 61.4266 312.373 62.5892 311.712 63.608M340.714 56.8522L311.712 63.608M311.712 63.608C311.381 63.3031 311.016 63.0119 310.617 62.7363M311.712 63.608L310.617 62.7363M310.617 62.7363C306.233 59.2743 301.126 59.2879 295.742 59.9069L295.74 59.9071C293.233 60.2161 290.81 60.2006 289.102 59.022C288.24 58.4276 287.543 57.6046 286.874 56.7198C286.701 56.491 286.529 56.257 286.357 56.0222C285.872 55.362 285.382 54.6949 284.846 54.1165C281.411 49.9725 276.678 48.6229 271.661 47.1922C271.357 47.1056 271.052 47.0187 270.747 46.9308L270.741 46.9292C244.555 40.1235 217.652 36.1023 190.393 34.5558V34.5558L190.39 34.5556C177.123 33.9372 163.495 33.6278 150.224 33.9371L150.221 33.9372C140.529 34.2468 130.086 35.7944 121.788 40.4605C117.812 42.6431 114.556 45.7609 112.382 49.1948C111.922 49.8314 111.49 50.6578 111.054 51.5435C110.925 51.8059 110.796 52.0735 110.665 52.3439C110.35 52.9968 110.027 53.6662 109.68 54.3187C108.693 56.1761 107.565 57.7945 106.047 58.3761L106.047 58.3759L106.038 58.3799C105.032 58.8135 104.112 58.7447 103.213 58.4493C102.513 58.2194 101.843 57.8597 101.157 57.491C100.945 57.3773 100.732 57.2628 100.516 57.1509L100.508 57.1468L100.5 57.1434C98.3233 56.2047 95.7803 55.5772 93.2316 55.5772H93.2226L93.2136 55.5778C88.8282 55.893 85.1697 58.4135 83.3364 61.5756C80.7883 65.9704 80.4334 71.2118 81.1091 76.4175C81.785 81.6246 83.4959 86.8243 85.1108 91.157L85.1128 91.1621C88.8558 100.577 94.7612 109.29 102.593 116.696C101.273 118.324 100.51 120.305 100.51 122.293C100.51 125.15 101.799 127.598 103.188 129.956C103.354 130.237 103.521 130.517 103.687 130.796C104.928 132.874 106.144 134.911 106.609 137.182L106.608 137.182L106.612 137.195C107.314 139.92 106.954 142.91 104.885 144.993C103.675 146.185 102.473 146.629 101.172 146.816C100.515 146.911 99.8333 146.939 99.1045 146.963C99.0355 146.966 98.9661 146.968 98.8963 146.97C98.2357 146.992 97.5384 147.014 96.8043 147.084C93.1552 147.087 90.4167 148.429 88.0572 150.307C86.4447 151.591 84.994 153.14 83.5532 154.678C82.8992 155.377 82.2472 156.073 81.583 156.741L81.5821 156.742C76.5626 161.844 71.5433 167.023 66.5247 172.201C61.506 177.379 56.4879 182.557 51.47 187.657L51.4672 187.66C49.8934 189.312 48.2071 190.983 46.4908 192.684C43.7339 195.415 40.8999 198.224 38.331 201.154C34.1546 205.917 30.6293 211.053 29.1807 216.829C26.2704 227.624 29.9282 238.405 34.8294 248.484L310.617 62.7363Z" fill="white" stroke="white" stroke-width="0.5"/>
<path d="M57.2735 320.217V320.217L56.8602 320.573L57.2735 320.217ZM57.2735 320.217L57.3408 320.159M57.2735 320.217L57.3408 320.159M57.3408 320.159C57.4944 319.819 57.7143 319.528 57.9357 319.337L58.006 319.276H58.0989C58.1822 319.276 58.2119 319.253 58.2942 319.182C58.2952 319.181 58.2963 319.18 58.2974 319.179C58.3665 319.12 58.4621 319.037 58.6097 318.995C58.6267 318.955 58.6483 318.919 58.6741 318.885C58.7408 318.799 58.8249 318.748 58.8962 318.717C58.9635 318.688 59.0277 318.674 59.0748 318.666C59.4852 318.348 59.9215 318.348 60.5536 318.349C60.5717 318.349 60.5899 318.349 60.6083 318.349H60.6104H60.6125H60.6146H60.6167H60.6188H60.6209H60.623H60.6251H60.6272H60.6293H60.6314H60.6335H60.6356H60.6377H60.6398H60.6419H60.644H60.6461H60.6482H60.6503H60.6524H60.6545H60.6566H60.6587H60.6608H60.6629H60.665H60.6671H60.6692H60.6713H60.6734H60.6755H60.6776H60.6797H60.6818H60.6839H60.686H60.6881H60.6902H60.6923H60.6944H60.6965H60.6986H60.7007H60.7028H60.7049H60.707H60.7091H60.7112H60.7133H60.7154H60.7175H60.7196H60.7217H60.7238H60.7259H60.728H60.7301H60.7322H60.7343H60.7364H60.7385H60.7406H60.7427H60.7448H60.7469H60.749H60.7511H60.7532H60.7553H60.7574H60.7595H60.7616H60.7637H60.7658H60.7679H60.77H60.7721H60.7742H60.7763H60.7784H60.7805H60.7826H60.7847H60.7868H60.7889H60.791H60.7931H60.7952H60.7973H60.7994H60.8015H60.8036H60.8057H60.8078H60.8099H60.812H60.8141H60.8162H60.8183H60.8204H60.8225H60.8246H60.8267H60.8288H60.8309H60.833H60.8351H60.8372H60.8393H60.8414H60.8435H60.8456H60.8477H60.8498H60.8519H60.854H60.8561H60.8582H60.8603H60.8624H60.8645H60.8666H60.8687H60.8708H60.8729H60.875H60.8771H60.8792H60.8813H60.8834H60.8855H60.8876H60.8897H60.8918H60.8939H60.896H60.8981H60.9002H60.9023H60.9044H60.9065H60.9086H60.9107H60.9128H60.915H60.9171H60.9192H60.9213H60.9234H60.9255H60.9276H60.9297H60.9318H60.9339H60.936H60.9381H60.9402H60.9423H60.9444H60.9465H60.9486H60.9507H60.9528H60.9549H60.957H60.9591H60.9612H60.9633H60.9654H60.9675H60.9696H60.9717H60.9738H60.9759H60.978H60.9801H60.9822H60.9843H60.9864H60.9885H60.9906H60.9927H60.9948H60.9969H60.999H61.0011H61.0032H61.0053H61.0074H61.0095H61.0116H61.0137H61.0158H61.0179H61.02H61.0221H61.0242H61.0263H61.0284H61.0305H61.0326H61.0347H61.0368H61.0389H61.041H61.0431H61.0452H61.0473H61.0494H61.0515H61.0536H61.0557H61.0578H61.0599H61.062H61.0641H61.0662H61.0683H61.0704H61.0725H61.0746H61.0767H61.0788H61.0809H61.083H61.0851H61.0872H61.0893H61.0914H61.0935H61.0956H61.0977H61.0998H61.1019H61.104H61.1061H61.1082H61.1103H61.1124H61.1145H61.1166H61.1187H61.1208H61.1229H61.125H61.1271H61.1292H61.1313H61.1334H61.1355H61.1376H61.1397H61.1418H61.1439H61.146H61.1481H61.1502H61.1523H61.1544H61.1565H61.1586H61.1607H61.1628H61.1649H61.167H61.1691H61.1712H61.1733H61.1754H61.1775H61.1796H61.1817H61.1838H61.1859H61.188H61.1901H61.1922H61.1943H61.1964H61.1985H61.2006H61.2027H61.2048H61.2069H61.209H61.2111H61.2132H61.2153H61.2174H61.2195H61.2216H61.2237H61.2258H61.2279H61.23H61.2321H61.2342H61.2363H61.2384H61.2405H61.2426H61.2447H61.2468H61.2489H61.251H61.2531H61.2552H61.2573H61.2594H61.2615H61.2636H61.2657H61.2678H61.2699H61.272H61.2741H61.2762H61.2783H61.2804H61.2825H61.2846H61.2867H61.2888H61.2909H61.293H61.2951H61.2972H61.2993H61.3014H61.3035H61.3056H61.3077H61.3098H61.3119H61.314H61.3161H61.3182H61.3203H61.3224H61.3245H61.3266H61.3287H61.3308H61.3329H61.335H61.3371H61.3392H61.3413H61.3434H61.3455H61.3476H61.3497H61.3518H61.3539H61.356H61.3581H61.3602H61.3623H61.3644H61.3665H61.3686H61.3708H61.3729H61.375H61.3771H61.3792H61.3813H61.3834H61.3855H61.3876H61.3897H61.3918H61.3939H61.396H61.3981H61.4002H61.4023H61.4044H61.4065H61.4086H61.4107H61.4128H61.4149H61.417H61.4191H61.4212H61.4233H61.4254H61.4275H61.4296H61.4317H61.4338H61.4359H61.438H61.4401H61.4422H61.4443H61.4464H61.4485H61.4506H61.4527H61.4548H61.4569H61.459H61.4611H61.4632H61.4653H61.4674H61.4695H61.4716H61.4737H61.4758H61.4779H61.48H61.4821H61.4842H61.4863H61.4884H61.4905H61.4926H61.4947H61.4968H61.4989H61.501H61.5031H61.5052H61.5073H61.5094H61.5115H61.5136H61.5157H61.5178H61.5199H61.522H61.5241H61.5262H61.5283H61.5304H61.5325H61.5346H61.5367H61.5388H61.5409H61.543H61.5451H61.5472H61.5493H61.5514H61.5535H61.5556H61.5577H61.5598H61.5619H61.564H61.5661H61.5682H61.5703H61.5724H61.5745H61.5766H61.5787H61.5808H61.5829H61.585H61.5871H61.5892H61.5913H61.5934H61.5955H61.5976H61.5997H61.6018H61.6039H61.606H61.6081H61.6102H61.6123H61.6144H61.6165H61.6186H61.6207H61.6228H61.6249H61.627H61.6291H61.6312H61.6333H61.6354H61.6375H61.6396H61.6417H61.6438H61.6459H61.648H61.6501H61.6522H61.6543H61.6564H61.6585H61.6606H61.6627H61.6648H61.6669H61.669H61.6711H61.6732H61.6753H61.6774H61.6795H61.6816H61.6837C61.6935 318.349 61.7033 318.349 61.713 318.349C61.8637 318.348 62.003 318.348 62.1412 318.408C62.267 318.462 62.3845 318.564 62.5347 318.693C62.5443 318.702 62.554 318.71 62.5639 318.719C62.678 318.817 62.7822 318.873 62.8937 318.932C62.934 318.954 62.9752 318.976 63.0182 319C63.0912 319.042 63.1807 319.1 63.2501 319.185C63.3024 319.249 63.338 319.323 63.3554 319.405C63.5228 319.569 63.6197 319.742 63.6714 319.92C63.7156 320.073 63.7241 320.223 63.7257 320.352C63.9293 320.601 63.8925 320.92 63.7989 321.162C63.6919 321.439 63.4853 321.703 63.2809 321.879C63.1684 321.977 63.1061 322.063 63.0376 322.159C63.0124 322.194 62.9865 322.23 62.9569 322.268C62.9055 322.335 62.8382 322.412 62.7427 322.469C62.6693 322.514 62.589 322.541 62.5009 322.552C62.3665 322.668 62.2574 322.758 62.1412 322.808C62.003 322.868 61.8637 322.868 61.713 322.868C61.7033 322.868 61.6935 322.868 61.6837 322.868H61.4118C61.3929 322.868 61.3738 322.868 61.3545 322.868C61.3448 322.868 61.3351 322.868 61.3252 322.868H60.9668H60.9647H60.9626H60.9605H60.9584H60.9564H60.9543H60.9523H60.9502H60.9482H60.9462H60.9441H60.9421H60.9401H60.9381H60.9362H60.9342H60.9322H60.9303H60.9283H60.9264H60.9244H60.9225H60.9206H60.9186H60.9167H60.9148H60.9129H60.911H60.9092H60.9073H60.9054H60.9036H60.9017H60.8999H60.898H60.8962H60.8944H60.8926H60.8908H60.889H60.8872H60.8854H60.8836H60.8818H60.8801H60.8783H60.8765H60.8748H60.8731H60.8713H60.8696H60.8679H60.8662H60.8645H60.8628H60.8611H60.8594H60.8577H60.856H60.8544H60.8527H60.851H60.8494H60.8477H60.8461H60.8445H60.8428H60.8412H60.8396H60.838H60.8364H60.8348H60.8332H60.8316H60.8301H60.8285H60.8269H60.8254H60.8238H60.8222H60.8207H60.8192H60.8176H60.8161H60.8146H60.8131H60.8116H60.8101H60.8086H60.8071H60.8056H60.8041H60.8026H60.8011H60.7997H60.7982H60.7967H60.7953H60.7938H60.7924H60.791H60.7895H60.7881H60.7867H60.7853H60.7838H60.7824H60.781H60.7796H60.7782H60.7769H60.7755H60.7741H60.7727H60.7713H60.77H60.7686H60.7673H60.7659H60.7646H60.7632H60.7619H60.7605H60.7592H60.7579H60.7565H60.7552H60.7539H60.7526H60.7513H60.75H60.7487H60.7474H60.7461H60.7448H60.7435H60.7423H60.741H60.7397H60.7384H60.7372H60.7359H60.7347H60.7334H60.7322H60.7309H60.7297H60.7284H60.7272H60.726H60.7247H60.7235H60.7223H60.7211H60.7199H60.7186H60.7174H60.7162H60.715H60.7138H60.7126H60.7114H60.7103H60.7091H60.7079H60.7067H60.7055H60.7043H60.7032H60.702H60.7008H60.6997H60.6985H60.6973H60.6962H60.695H60.6939H60.6927H60.6916H60.6904H60.6893H60.6882H60.687H60.6859H60.6848H60.6836H60.6825H60.6814H60.6803H60.6791H60.678H60.6769H60.6758H60.6747H60.6736H60.6725H60.6713H60.6702H60.6691H60.668H60.6669H60.6658H60.6647H60.6636H60.6626H60.6615H60.6604H60.6593H60.6582H60.6571H60.656H60.6549H60.6539H60.6528H60.6525H60.6517H60.6506H60.6496H60.6485H60.6474H60.6463H60.6453H60.6442H60.6431H60.6421H60.641H60.6399H60.6389H60.6378H60.6367H60.6357H60.6346H60.6336H60.6325H60.6314H60.6304H60.6293H60.6283H60.6272H60.6262H60.6251H60.6241H60.623H60.6219H60.6209H60.6198H60.6188H60.6177H60.6167H60.6156H60.6146H60.6135H60.6125H60.6114H60.6104H60.6093H60.6083H60.6072H60.6062H60.6051H60.6041H60.603H60.602H60.6009H60.5999H60.5988H60.5978H60.5967H60.5957H60.5946H60.5936H60.5925H60.5915H60.5904H60.5893H60.5883H60.5872H60.5862H60.5851H60.5841H60.583H60.5819H60.5809H60.5798H60.5788H60.5777H60.5766H60.5756H60.5745H60.5734H60.5724H60.5713H60.5702H60.5692H60.5681H60.567H60.5659H60.5649H60.5638H60.5627H60.5616H60.5605H60.5595H60.5584H60.5573H60.5562H60.5551H60.554H60.5529H60.5518H60.5507H60.5496H60.5485H60.5474H60.5463H60.5452H60.5441H60.543H60.5419H60.5408H60.5397H60.5386H60.5374H60.5363H60.5352H60.5341H60.5329H60.5318H60.5307H60.5295H60.5284H60.5273H60.5261H60.525H60.5238H60.5227H60.5215H60.5204H60.5192H60.5181H60.5169H60.5157H60.5146H60.5134H60.5122H60.511H60.5099H60.5087H60.5075H60.5063H60.5051H60.5039H60.5027H60.5015H60.5003H60.4991H60.4979H60.4967H60.4955H60.4943H60.4931H60.4918H60.4906H60.4894H60.4881H60.4869H60.4856H60.4844H60.4832H60.4819H60.4806H60.4794H60.4781H60.4769H60.4756H60.4743H60.473H60.4717H60.4705H60.4692H60.4679H60.4666H60.4653H60.464H60.4627H60.4613H60.46H60.4587H60.4574H60.456H60.4547H60.4534H60.452H60.4507H60.4493H60.448H60.4466H60.4452H60.4439H60.4425H60.4411H60.4397H60.4383H60.4369H60.4355H60.4341H60.4327H60.4313H60.4299H60.4285H60.427H60.4256H60.4242H60.4227H60.4213H60.4198H60.4184H60.4169H60.4154H60.414H60.4125H60.411H60.4095H60.408H60.4065H60.405H60.4035H60.402H60.4005H60.3989H60.3974H60.3959H60.3943H60.3928H60.3912H60.3897H60.3881H60.3865H60.3849H60.3834H60.3818H60.3802H60.3786H60.377H60.3753H60.3737H60.3721H60.3705H60.3688H60.3672H60.3655H60.3639H60.3622H60.3605H60.3589H60.3572H60.3555H60.3538H60.3521H60.3504H60.3487H60.347H60.3452H60.3435H60.3418H60.34H60.3383H60.3365H60.3347H60.333H60.3312H60.3294H60.3276H60.3258H60.324H60.3222H60.3204H60.3185H60.3167H60.3148H60.313H60.3111H60.3093H60.3074H60.3055H60.3036H60.3017H60.2998H60.2979H60.296H60.2941H60.2922H60.2902H60.2883H60.2863H60.2844H60.2824H60.2804H60.2784H60.2764H60.2744H60.2724H60.2704H60.2684H60.2663H60.2643H60.2623H60.2602H60.2581H60.2561H60.254H60.2519H60.2498H59.8913H59.8892H59.8871H59.8851H59.883H59.8809H59.8789H59.8768H59.8748H59.8728H59.8707H59.8687H59.8667H59.8647H59.8627H59.8607H59.8588H59.8568H59.8548H59.8529H59.8509H59.849H59.8471H59.8451H59.8432H59.8413H59.8394H59.8375H59.8356H59.8337H59.8319H59.83H59.8281H59.8263H59.8245H59.8226H59.8208H59.819H59.8171H59.8153H59.8135H59.8117H59.81H59.8082H59.8064H59.8046H59.8029H59.8011H59.7994H59.7976H59.7959H59.7942H59.7925H59.7907H59.789H59.7873H59.7856H59.7839H59.7823H59.7806H59.7789H59.7773H59.7756H59.774H59.7723H59.7707H59.769H59.7674H59.7658H59.7642H59.7626H59.761H59.7594H59.7578H59.7562H59.7546H59.7531H59.7515H59.7499H59.7484H59.7468H59.7453H59.7437H59.7422H59.7407H59.7392H59.7376H59.7361H59.7346H59.7331H59.7316H59.7301H59.7287H59.7272H59.7257H59.7242H59.7228H59.7213H59.7199H59.7184H59.717H59.7155H59.7141H59.7127H59.7113H59.7098H59.7084H59.707H59.7056H59.7042H59.7028H59.7014H59.7H59.6987H59.6973H59.6959H59.6945H59.6932H59.6918H59.6905H59.6891H59.6878H59.6864H59.6851H59.6838H59.6824H59.6811H59.6798H59.6785H59.6772H59.6759H59.6746H59.6733H59.672H59.6707H59.6694H59.6681H59.6668H59.6656H59.6643H59.663H59.6618H59.6605H59.6592H59.658H59.6567H59.6555H59.6542H59.653H59.6518H59.6505H59.6493H59.6481H59.6469H59.6456H59.6444H59.6432H59.642H59.6408H59.6396H59.6384H59.6372H59.636H59.6348H59.6336H59.6325H59.6313H59.6301H59.6289H59.6277H59.6266H59.6254H59.6242H59.6231H59.6219H59.6208H59.6196H59.6185H59.6173H59.6162H59.615H59.6139H59.6127H59.6116H59.6105H59.6093H59.6082H59.6071H59.606H59.6048H59.6037H59.6026H59.6015H59.6004H59.5992H59.5981H59.597H59.5959H59.5948H59.5937H59.5926H59.5915H59.5904H59.5893H59.5882H59.5871H59.586H59.5849H59.5839H59.5828H59.5817H59.5806H59.5795H59.5784H59.5774H59.5763H59.5752H59.5741H59.5731H59.572H59.5709H59.5698H59.5688H59.5677H59.5666H59.5656H59.5645H59.5634H59.5624H59.5613H59.5603H59.5592H59.5581H59.5571H59.556H59.555H59.5539H59.5528H59.5518H59.5507H59.5497H59.5486H59.5476H59.5465H59.5455H59.5444H59.5434H59.5423H59.5413H59.5402H59.5392H59.5381H59.5371H59.536H59.535H59.5339H59.5329H59.5318H59.5308H59.5297H59.5287H59.5276H59.5266H59.5255H59.5245H59.5234H59.5223H59.5213H59.5202H59.5192H59.5181H59.5171H59.516H59.515H59.5139H59.5129H59.5118H59.5108H59.5097H59.5086H59.5076H59.5065H59.5055H59.5044H59.5033H59.5023H59.5012H59.5001H59.4991H59.498H59.4969H59.4959H59.4948H59.4937H59.4927H59.4916H59.4905H59.4894H59.4883H59.4873H59.4862H59.4851H59.484H59.4829H59.4819H59.4808H59.4797H59.4786H59.4775H59.4764H59.4753H59.4742H59.4731H59.472H59.4709H59.4698H59.4687H59.4676H59.4665H59.4654H59.4642H59.4631H59.462H59.4609H59.4598H59.4586H59.4575H59.4564H59.4552H59.4541H59.453H59.4518H59.4507H59.4495H59.4484H59.4473H59.4461H59.4449H59.4438H59.4426H59.4415H59.4403H59.4391H59.438H59.4368H59.4356H59.4344H59.4333H59.4321H59.4309H59.4297H59.4285H59.4273H59.4261H59.4249H59.4237H59.4225H59.4213H59.4201H59.4188H59.4176H59.4164H59.4152H59.4139H59.4127H59.4115H59.4102H59.409H59.4077H59.4065H59.4052H59.404H59.4027H59.4014H59.4002H59.3989H59.3976H59.3963H59.395H59.3937H59.3924H59.3911H59.3898H59.3885H59.3872H59.3859H59.3846H59.3833H59.3819H59.3806H59.3793H59.3779H59.3766H59.3752H59.3739H59.3725H59.3712H59.3698H59.3684H59.3671H59.3657H59.3643H59.3629H59.3615H59.3601H59.3587H59.3573H59.3559H59.3545H59.353H59.3516H59.3502H59.3487H59.3473H59.3458H59.3444H59.3429H59.3415H59.34H59.3385H59.3371H59.3356H59.3341H59.3326H59.3311H59.3296H59.3281H59.3266H59.325H59.3235H59.322H59.3204H59.3189H59.3173H59.3158H59.3142H59.3127H59.3111H59.3095H59.3079H59.3063H59.3047H59.3031H59.3015H59.2999H59.2983H59.2967H59.295H59.2934H59.2918H59.2901H59.2885H59.2868H59.2851H59.2834H59.2818H59.2801H59.2784H59.2767H59.275H59.2733H59.2715H59.2698H59.2681H59.2663H59.2646H59.2628H59.2611H59.2593H59.2575H59.2558H59.254H59.2522H59.2504H59.2486H59.2467H59.2449H59.2431H59.2413H59.2394H59.2376H59.2357H59.2338H59.232H59.2301H59.2282H59.2263H59.2244H59.2225H59.2206H59.2187H59.2167H59.2148H59.2128H59.2109H59.2089H59.207H59.205H59.203H59.201H59.199H59.197H59.195H59.193H59.1909H59.1889H59.1868H59.1848H59.1827H59.1806H59.1786H59.1765H59.1744C58.9246 322.868 58.6964 322.761 58.5009 322.634L57.3408 320.159Z" fill="white" stroke="white" stroke-width="0.5"/>
<path d="M67.6367 325.602L67.6366 325.603L67.6414 325.606C67.717 325.66 67.7932 325.715 67.8699 325.77C69.959 327.274 72.4304 329.052 75.2503 329.664C78.1806 330.608 81.1055 330.287 84.0116 329.036C84.5013 328.855 84.9586 328.665 85.3973 328.483C87.2554 327.714 88.7789 327.083 91.0113 327.805L91.0112 327.805L91.0232 327.808C93.08 328.363 94.8955 329.154 96.6831 329.933C97.3708 330.233 98.0544 330.531 98.746 330.813C101.223 331.822 103.77 332.61 106.868 332.454C107.609 332.453 108.346 332.294 109.052 332.142L109.065 332.139C109.787 331.984 110.477 331.836 111.163 331.836C112.369 331.836 113.227 332.131 114.054 332.544C114.373 332.703 114.684 332.878 115.012 333.063C115.115 333.12 115.219 333.179 115.326 333.239C115.771 333.487 116.25 333.743 116.8 333.979L116.799 333.98L116.812 333.984C119.356 334.925 121.906 335.24 124.457 334.925C125.659 334.777 126.879 334.507 128.076 334.241C128.144 334.227 128.211 334.212 128.278 334.197C129.546 333.916 130.786 333.649 131.978 333.535C134.352 333.307 136.495 333.688 138.215 335.764L138.216 335.766C139.273 337.019 140.13 338.31 140.983 339.594C141.278 340.039 141.573 340.483 141.875 340.924C143.045 342.632 144.317 344.279 146.139 345.694C150.523 349.159 156.709 349.463 161.786 347.59C164.816 346.717 167.529 345.039 169.901 343.572C170.084 343.459 170.264 343.347 170.443 343.237C170.725 343.063 171.01 342.892 171.294 342.721C173.494 341.399 175.653 340.101 176.639 337.55C177.038 336.518 176.733 335.565 176.044 334.886C175.365 334.217 174.318 333.812 173.191 333.809C169.772 333.503 167.061 335.467 164.376 337.41C164.304 337.462 164.233 337.514 164.161 337.566C161.373 339.582 158.577 341.53 154.918 341.229L154.913 341.229C152.503 341.08 150.86 339.75 149.539 338.041C148.877 337.185 148.301 336.24 147.753 335.309C147.665 335.16 147.578 335.012 147.492 334.864C147.039 334.091 146.598 333.337 146.14 332.68L146.141 332.68L146.136 332.674C143.603 329.241 140.322 326.403 135.212 325.773C133.928 325.615 132.56 325.695 131.209 325.85C130.533 325.928 129.857 326.025 129.196 326.122C129.135 326.131 129.074 326.14 129.013 326.148C128.415 326.236 127.83 326.322 127.264 326.391L127.264 326.391L127.252 326.393C126.862 326.46 126.495 326.527 126.146 326.591C124.877 326.822 123.856 327.008 122.858 327.008C121.608 327.008 120.396 326.713 118.816 325.804L118.816 325.804L118.81 325.801C117.365 325.023 116.089 324.471 114.714 324.155C113.339 323.838 111.878 323.761 110.066 323.917L110.064 323.917C109.376 323.983 108.741 324.062 108.137 324.137C105.877 324.418 104.057 324.644 101.562 323.929C100.322 323.47 99.1235 322.915 97.9275 322.351C97.8147 322.298 97.702 322.245 97.5892 322.191C96.506 321.68 95.4213 321.167 94.3176 320.727C91.8775 319.753 89.3209 319.118 86.3928 319.591C85.0926 319.752 83.8941 320.311 82.7319 320.89C82.6174 320.947 82.5031 321.004 82.3892 321.061C81.3366 321.588 80.3065 322.104 79.2073 322.376C77.4876 322.67 75.8411 322.227 74.2492 321.541C73.4522 321.197 72.6757 320.796 71.913 320.399L71.8422 320.362C71.1071 319.98 70.383 319.603 69.6786 319.3C67.5196 318.369 64.9754 317.503 62.5976 317.424C60.2088 317.345 57.9616 318.062 56.4661 320.319L56.4619 320.325L56.4582 320.331C56.234 320.718 56.234 321.2 56.4582 321.587C56.6875 321.982 57.1342 322.252 57.7499 322.252C61.6343 322.252 64.8085 323.468 67.6367 325.602Z" fill="white" stroke="white" stroke-width="0.5"/>
<path d="M173.578 338.321L173.594 338.317L173.609 338.312C179.693 336.151 185.048 334.613 191.83 333.997L191.833 333.997C194.247 333.752 196.604 333.604 198.954 333.457C199.565 333.419 200.175 333.381 200.786 333.341C203.745 333.147 206.711 332.915 209.769 332.45C220.169 330.903 230.679 327.491 235.402 319.031L235.402 319.031L235.407 319.02C235.679 318.474 235.927 317.909 236.173 317.351L236.174 317.348C236.421 316.787 236.665 316.232 236.931 315.697C237.463 314.627 238.072 313.657 238.931 312.916L238.939 312.909L238.945 312.903C239.957 311.885 241.227 311.583 242.635 311.508C243.24 311.475 243.861 311.484 244.494 311.494C244.6 311.495 244.707 311.497 244.814 311.498C245.549 311.508 246.297 311.508 247.027 311.431C249.571 311.428 252.119 310.8 254.307 309.542L254.307 309.543L254.314 309.539C255.539 308.784 256.431 307.743 257.278 306.755C257.325 306.7 257.372 306.645 257.419 306.59C258.318 305.544 259.184 304.578 260.387 303.985C261.606 303.385 263.008 303.08 264.476 302.888C265.341 302.775 266.207 302.703 267.068 302.632C267.683 302.581 268.296 302.53 268.904 302.464C272.504 302.154 275.743 301.533 279.335 300.604C280.657 300.303 281.963 299.981 283.26 299.661C288.675 298.324 293.946 297.023 299.688 297.518L299.695 297.519C307.53 297.979 314.394 300.744 320.922 304.176C323.711 305.642 326.435 307.227 329.147 308.806C329.61 309.076 330.073 309.346 330.536 309.614C333.707 311.455 336.873 313.256 340.109 314.807L340.109 314.807L340.118 314.811C341.655 315.473 343.116 314.98 343.903 314.047C344.296 313.581 344.525 313 344.5 312.397C344.474 311.792 344.193 311.19 343.612 310.687C334.621 302.004 321.678 294.563 308.367 291.77C301.886 290.217 295.403 289.907 288.919 290.839L288.916 290.839C285.825 291.324 282.896 292.046 279.993 292.761C279.181 292.961 278.371 293.161 277.56 293.355C273.845 294.243 270.1 295.011 266.003 295.164L266.001 295.164C262.575 295.32 259.942 295.865 257.619 296.926C255.297 297.986 253.301 299.553 251.139 301.728C249.742 303.083 248.534 303.6 247.196 303.824C246.519 303.937 245.805 303.975 245.004 304.004C244.86 304.009 244.712 304.014 244.561 304.019C243.886 304.042 243.151 304.066 242.343 304.129C239.444 304.131 236.884 304.757 234.683 306.338C232.301 307.919 230.933 310.129 229.678 312.372C229.538 312.622 229.4 312.871 229.262 313.12C228.152 315.126 227.056 317.106 225.333 318.727L225.333 318.727L225.326 318.734C221.443 322.692 215.781 324.228 210.042 325.465C206.921 326.003 203.484 326.273 199.934 326.533C199.714 326.55 199.494 326.566 199.274 326.582C195.932 326.826 192.504 327.077 189.174 327.55C182.084 328.556 175.381 330.574 170.839 335.735C170.446 336.079 170.278 336.468 170.356 336.864C170.431 337.242 170.717 337.552 171.055 337.781C171.399 338.014 171.833 338.189 172.273 338.286C172.712 338.384 173.175 338.407 173.578 338.321Z" fill="white" stroke="white" stroke-width="0.5"/>
<path d="M669.195 53.6626V53.5953L669.161 53.5372C668.928 53.1349 668.476 52.9489 668.093 52.9489C667.899 52.9489 667.698 52.9961 667.537 53.1125C667.372 53.233 667.264 53.4186 667.261 53.6504C666.903 57.664 666.544 61.6907 666.544 65.7192C666.544 66.6334 666.455 67.6266 666.366 68.6339L666.365 68.6405C666.276 69.6405 666.185 70.6544 666.185 71.593V71.5984V71.6038V71.6093V71.6147V71.6201V71.6256V71.631V71.6364V71.6419V71.6473V71.6527V71.6582V71.6636V71.669V71.6745V71.6799V71.6854V71.6908V71.6962V71.7017V71.7071V71.7125V71.718V71.7234V71.7289V71.7343V71.7397V71.7452V71.7506V71.7561V71.7615V71.7669V71.7724V71.7778V71.7833V71.7887V71.7941V71.7996V71.805V71.8105V71.8159V71.8214V71.8268V71.8323V71.8377V71.8432V71.8486V71.8541V71.8595V71.865V71.8704V71.8759V71.8813V71.8868V71.8922V71.8977V71.9031V71.9086V71.9141V71.9195V71.925V71.9304V71.9359V71.9414V71.9468V71.9523V71.9577V71.9632V71.9687V71.9741V71.9796V71.9851V71.9906V71.996V72.0015V72.007V72.0124V72.0179V72.0234V72.0289V72.0344V72.0398V72.0453V72.0508V72.0563V72.0618V72.0673V72.0727V72.0782V72.0837V72.0892V72.0947V72.1002V72.1057V72.1112V72.1167V72.1222V72.1277V72.1332V72.1387V72.1442V72.1497V72.1552V72.1607V72.1662V72.1717V72.1772V72.1828V72.1883V72.1938V72.1993V72.2048V72.2103V72.2159V72.2214V72.2269V72.2325V72.238V72.2435V72.249V72.2546V72.2601V72.2657V72.2712V72.2767V72.2823V72.2878V72.2934V72.2989V72.3045V72.31V72.3156V72.3211V72.3267V72.3322V72.3378V72.3434V72.3489V72.3545V72.3601V72.3656V72.3712V72.3768V72.3824V72.3879V72.3935V72.3991V72.4047V72.4103V72.4159V72.4215V72.427V72.4326V72.4382V72.4438V72.4494V72.455V72.4606V72.4663V72.4719V72.4775V72.4831V72.4887V72.4943V72.5V72.5056V72.5112V72.5168V72.5225V72.5281V72.5337V72.5394V72.545V72.5506V72.5563V72.5619V72.5676V72.5732V72.5789V72.5845V72.5902V72.5959V72.6015V72.6072V72.6129V72.6185V72.6242V72.6299V72.6356V72.6413V72.6469V72.6526V72.6583V72.664V72.6697V72.6754V72.6811V72.6868V72.6925V72.6982V72.7039V72.7097V72.7154V72.7211V72.7268V72.7325V72.7383V72.744V72.7497V72.7555V72.7612V72.767V72.7727V72.7785V72.7842V72.79V72.7957V72.8015V72.8072V72.813V72.8188V72.8246V72.8303V72.8361V72.8419V72.8477V72.8535V72.8593V72.8651V72.8708V72.8766V72.8825V72.8883V72.8941V72.8999V72.9057V72.9115V72.9174V72.9232V72.929V72.9348V72.9407V72.9465V72.9524V72.9582V72.9641V72.9699V72.9758V72.9816V72.9875V72.9934V72.9992V73.0051V73.011V73.0169V73.0228V73.0286V73.0345V73.0404V73.0463V73.0522V73.0581V73.0641V73.07V73.0759V73.0818V73.0877V73.0937V73.0996V73.1055V73.1115V73.1174V73.1234V73.1293V73.1353V73.1412V73.1472V73.1532V73.1591V73.1651V73.1711V73.1771V73.183V73.189V73.195V73.201V73.207V73.213V73.219V73.2251V73.2311V73.2371V73.2431V73.2491V73.2552V73.2612V73.2673V73.2733V73.2794V73.2854V73.2915V73.2975V73.3036V73.3097V73.3157V73.3218V73.3279V73.334V73.3401V73.3462V73.3523V73.3584V73.3645V73.3706V73.3767V73.3828V73.389V73.3951V73.4012V73.4074V73.4135V73.4197V73.4258V73.432V73.4381V73.4443V73.4505V73.4567V73.4628V73.469V73.4752V73.4814V73.4876V73.4938V73.5V73.5062V73.5124V73.5187V73.5249V73.5311V73.5373V73.5436V73.5498V73.5561V73.5623V73.5686V73.5749V73.5811V73.5874V73.5937V73.6V73.6063V73.6125V73.6188V73.6251V73.6315V73.6378V73.6441V73.6504V73.6567V73.6631V73.6694V73.6757V73.6821V73.6884V73.6948V73.7012V73.7075V73.7139V73.7203V73.7267V73.7331V73.7394V73.7458V73.7522V73.7587V73.7651V73.7715V73.7779V73.7843V73.7908V73.7972V73.8037V73.8101V73.8166V73.823V73.8295V73.836V73.8424V73.8489V73.8554V73.8619V73.8684V73.8749V73.8814V73.8879V73.8945V73.901V73.9075V73.914V73.9206V73.9271V73.9337V73.9403V73.9468V73.9534V73.96V73.9665V73.9731V73.9797V73.9863V73.9929V73.9995V74.0062V74.0128V74.0194V74.026V74.0327V74.0393V74.046V74.0526V74.0593V74.066V74.0726V74.0793V74.086V74.0927V74.0994V74.1061V74.1128V74.1195V74.1262V74.133V74.1397V74.1464V74.1532V74.1599V74.1667V74.1734V74.1802V74.187V74.1938V74.2006V74.2073V74.2141V74.221V74.2278V74.2346V74.2414V74.2482V74.2551V74.2619V74.2688V74.2756V74.2825V74.2893V74.2962V74.3031V74.31V74.3169V74.3238V74.3307V74.3376V74.3445V74.3514V74.3584V74.3653V74.3723V74.3792V74.3862V74.3931V74.4001V74.4071V74.4141V74.4211V74.428V74.435V74.4421V74.4491V74.4561V74.4631V74.4702V74.4772V74.4843V74.4913V74.4984V74.5054V74.5125V74.5196V74.5267V74.5338V74.5409V74.548V74.5551V74.5622V74.5694V74.5765V74.5837V74.5908V74.598V74.6051V74.6123V74.6195V74.6267V74.6339V74.6411V74.6483V74.6555V74.6627V74.6699V74.6772V74.6844C666.185 74.9021 666.164 75.122 666.142 75.3506L666.14 75.3706C666.118 75.5885 666.096 75.8165 666.096 76.0369C666.096 76.4747 666.185 76.9202 666.562 77.2848C666.6 77.4082 666.69 77.4957 666.781 77.5482C666.896 77.6142 667.032 77.6394 667.152 77.6394C667.273 77.6394 667.408 77.6142 667.523 77.5482C667.614 77.496 667.703 77.4093 667.741 77.287C668.093 76.9649 668.283 76.6304 668.38 76.2539C668.478 75.8752 668.478 75.4615 668.478 75.0146L668.478 74.9936V74.9881V74.9827V74.9772V74.9718V74.9663V74.9608V74.9553V74.9499V74.9444V74.9389V74.9334V74.9278V74.9223V74.9168V74.9113V74.9057V74.9002V74.8946V74.8891V74.8835V74.8779V74.8723V74.8668V74.8612V74.8556V74.85V74.8443V74.8387V74.8331V74.8275V74.8218V74.8162V74.8105V74.8049V74.7992V74.7936V74.7879V74.7822V74.7765V74.7708V74.7651V74.7594V74.7537V74.748V74.7423V74.7365V74.7308V74.7251V74.7193V74.7136V74.7078V74.7021V74.6963V74.6905V74.6847V74.679V74.6732V74.6674V74.6616V74.6558V74.65V74.6441V74.6383V74.6325V74.6267V74.6208V74.615V74.6091V74.6033V74.5974V74.5915V74.5857V74.5798V74.5739V74.568V74.5621V74.5562V74.5504V74.5444V74.5385V74.5326V74.5267V74.5208V74.5149V74.5089V74.503V74.497V74.4911V74.4851V74.4792V74.4732V74.4673V74.4613V74.4553V74.4493V74.4433V74.4374V74.4314V74.4254V74.4194V74.4134V74.4073V74.4013V74.3953V74.3893V74.3833V74.3772V74.3712V74.3652V74.3591V74.3531V74.347V74.341V74.3349V74.3288V74.3228V74.3167V74.3106V74.3046V74.2985V74.2924V74.2863V74.2802V74.2741V74.268V74.2619V74.2558V74.2497V74.2436V74.2374V74.2313V74.2252V74.2191V74.2129V74.2068V74.2007V74.1945V74.1884V74.1822V74.1761V74.1699V74.1638V74.1576V74.1514V74.1453V74.1391V74.1329V74.1267V74.1206V74.1144V74.1082V74.102V74.0958V74.0896V74.0834V74.0772V74.071V74.0648V74.0586V74.0524V74.0462V74.04V74.0337V74.0275V74.0213V74.0151V74.0088V74.0026V73.9964V73.9901V73.9839V73.9777V73.9714V73.9652V73.9589V73.9527V73.9464V73.9402V73.9339V73.9276V73.9214V73.9151V73.9089V73.9026V73.8963V73.89V73.8838V73.8775V73.8712V73.8649V73.8587V73.8524V73.8461V73.8398V73.8335V73.8272V73.8209V73.8146V73.8084V73.8021V73.7958V73.7895V73.7832V73.7769V73.7706V73.7642V73.7579V73.7516V73.7453V73.739V73.7327V73.7264V73.7201V73.7138V73.7074V73.7011V73.6948V73.6885V73.6822V73.6759V73.6695V73.6632V73.6569V73.6506V73.6442V73.6379V73.6316V73.6252V73.6189V73.6126V73.6063V73.5999V73.5936V73.5873V73.5809V73.5746V73.5683V73.5619V73.5556V73.5493V73.5429V73.5366V73.5302V73.5239V73.5176V73.5112V73.5049V73.4985V73.4922V73.4859V73.4795V73.4732V73.4669V73.4605V73.4542V73.4478V73.4415V73.4352V73.4288V73.4225V73.4161V73.4098V73.4035V73.3971V73.3908V73.3844V73.3781V73.3718V73.3654V73.3591V73.3527V73.3464V73.3401V73.3337V73.3274V73.3211V73.3147V73.3084V73.3021V73.2957V73.2894V73.2831V73.2767V73.2704V73.2641V73.2578V73.2514V73.2451V73.2388V73.2325V73.2261V73.2198V73.2135V73.2072V73.2008V73.1945V73.1882V73.1819V73.1756V73.1693V73.163V73.1566V73.1503V73.144V73.1377V73.1314V73.1251V73.1188V73.1125V73.1062V73.0999V73.0936V73.0873V73.081V73.0747V73.0684V73.0621V73.0559V73.0496V73.0433V73.037V73.0307V73.0244V73.0182V73.0119V73.0056V72.9993V72.9931V72.9868V72.9805V72.9743V72.968V72.9618V72.9555V72.9493V72.943V72.9367V72.9305V72.9243V72.918V72.9118V72.9055V72.8993V72.8931V72.8868V72.8806V72.8744V72.8681V72.8619V72.8557V72.8495V72.8433V72.8371V72.8309V72.8247V72.8184V72.8123V72.8061V72.7999V72.7937V72.7875V72.7813V72.7751V72.7689V72.7628V72.7566V72.7504V72.7442V72.7381V72.7319V72.7258V72.7196V72.7134V72.7073V72.7011V72.695V72.6889V72.6827V72.6766V72.6705V72.6643V72.6582V72.6521V72.646V72.6399V72.6338V72.6277V72.6216V72.6155V72.6094V72.6033V72.5972V72.5911V72.585V72.579V72.5729V72.5668V72.5608V72.5547V72.5486V72.5426V72.5365V72.5305V72.5245V72.5184V72.5124V72.5064V72.5003V72.4943V72.4883V72.4823V72.4763V72.4703V72.4643V72.4583V72.4523V72.4463V72.4404V72.4344V72.4284V72.4224V72.4165V72.4105V72.4046V72.3986V72.3927V72.3867V72.3808V72.3749V72.369V72.363V72.3571V72.3512V72.3453V72.3394V72.3335V72.3276V72.3217V72.3159V72.31V72.3041V72.2983V72.2924V72.2865V72.2807V72.2749V72.269V72.2632V72.2574V72.2515V72.2457V72.2399V72.2341V72.2283V72.2225V72.2167V72.2109V72.2051V72.1994V72.1936V72.1878V72.1821V72.1763V72.1706V72.1649V72.1591V72.1534V72.1477V72.142V72.1362V72.1305V72.1248V72.1191V72.1135V72.1078V72.1021V72.0964V72.0908V72.0851V72.0795V72.0738V72.0682V72.0626V72.0569V72.0513V72.0457V72.0401V72.0345V72.0289V72.0233V72.0177V72.0122V72.0066V72.001V71.9955V71.9899V71.9844V71.9789V71.9733V71.9678V71.9623V71.9568V71.9513V71.9458V71.9403V71.9348V71.9294V71.9239V71.9184V71.913V71.9075V71.9021C668.478 70.9879 668.566 69.9947 668.656 68.9874L668.657 68.9808C668.745 67.9848 668.835 66.975 668.836 66.0395C669.195 62.013 669.195 57.9879 669.195 53.6679V53.6626Z" fill="white" stroke="white" stroke-width="0.5"/>
<path opacity="0.6" d="M419.084 411.036C418.008 409.181 416.574 407.017 415.499 405.162C413.707 402.689 411.556 400.216 407.613 401.143C405.462 401.761 403.669 402.998 401.877 403.925C396.858 407.017 391.84 411.345 390.047 416.291C387.896 418.455 385.745 420.928 382.878 422.783C378.934 424.947 375.35 428.039 372.482 431.13C369.614 434.222 367.822 437.622 366.029 441.023C364.954 442.878 363.878 444.733 363.52 446.587C357.784 451.534 351.69 456.48 345.596 461.426C351.69 454.316 357.784 447.206 363.52 439.786C367.822 435.458 372.123 431.13 376.783 426.802C381.444 422.165 386.821 417.837 391.123 412.891C395.424 407.944 399.368 402.38 402.235 396.815C403.311 394.342 402.952 391.56 400.084 390.014C395.066 387.232 391.123 383.213 388.972 378.266C387.179 373.629 387.179 368.683 386.462 364.046C385.745 359.409 383.595 355.081 379.651 351.989C377.5 350.134 374.633 349.207 371.765 348.279C370.331 347.661 365.671 347.043 365.312 345.188C364.954 341.787 361.727 339.932 358.143 340.551C349.181 342.096 341.653 346.734 336.993 353.535C336.634 353.844 336.276 354.153 336.276 354.462C333.408 354.153 330.898 354.771 328.748 357.245C328.389 357.863 328.389 358.481 328.748 359.099C330.54 361.573 332.691 362.191 335.2 364.046C338.785 366.21 339.502 369.301 341.294 372.393C343.087 375.484 344.521 378.576 346.671 381.667C349.181 384.758 352.049 387.541 354.916 390.632C360.294 396.506 367.105 403.925 369.255 411.345C371.406 419.692 363.161 426.184 357.426 432.058C344.521 445.66 333.049 459.881 320.861 473.792C308.314 488.322 296.126 502.852 284.655 517.691C278.561 525.728 272.108 533.766 265.297 541.495C258.486 549.842 253.109 558.807 246.656 567.154C245.939 568.081 247.732 569.009 248.449 568.39C255.618 560.971 263.505 554.17 270.316 546.441C277.127 538.713 283.938 531.293 290.749 523.564C296.485 517.382 302.579 510.889 308.314 504.397C308.314 505.943 307.956 507.489 307.956 509.035C307.597 515.836 307.956 523.255 310.107 529.747C310.824 531.911 313.333 532.53 315.484 531.602C323.729 528.202 329.465 521.71 331.257 513.981C332.332 509.962 331.974 504.707 335.2 501.615C336.634 500.069 339.143 499.142 340.936 498.215C342.728 496.978 344.521 495.741 345.954 494.196C352.049 487.704 353.482 479.357 359.218 472.556C365.671 465.136 373.916 458.026 372.482 447.824C372.482 447.515 372.482 447.206 372.123 446.897C372.482 445.969 373.199 444.733 373.557 443.805C375.35 440.404 377.859 437.004 380.727 434.222C382.161 432.676 383.953 431.439 385.745 430.203C386.104 429.894 386.462 429.584 386.821 429.275C387.179 429.894 387.538 430.512 388.255 431.13C391.481 434.222 396.858 434.84 401.518 433.912C405.82 432.985 409.763 430.821 412.631 428.039C415.499 425.256 418.367 422.165 420.159 418.455C421.235 415.982 420.518 413.509 419.084 411.036ZM402.594 413.818C402.594 414.127 402.594 414.127 402.235 414.436C401.877 415.055 401.16 415.982 400.801 416.6C400.085 417.219 399.726 418.146 398.651 418.764C399.368 416.909 400.443 415.673 402.594 413.818Z" fill="#9AA6B2"/>
<path opacity="0.6" d="M549.22 476.886C549.22 471.63 545.635 469.776 540.975 468.848C538.465 467.302 535.956 466.375 533.088 464.829C532.013 464.211 531.296 464.211 530.22 464.211C530.22 462.665 530.579 460.81 530.579 459.265C530.579 458.646 530.579 458.337 530.579 458.028C530.579 454.628 529.862 451.227 529.145 447.826C528.428 445.353 525.56 444.735 523.051 445.044C510.504 446.59 497.957 448.135 485.411 449.681C482.543 449.99 481.467 452.773 481.826 454.937C483.977 465.757 486.486 479.359 476.449 487.706C474.298 489.561 472.147 490.179 469.279 490.797C466.77 491.416 464.261 492.343 462.827 494.198C461.393 496.671 461.751 499.763 461.393 502.545C461.034 505.946 461.034 509.655 460.676 513.056C460.676 513.983 461.034 514.911 462.11 515.529C461.751 515.838 461.393 516.147 461.034 516.457C459.6 517.693 461.034 520.475 463.185 519.857C471.43 517.384 480.392 519.857 488.278 516.147C496.523 512.438 497.957 504.709 500.467 497.908C501.184 496.362 501.184 496.362 502.976 495.744C505.485 495.126 507.995 495.435 510.504 495.125C516.24 494.816 521.617 493.889 527.352 493.889C529.503 493.889 532.371 493.58 534.164 494.816C535.239 495.744 535.956 496.98 536.673 498.217C538.465 500.69 540.258 502.854 543.842 503.782C545.993 504.4 548.503 502.854 548.503 500.69C548.503 496.671 548.144 492.652 548.144 488.633C548.144 484.924 548.861 480.905 549.22 476.886Z" fill="#9AA6B2"/>
<path opacity="0.6" d="M768.6 571.481C766.808 569.936 764.657 568.081 762.865 566.535C759.28 563.134 755.695 559.734 752.11 556.333C750.676 554.787 748.884 553.242 747.45 551.696C746.016 550.15 744.224 547.986 742.431 547.059C737.054 544.277 732.394 549.223 728.451 552.005C724.866 554.787 718.413 557.879 720.206 562.516C720.923 564.68 723.074 566.226 724.866 567.772C726.3 569.008 727.734 570.554 729.168 572.1C730.602 573.954 732.036 575.809 733.111 577.664C734.186 579.519 735.262 581.374 736.337 583.229C737.413 585.702 740.639 586.629 742.79 585.393C742.79 588.175 743.865 591.267 747.45 591.885C748.884 592.194 749.959 591.267 750.318 590.339C750.318 589.412 750.676 588.793 750.676 588.175C750.676 587.557 750.676 587.248 750.676 586.629C751.035 585.393 751.752 584.156 752.827 583.229C755.695 581.065 759.638 581.374 762.865 581.065C766.449 580.756 770.751 579.519 771.11 576.118C771.11 573.954 770.034 572.718 768.6 571.481Z" fill="#9AA6B2"/>
<path opacity="0.6" d="M773.977 466.373C772.543 462.354 770.75 458.644 767.883 455.244C765.373 452.152 762.505 448.443 758.562 446.588C753.902 444.424 749.6 446.279 745.299 448.752C740.638 451.225 735.978 454.007 731.318 456.48C726.658 459.263 721.998 461.736 717.337 464.518C713.394 466.682 707.658 468.846 705.149 472.556C702.64 476.266 703.715 481.212 704.432 485.231C705.508 489.559 707.3 493.578 709.809 497.288C710.885 498.833 713.394 499.761 715.545 499.142C716.62 502.543 721.281 505.944 724.148 507.799C724.865 508.108 725.582 507.489 724.865 506.871C722.715 505.016 719.13 502.234 720.205 499.452C720.922 497.597 723.073 496.669 724.865 495.742C730.243 492.96 735.261 490.177 740.28 487.395C750.676 481.521 761.43 476.884 771.826 471.01C773.618 470.083 774.694 468.228 773.977 466.373Z" fill="#9AA6B2"/>
</g>
</svg>
